{"glyphs":{"0":{"ha":979,"x_min":0,"x_max":0,"o":"m 483 -17 b 32 471 232 -17 32 143 b 493 979 32 846 310 979 b 947 485 725 979 947 813 b 483 -17 947 133 706 -17 m 490 24 b 624 467 597 24 624 115 b 490 939 624 878 585 939 b 356 489 407 939 356 883 b 490 24 356 103 388 24 "},"1":{"ha":568,"x_min":0,"x_max":0,"o":"m 10 24 l 56 35 b 126 146 119 50 126 53 l 126 736 l 15 765 l 15 789 b 415 975 182 821 336 883 l 442 965 l 442 146 b 513 35 442 53 449 50 l 558 24 l 558 0 l 10 0 "},"2":{"ha":760,"x_min":0,"x_max":0,"o":"m 13 150 b 269 381 144 256 210 317 b 426 749 383 503 426 606 b 340 939 426 886 401 939 b 285 861 300 939 288 919 b 133 681 278 710 235 681 b 19 783 63 681 19 721 b 365 979 19 890 146 979 b 738 707 590 979 738 896 b 165 232 738 514 476 367 l 165 226 l 579 226 b 696 336 646 226 656 236 l 724 336 l 704 0 l 13 0 "},"3":{"ha":788,"x_min":0,"x_max":0,"o":"m 336 -17 b 11 165 111 -17 11 50 b 135 269 11 232 60 269 b 264 92 221 269 257 233 b 315 24 267 36 278 24 b 436 274 408 24 436 114 b 279 481 436 456 379 481 l 215 481 l 215 525 l 274 525 b 426 732 379 525 426 568 b 343 939 426 875 411 939 b 297 892 311 939 300 924 b 160 715 283 756 253 715 b 47 810 83 715 47 749 b 365 979 47 915 164 979 b 724 749 569 979 724 903 b 478 518 724 647 650 549 l 478 514 b 760 272 638 506 760 440 b 336 -17 760 96 624 -17 "},"4":{"ha":844,"x_min":0,"x_max":0,"o":"m 292 24 l 332 35 b 401 146 393 51 401 57 l 401 278 l 14 278 l 14 350 l 501 963 l 700 963 l 700 378 l 833 378 l 822 278 l 700 278 l 700 146 b 768 35 700 53 708 49 l 814 24 l 814 0 l 292 0 m 401 378 l 401 756 l 397 756 l 101 382 l 101 378 "},"5":{"ha":742,"x_min":0,"x_max":0,"o":"m 303 -17 b 15 154 101 -17 15 57 b 132 254 15 221 57 254 b 263 81 221 254 254 224 b 322 24 265 42 274 24 b 451 203 404 24 451 78 b 232 403 451 349 374 403 b 90 375 161 403 119 389 l 71 388 l 132 963 l 565 963 b 656 1038 613 963 622 972 l 683 1038 l 654 746 l 157 746 l 142 600 b 340 629 169 613 244 629 b 717 314 574 629 717 521 b 303 -17 717 147 583 -17 "},"6":{"ha":876,"x_min":0,"x_max":0,"o":"m 446 -17 b 32 450 235 -17 32 107 b 547 979 32 836 289 979 b 810 825 715 979 810 924 b 690 724 810 765 776 724 b 564 869 601 724 572 756 b 517 938 560 929 547 938 b 351 525 407 938 358 853 b 557 575 390 546 456 575 b 857 303 732 575 857 496 b 446 -17 857 122 726 -17 m 451 24 b 544 294 532 24 544 101 b 424 496 544 456 507 496 b 350 483 389 496 372 492 l 350 436 b 451 24 350 88 376 24 "},"7":{"ha":724,"x_min":0,"x_max":0,"o":"m 121 0 b 617 738 182 314 379 538 l 160 738 b 43 600 96 738 86 721 l 15 600 l 40 963 l 713 963 l 713 825 b 458 0 508 550 463 306 l 121 0 "},"8":{"ha":803,"x_min":0,"x_max":0,"o":"m 388 -17 b 14 207 156 -17 14 75 b 232 417 14 322 104 372 l 232 419 b 51 671 94 478 51 558 b 421 979 51 860 242 979 b 750 772 590 979 750 907 b 554 588 750 676 650 615 l 554 585 b 790 299 718 522 790 432 b 388 -17 790 132 608 -17 m 508 611 b 549 767 533 644 549 674 b 407 939 549 878 506 939 b 261 811 324 939 261 897 b 508 611 261 728 315 682 m 401 24 b 574 169 489 24 574 61 b 271 394 574 260 519 294 b 229 231 244 353 229 308 b 401 24 229 106 274 24 "},"9":{"ha":876,"x_min":0,"x_max":0,"o":"m 431 981 b 844 514 642 981 844 857 b 318 -15 844 128 592 -15 b 53 139 150 -15 53 40 b 172 243 53 199 85 243 b 300 97 261 243 292 211 b 349 26 304 38 318 26 b 525 439 475 26 518 111 b 319 389 486 417 421 389 b 19 661 144 389 19 468 b 431 981 19 842 150 981 m 425 940 b 332 669 344 940 332 863 b 453 468 332 508 369 468 b 526 481 488 468 504 472 l 526 528 b 425 940 526 876 500 940 "},"\r":{"ha":257,"x_min":0,"x_max":0,"o":""}," ":{"ha":257,"x_min":0,"x_max":0,"o":""}," ":{"ha":257,"x_min":0,"x_max":0,"o":""}," ":{"ha":94,"x_min":0,"x_max":0,"o":""},"A":{"ha":972,"x_min":0,"x_max":0,"o":"m -8 24 l 10 29 b 119 196 56 43 68 54 l 399 963 l 564 963 l 849 197 b 947 31 894 72 906 43 l 971 24 l 971 0 l 425 0 l 425 24 l 464 33 b 517 96 503 43 517 63 b 488 225 517 122 503 181 l 463 306 l 217 306 l 189 224 b 161 100 174 178 161 136 b 232 33 161 67 176 50 l 265 24 l 265 0 l -8 0 m 232 353 l 449 353 l 347 681 l 343 681 "},"À":{"ha":972,"x_min":0,"x_max":0,"o":"m 379 1040 b 293 1131 325 1047 293 1081 b 392 1235 293 1188 335 1235 b 476 1193 424 1235 450 1221 l 646 1018 l 640 1004 m -8 24 l 10 29 b 119 196 56 43 68 54 l 399 963 l 564 963 l 849 197 b 947 31 894 72 906 43 l 971 24 l 971 0 l 425 0 l 425 24 l 464 33 b 517 96 503 43 517 63 b 488 225 517 122 503 181 l 463 306 l 217 306 l 189 224 b 161 100 174 178 161 136 b 232 33 161 67 176 50 l 265 24 l 265 0 l -8 0 m 232 353 l 449 353 l 347 681 l 343 681 "},"Á":{"ha":972,"x_min":0,"x_max":0,"o":"m 318 1018 l 488 1193 b 572 1235 514 1221 540 1235 b 671 1131 629 1235 671 1188 b 585 1040 671 1081 639 1047 l 324 1004 m -8 24 l 10 29 b 119 196 56 43 68 54 l 399 963 l 564 963 l 849 197 b 947 31 894 72 906 43 l 971 24 l 971 0 l 425 0 l 425 24 l 464 33 b 517 96 503 43 517 63 b 488 225 517 122 503 181 l 463 306 l 217 306 l 189 224 b 161 100 174 178 161 136 b 232 33 161 67 176 50 l 265 24 l 265 0 l -8 0 m 232 353 l 449 353 l 347 681 l 343 681 "},"Â":{"ha":972,"x_min":0,"x_max":0,"o":"m 249 1018 l 439 1224 l 525 1224 l 715 1018 l 707 1004 l 482 1065 l 257 1004 m -8 24 l 10 29 b 119 196 56 43 68 54 l 399 963 l 564 963 l 849 197 b 947 31 894 72 906 43 l 971 24 l 971 0 l 425 0 l 425 24 l 464 33 b 517 96 503 43 517 63 b 488 225 517 122 503 181 l 463 306 l 217 306 l 189 224 b 161 100 174 178 161 136 b 232 33 161 67 176 50 l 265 24 l 265 0 l -8 0 m 232 353 l 449 353 l 347 681 l 343 681 "},"Ã":{"ha":972,"x_min":0,"x_max":0,"o":"m 593 1031 b 350 1056 536 1031 411 1056 b 267 996 313 1056 293 1039 l 247 1007 b 396 1208 289 1133 325 1208 b 639 1182 454 1208 578 1182 b 722 1243 675 1182 696 1200 l 742 1232 b 593 1031 701 1106 671 1031 m -8 24 l 10 29 b 119 196 56 43 68 54 l 399 963 l 564 963 l 849 197 b 947 31 894 72 906 43 l 971 24 l 971 0 l 425 0 l 425 24 l 464 33 b 517 96 503 43 517 63 b 488 225 517 122 503 181 l 463 306 l 217 306 l 189 224 b 161 100 174 178 161 136 b 232 33 161 67 176 50 l 265 24 l 265 0 l -8 0 m 232 353 l 449 353 l 347 681 l 343 681 "},"Ä":{"ha":972,"x_min":0,"x_max":0,"o":"m 329 999 b 206 1118 263 999 206 1042 b 329 1236 206 1193 263 1236 b 454 1118 399 1236 454 1193 b 329 999 454 1042 399 999 m 636 999 b 513 1118 569 999 513 1042 b 636 1236 513 1193 569 1236 b 761 1118 706 1236 761 1193 b 636 999 761 1042 706 999 m -8 24 l 10 29 b 119 196 56 43 68 54 l 399 963 l 564 963 l 849 197 b 947 31 894 72 906 43 l 971 24 l 971 0 l 425 0 l 425 24 l 464 33 b 517 96 503 43 517 63 b 488 225 517 122 503 181 l 463 306 l 217 306 l 189 224 b 161 100 174 178 161 136 b 232 33 161 67 176 50 l 265 24 l 265 0 l -8 0 m 232 353 l 449 353 l 347 681 l 343 681 "},"Å":{"ha":972,"x_min":0,"x_max":0,"o":"m 347 1125 b 479 1251 347 1199 410 1251 b 611 1125 549 1251 611 1199 b 479 999 611 1051 549 999 b 347 1125 410 999 347 1051 m 400 1125 b 479 1038 400 1075 429 1038 b 558 1125 529 1038 558 1075 b 479 1213 558 1175 529 1213 b 400 1125 429 1213 400 1175 m -8 24 l 10 29 b 119 196 56 43 68 54 l 399 963 l 564 963 l 849 197 b 947 31 894 72 906 43 l 971 24 l 971 0 l 425 0 l 425 24 l 464 33 b 517 96 503 43 517 63 b 488 225 517 122 503 181 l 463 306 l 217 306 l 189 224 b 161 100 174 178 161 136 b 232 33 161 67 176 50 l 265 24 l 265 0 l -8 0 m 232 353 l 449 353 l 347 681 l 343 681 "},"Ā":{"ha":972,"x_min":0,"x_max":0,"o":"m 278 1144 l 678 1144 l 678 1049 l 278 1049 m -8 24 l 10 29 b 119 196 56 43 68 54 l 399 963 l 564 963 l 849 197 b 947 31 894 72 906 43 l 971 24 l 971 0 l 425 0 l 425 24 l 464 33 b 517 96 503 43 517 63 b 488 225 517 122 503 181 l 463 306 l 217 306 l 189 224 b 161 100 174 178 161 136 b 232 33 161 67 176 50 l 265 24 l 265 0 l -8 0 m 232 353 l 449 353 l 347 681 l 343 681 "},"Ă":{"ha":972,"x_min":0,"x_max":0,"o":"m 476 1007 b 275 1228 358 1007 297 1094 l 290 1233 b 478 1149 332 1174 376 1149 b 665 1233 574 1149 621 1174 l 681 1228 b 476 1007 663 1094 597 1007 m -8 24 l 10 29 b 119 196 56 43 68 54 l 399 963 l 564 963 l 849 197 b 947 31 894 72 906 43 l 971 24 l 971 0 l 425 0 l 425 24 l 464 33 b 517 96 503 43 517 63 b 488 225 517 122 503 181 l 463 306 l 217 306 l 189 224 b 161 100 174 178 161 136 b 232 33 161 67 176 50 l 265 24 l 265 0 l -8 0 m 232 353 l 449 353 l 347 681 l 343 681 "},"Ą":{"ha":972,"x_min":0,"x_max":0,"o":"m 781 0 b 546 -147 619 0 546 -42 b 613 -215 546 -192 575 -215 b 647 -211 626 -215 635 -214 l 647 -232 b 515 -285 625 -256 574 -285 b 374 -182 422 -285 374 -243 b 563 -19 374 -118 436 -58 l 463 306 l 217 306 l 189 224 b 161 100 174 178 161 136 b 232 33 161 67 176 50 l 265 24 l 265 0 l -8 0 l -8 24 l 10 29 b 119 196 56 43 68 54 l 399 963 l 564 963 l 849 197 b 947 31 894 72 906 43 l 971 24 l 971 0 l 781 0 m 232 353 l 447 353 l 347 681 l 343 681 "},"Ǻ":{"ha":972,"x_min":0,"x_max":0,"o":"m 311 1276 l 481 1451 b 565 1493 507 1479 533 1493 b 664 1389 622 1493 664 1446 b 578 1299 664 1339 632 1306 l 317 1263 m 350 1125 b 482 1251 350 1199 413 1251 b 614 1125 551 1251 614 1199 b 482 999 614 1051 551 999 b 350 1125 413 999 350 1051 m 403 1125 b 482 1038 403 1075 432 1038 b 561 1125 532 1038 561 1075 b 482 1213 561 1175 532 1213 b 403 1125 432 1213 403 1175 m -8 24 l 10 29 b 119 196 56 43 68 54 l 399 963 l 564 963 l 849 197 b 947 31 894 72 906 43 l 971 24 l 971 0 l 425 0 l 425 24 l 464 33 b 517 96 503 43 517 63 b 488 225 517 122 503 181 l 463 306 l 217 306 l 189 224 b 161 100 174 178 161 136 b 232 33 161 67 176 50 l 265 24 l 265 0 l -8 0 m 232 353 l 449 353 l 347 681 l 343 681 "},"Ạ":{"ha":972,"x_min":0,"x_max":0,"o":"m -8 24 l 10 29 b 119 196 56 43 68 54 l 399 963 l 564 963 l 849 197 b 947 31 894 72 906 43 l 971 24 l 971 0 l 425 0 l 425 24 l 464 33 b 517 96 503 43 517 63 b 488 225 517 122 503 181 l 463 306 l 217 306 l 189 224 b 161 100 174 178 161 136 b 232 33 161 67 176 50 l 265 24 l 265 0 l -8 0 m 232 353 l 449 353 l 347 681 l 343 681 m 232 -171 b 357 -57 232 -101 288 -57 b 482 -171 429 -57 482 -101 b 357 -285 482 -240 429 -285 b 232 -171 288 -285 232 -240 "},"Ả":{"ha":972,"x_min":0,"x_max":0,"o":"m 465 1004 b 436 1060 453 1015 436 1029 b 492 1138 436 1097 467 1122 b 536 1196 518 1154 536 1168 b 490 1233 536 1222 514 1233 b 451 1190 464 1233 458 1219 b 383 1128 440 1140 421 1128 b 322 1179 349 1128 322 1151 b 496 1272 322 1240 407 1272 b 678 1165 622 1272 678 1229 b 585 1069 678 1117 633 1090 b 481 1010 532 1047 481 1032 l 481 1004 m -8 24 l 10 29 b 119 196 56 43 68 54 l 399 963 l 564 963 l 849 197 b 947 31 894 72 906 43 l 971 24 l 971 0 l 425 0 l 425 24 l 464 33 b 517 96 503 43 517 63 b 488 225 517 122 503 181 l 463 306 l 217 306 l 189 224 b 161 100 174 178 161 136 b 232 33 161 67 176 50 l 265 24 l 265 0 l -8 0 m 232 353 l 449 353 l 347 681 l 343 681 "},"Ấ":{"ha":972,"x_min":0,"x_max":0,"o":"m 593 1181 l 672 1315 b 747 1368 692 1349 717 1368 b 829 1282 782 1368 829 1332 b 746 1200 829 1235 793 1208 l 597 1172 m 249 1018 l 439 1224 l 525 1224 l 715 1018 l 707 1004 l 482 1065 l 257 1004 m -8 24 l 10 29 b 119 196 56 43 68 54 l 399 963 l 564 963 l 849 197 b 947 31 894 72 906 43 l 971 24 l 971 0 l 425 0 l 425 24 l 464 33 b 517 96 503 43 517 63 b 488 225 517 122 503 181 l 463 306 l 217 306 l 189 224 b 161 100 174 178 161 136 b 232 33 161 67 176 50 l 265 24 l 265 0 l -8 0 m 232 353 l 449 353 l 347 681 l 343 681 "},"Ầ":{"ha":972,"x_min":0,"x_max":0,"o":"m 636 1200 b 553 1282 589 1208 553 1235 b 635 1368 553 1332 600 1368 b 710 1315 665 1368 690 1349 l 789 1181 l 785 1172 m 249 1018 l 439 1224 l 525 1224 l 715 1018 l 707 1004 l 482 1065 l 257 1004 m -8 24 l 10 29 b 119 196 56 43 68 54 l 399 963 l 564 963 l 849 197 b 947 31 894 72 906 43 l 971 24 l 971 0 l 425 0 l 425 24 l 464 33 b 517 96 503 43 517 63 b 488 225 517 122 503 181 l 463 306 l 217 306 l 189 224 b 161 100 174 178 161 136 b 232 33 161 67 176 50 l 265 24 l 265 0 l -8 0 m 232 353 l 449 353 l 347 681 l 343 681 "},"Ẩ":{"ha":972,"x_min":0,"x_max":0,"o":"m 629 1160 b 604 1210 618 1169 604 1182 b 654 1279 604 1243 631 1267 b 693 1332 678 1294 693 1307 b 653 1367 693 1356 674 1367 b 617 1328 629 1367 624 1354 b 556 1271 607 1282 590 1271 b 501 1317 525 1271 501 1292 b 657 1401 501 1372 578 1401 b 818 1304 771 1401 818 1363 b 735 1218 818 1261 779 1238 b 643 1165 688 1199 643 1185 l 643 1160 m 249 1018 l 439 1224 l 525 1224 l 715 1018 l 707 1004 l 482 1065 l 257 1004 m -8 24 l 10 29 b 119 196 56 43 68 54 l 399 963 l 564 963 l 849 197 b 947 31 894 72 906 43 l 971 24 l 971 0 l 425 0 l 425 24 l 464 33 b 517 96 503 43 517 63 b 488 225 517 122 503 181 l 463 306 l 217 306 l 189 224 b 161 100 174 178 161 136 b 232 33 161 67 176 50 l 265 24 l 265 0 l -8 0 m 232 353 l 449 353 l 347 681 l 343 681 "},"Ẫ":{"ha":972,"x_min":0,"x_max":0,"o":"m 258 1264 b 407 1451 296 1382 336 1451 b 625 1418 465 1451 564 1418 b 708 1465 661 1418 685 1431 l 728 1454 b 579 1267 689 1336 657 1267 b 361 1299 522 1267 422 1299 b 278 1253 324 1299 300 1288 m 249 1018 l 439 1224 l 525 1224 l 715 1018 l 707 1004 l 482 1065 l 257 1004 m -8 24 l 10 29 b 119 196 56 43 68 54 l 399 963 l 564 963 l 849 197 b 947 31 894 72 906 43 l 971 24 l 971 0 l 425 0 l 425 24 l 464 33 b 517 96 503 43 517 63 b 488 225 517 122 503 181 l 463 306 l 217 306 l 189 224 b 161 100 174 178 161 136 b 232 33 161 67 176 50 l 265 24 l 265 0 l -8 0 m 232 353 l 449 353 l 347 681 l 343 681 "},"Ậ":{"ha":972,"x_min":0,"x_max":0,"o":"m 249 1018 l 439 1224 l 525 1224 l 715 1018 l 707 1004 l 482 1065 l 257 1004 m -8 24 l 10 29 b 119 196 56 43 68 54 l 399 963 l 564 963 l 849 197 b 947 31 894 72 906 43 l 971 24 l 971 0 l 425 0 l 425 24 l 464 33 b 517 96 503 43 517 63 b 488 225 517 122 503 181 l 463 306 l 217 306 l 189 224 b 161 100 174 178 161 136 b 232 33 161 67 176 50 l 265 24 l 265 0 l -8 0 m 232 353 l 449 353 l 347 681 l 343 681 m 232 -171 b 357 -57 232 -101 288 -57 b 482 -171 429 -57 482 -101 b 357 -285 482 -240 429 -285 b 232 -171 288 -285 232 -240 "},"Ắ":{"ha":972,"x_min":0,"x_max":0,"o":"m 375 1225 l 454 1360 b 529 1413 474 1393 494 1413 b 611 1326 564 1413 611 1376 b 528 1244 611 1279 575 1253 l 379 1217 m 481 1007 b 279 1228 363 1007 301 1094 l 294 1233 b 482 1149 336 1174 381 1149 b 669 1233 578 1149 625 1174 l 685 1228 b 481 1007 667 1094 601 1007 m -8 24 l 10 29 b 119 196 56 43 68 54 l 399 963 l 564 963 l 849 197 b 947 31 894 72 906 43 l 971 24 l 971 0 l 425 0 l 425 24 l 464 33 b 517 96 503 43 517 63 b 488 225 517 122 503 181 l 463 306 l 217 306 l 189 224 b 161 100 174 178 161 136 b 232 33 161 67 176 50 l 265 24 l 265 0 l -8 0 m 232 353 l 449 353 l 347 681 l 343 681 "},"Ằ":{"ha":972,"x_min":0,"x_max":0,"o":"m 431 1244 b 347 1326 383 1253 347 1279 b 429 1413 347 1376 394 1413 b 504 1360 464 1413 485 1393 l 583 1225 l 579 1217 m 481 1007 b 279 1228 363 1007 301 1094 l 294 1233 b 482 1149 336 1174 381 1149 b 669 1233 578 1149 625 1174 l 685 1228 b 481 1007 667 1094 601 1007 m -8 24 l 10 29 b 119 196 56 43 68 54 l 399 963 l 564 963 l 849 197 b 947 31 894 72 906 43 l 971 24 l 971 0 l 425 0 l 425 24 l 464 33 b 517 96 503 43 517 63 b 488 225 517 122 503 181 l 463 306 l 217 306 l 189 224 b 161 100 174 178 161 136 b 232 33 161 67 176 50 l 265 24 l 265 0 l -8 0 m 232 353 l 449 353 l 347 681 l 343 681 "},"Ẳ":{"ha":972,"x_min":0,"x_max":0,"o":"m 458 1196 b 433 1246 447 1206 433 1218 b 483 1315 433 1279 460 1303 b 522 1368 507 1331 522 1343 b 482 1403 522 1392 503 1403 b 446 1364 458 1403 453 1390 b 385 1307 436 1318 419 1307 b 331 1353 354 1307 331 1328 b 486 1438 331 1408 407 1438 b 647 1340 600 1438 647 1399 b 564 1254 647 1297 608 1274 b 472 1201 517 1235 472 1221 l 472 1196 m 481 1007 b 279 1228 363 1007 301 1094 l 294 1233 b 482 1149 336 1174 381 1149 b 669 1233 578 1149 625 1174 l 685 1228 b 481 1007 667 1094 601 1007 m -8 24 l 10 29 b 119 196 56 43 68 54 l 399 963 l 564 963 l 849 197 b 947 31 894 72 906 43 l 971 24 l 971 0 l 425 0 l 425 24 l 464 33 b 517 96 503 43 517 63 b 488 225 517 122 503 181 l 463 306 l 217 306 l 189 224 b 161 100 174 178 161 136 b 232 33 161 67 176 50 l 265 24 l 265 0 l -8 0 m 232 353 l 449 353 l 347 681 l 343 681 "},"Ẵ":{"ha":972,"x_min":0,"x_max":0,"o":"m 276 1264 b 425 1451 314 1382 354 1451 b 615 1418 483 1451 554 1418 b 699 1465 651 1418 675 1431 l 718 1454 b 569 1267 679 1336 647 1267 b 379 1299 513 1267 440 1299 b 296 1253 342 1299 318 1288 m 481 1007 b 279 1228 363 1007 301 1094 l 294 1233 b 482 1149 336 1174 381 1149 b 669 1233 578 1149 625 1174 l 685 1228 b 481 1007 667 1094 601 1007 m -8 24 l 10 29 b 119 196 56 43 68 54 l 399 963 l 564 963 l 849 197 b 947 31 894 72 906 43 l 971 24 l 971 0 l 425 0 l 425 24 l 464 33 b 517 96 503 43 517 63 b 488 225 517 122 503 181 l 463 306 l 217 306 l 189 224 b 161 100 174 178 161 136 b 232 33 161 67 176 50 l 265 24 l 265 0 l -8 0 m 232 353 l 449 353 l 347 681 l 343 681 "},"Ặ":{"ha":972,"x_min":0,"x_max":0,"o":"m 481 1007 b 279 1228 363 1007 301 1094 l 294 1233 b 482 1149 336 1174 381 1149 b 669 1233 578 1149 625 1174 l 685 1228 b 481 1007 667 1094 601 1007 m -8 24 l 10 29 b 119 196 56 43 68 54 l 399 963 l 564 963 l 849 197 b 947 31 894 72 906 43 l 971 24 l 971 0 l 425 0 l 425 24 l 464 33 b 517 96 503 43 517 63 b 488 225 517 122 503 181 l 463 306 l 217 306 l 189 224 b 161 100 174 178 161 136 b 232 33 161 67 176 50 l 265 24 l 265 0 l -8 0 m 232 353 l 449 353 l 347 681 l 343 681 m 232 -169 b 357 -56 232 -100 288 -56 b 482 -169 429 -56 482 -100 b 357 -283 482 -239 429 -283 b 232 -169 288 -283 232 -239 "},"B":{"ha":942,"x_min":0,"x_max":0,"o":"m 7 24 l 44 33 b 106 146 96 47 106 50 l 106 817 b 44 929 106 913 96 915 l 7 939 l 7 963 l 493 963 b 886 733 775 963 886 890 b 632 521 886 613 797 544 l 632 517 b 929 271 819 490 929 429 b 528 0 929 94 804 0 l 7 0 m 463 528 b 585 726 561 528 585 565 b 479 914 585 881 551 914 b 418 908 451 914 429 911 l 418 528 m 494 49 b 606 281 574 49 606 106 b 467 485 606 442 565 485 l 418 485 l 418 129 b 494 49 418 65 447 49 "},"C":{"ha":878,"x_min":0,"x_max":0,"o":"m 522 -17 b 26 474 224 -17 26 157 b 556 979 26 824 268 979 b 815 947 667 979 758 964 l 838 622 l 811 622 b 669 865 763 719 718 801 b 542 939 635 911 603 939 b 358 501 415 939 358 794 b 538 24 358 128 418 24 b 693 104 601 24 646 40 b 822 346 729 151 779 254 l 847 346 l 831 38 b 522 -17 764 13 672 -17 "},"Ç":{"ha":878,"x_min":0,"x_max":0,"o":"m 310 -260 b 425 -179 385 -243 425 -211 b 374 -146 425 -157 408 -147 l 368 -139 l 431 -11 b 26 474 183 22 26 190 b 556 979 26 824 268 979 b 815 947 667 979 758 964 l 838 622 l 811 622 b 669 865 763 719 718 801 b 542 939 635 911 603 939 b 358 501 415 939 358 794 b 538 24 358 128 418 24 b 693 104 601 24 646 40 b 822 346 729 151 779 254 l 847 346 l 831 38 b 522 -17 764 13 672 -17 b 475 -15 506 -17 490 -17 l 444 -56 b 564 -144 526 -62 564 -99 b 310 -281 564 -228 428 -269 "},"Ć":{"ha":878,"x_min":0,"x_max":0,"o":"m 346 1018 l 515 1193 b 600 1235 542 1221 568 1235 b 699 1131 657 1235 699 1188 b 613 1040 699 1081 667 1047 l 351 1004 m 522 -17 b 26 474 224 -17 26 157 b 556 979 26 824 268 979 b 815 947 667 979 758 964 l 838 622 l 811 622 b 669 865 763 719 718 801 b 542 939 635 911 603 939 b 358 501 415 939 358 794 b 538 24 358 128 418 24 b 693 104 601 24 646 40 b 822 346 729 151 779 254 l 847 346 l 831 38 b 522 -17 764 13 672 -17 "},"Ĉ":{"ha":878,"x_min":0,"x_max":0,"o":"m 272 1018 l 463 1224 l 549 1224 l 739 1018 l 731 1004 l 506 1065 l 281 1004 m 522 -17 b 26 474 224 -17 26 157 b 556 979 26 824 268 979 b 815 947 667 979 758 964 l 838 622 l 811 622 b 669 865 763 719 718 801 b 542 939 635 911 603 939 b 358 501 415 939 358 794 b 538 24 358 128 418 24 b 693 104 601 24 646 40 b 822 346 729 151 779 254 l 847 346 l 831 38 b 522 -17 764 13 672 -17 "},"Ċ":{"ha":878,"x_min":0,"x_max":0,"o":"m 519 1004 b 385 1128 444 1004 385 1051 b 519 1251 385 1203 444 1251 b 654 1128 596 1251 654 1203 b 519 1004 654 1051 596 1004 m 522 -17 b 26 474 224 -17 26 157 b 556 979 26 824 268 979 b 815 947 667 979 758 964 l 838 622 l 811 622 b 669 865 763 719 718 801 b 542 939 635 911 603 939 b 358 501 415 939 358 794 b 538 24 358 128 418 24 b 693 104 601 24 646 40 b 822 346 729 151 779 254 l 847 346 l 831 38 b 522 -17 764 13 672 -17 "},"Č":{"ha":878,"x_min":0,"x_max":0,"o":"m 525 1174 l 750 1235 l 758 1221 l 568 1015 l 482 1015 l 292 1221 l 300 1235 m 522 -17 b 26 474 224 -17 26 157 b 556 979 26 824 268 979 b 815 947 667 979 758 964 l 838 622 l 811 622 b 669 865 763 719 718 801 b 542 939 635 911 603 939 b 358 501 415 939 358 794 b 538 24 358 128 418 24 b 693 104 601 24 646 40 b 822 346 729 151 779 254 l 847 346 l 831 38 b 522 -17 764 13 672 -17 "},"D":{"ha":1036,"x_min":0,"x_max":0,"o":"m 7 24 l 44 33 b 106 146 96 47 106 50 l 106 817 b 44 929 106 913 96 915 l 7 939 l 7 963 l 518 963 b 1010 503 826 963 1010 814 b 513 0 1010 193 824 0 l 7 0 m 494 46 b 679 467 613 46 679 176 b 492 915 679 828 610 915 b 422 907 461 915 442 913 l 422 132 b 494 46 422 58 443 46 "},"Ď":{"ha":1036,"x_min":0,"x_max":0,"o":"m 515 1174 l 740 1235 l 749 1221 l 558 1015 l 472 1015 l 282 1221 l 290 1235 m 7 24 l 44 33 b 106 146 96 47 106 50 l 106 817 b 44 929 106 913 96 915 l 7 939 l 7 963 l 518 963 b 1010 503 826 963 1010 814 b 513 0 1010 193 824 0 l 7 0 m 494 46 b 679 467 613 46 679 176 b 492 915 679 828 610 915 b 422 907 461 915 442 913 l 422 132 b 494 46 422 58 443 46 "},"E":{"ha":854,"x_min":0,"x_max":0,"o":"m 628 300 b 582 433 618 343 603 392 b 458 476 565 465 550 476 l 422 476 l 422 140 b 529 47 422 65 431 47 b 700 140 635 47 654 67 b 810 369 740 207 769 267 l 838 369 l 818 0 l 7 0 l 7 24 l 44 33 b 106 146 96 47 106 50 l 106 817 b 44 929 106 913 96 915 l 7 939 l 7 963 l 790 963 l 803 647 l 776 647 b 683 832 740 732 714 783 b 525 915 642 899 606 915 b 422 907 469 915 438 911 l 422 521 l 460 521 b 582 563 553 521 567 533 b 628 690 601 600 617 644 l 653 690 l 653 300 "},"È":{"ha":854,"x_min":0,"x_max":0,"o":"m 325 1040 b 239 1131 271 1047 239 1081 b 338 1235 239 1188 281 1235 b 422 1193 369 1235 396 1221 l 592 1018 l 586 1004 m 628 300 b 582 433 618 343 603 392 b 458 476 565 465 550 476 l 422 476 l 422 140 b 529 47 422 65 431 47 b 700 140 635 47 654 67 b 810 369 740 207 769 267 l 838 369 l 818 0 l 7 0 l 7 24 l 44 33 b 106 146 96 47 106 50 l 106 817 b 44 929 106 913 96 915 l 7 939 l 7 963 l 790 963 l 803 647 l 776 647 b 683 832 740 732 714 783 b 525 915 642 899 606 915 b 422 907 469 915 438 911 l 422 521 l 460 521 b 582 563 553 521 567 533 b 628 690 601 600 617 644 l 653 690 l 653 300 "},"É":{"ha":854,"x_min":0,"x_max":0,"o":"m 304 1018 l 474 1193 b 558 1235 500 1221 526 1235 b 657 1131 615 1235 657 1188 b 571 1040 657 1081 625 1047 l 310 1004 m 628 300 b 582 433 618 343 603 392 b 458 476 565 465 550 476 l 422 476 l 422 140 b 529 47 422 65 431 47 b 700 140 635 47 654 67 b 810 369 740 207 769 267 l 838 369 l 818 0 l 7 0 l 7 24 l 44 33 b 106 146 96 47 106 50 l 106 817 b 44 929 106 913 96 915 l 7 939 l 7 963 l 790 963 l 803 647 l 776 647 b 683 832 740 732 714 783 b 525 915 642 899 606 915 b 422 907 469 915 438 911 l 422 521 l 460 521 b 582 563 553 521 567 533 b 628 690 601 600 617 644 l 653 690 l 653 300 "},"Ê":{"ha":854,"x_min":0,"x_max":0,"o":"m 219 1018 l 410 1224 l 496 1224 l 686 1018 l 678 1004 l 453 1065 l 228 1004 m 628 300 b 582 433 618 343 603 392 b 458 476 565 465 550 476 l 422 476 l 422 140 b 529 47 422 65 431 47 b 700 140 635 47 654 67 b 810 369 740 207 769 267 l 838 369 l 818 0 l 7 0 l 7 24 l 44 33 b 106 146 96 47 106 50 l 106 817 b 44 929 106 913 96 915 l 7 939 l 7 963 l 790 963 l 803 647 l 776 647 b 683 832 740 732 714 783 b 525 915 642 899 606 915 b 422 907 469 915 438 911 l 422 521 l 460 521 b 582 563 553 521 567 533 b 628 690 601 600 617 644 l 653 690 l 653 300 "},"Ë":{"ha":854,"x_min":0,"x_max":0,"o":"m 293 999 b 169 1118 226 999 169 1042 b 293 1236 169 1193 226 1236 b 418 1118 363 1236 418 1193 b 293 999 418 1042 363 999 m 600 999 b 476 1118 533 999 476 1042 b 600 1236 476 1193 533 1236 b 725 1118 669 1236 725 1193 b 600 999 725 1042 669 999 m 628 300 b 582 433 618 343 603 392 b 458 476 565 465 550 476 l 422 476 l 422 140 b 529 47 422 65 431 47 b 700 140 635 47 654 67 b 810 369 740 207 769 267 l 838 369 l 818 0 l 7 0 l 7 24 l 44 33 b 106 146 96 47 106 50 l 106 817 b 44 929 106 913 96 915 l 7 939 l 7 963 l 790 963 l 803 647 l 776 647 b 683 832 740 732 714 783 b 525 915 642 899 606 915 b 422 907 469 915 438 911 l 422 521 l 460 521 b 582 563 553 521 567 533 b 628 690 601 600 617 644 l 653 690 l 653 300 "},"Ē":{"ha":854,"x_min":0,"x_max":0,"o":"m 257 1144 l 657 1144 l 657 1049 l 257 1049 m 628 300 b 582 433 618 343 603 392 b 458 476 565 465 550 476 l 422 476 l 422 140 b 529 47 422 65 431 47 b 700 140 635 47 654 67 b 810 369 740 207 769 267 l 838 369 l 818 0 l 7 0 l 7 24 l 44 33 b 106 146 96 47 106 50 l 106 817 b 44 929 106 913 96 915 l 7 939 l 7 963 l 790 963 l 803 647 l 776 647 b 683 832 740 732 714 783 b 525 915 642 899 606 915 b 422 907 469 915 438 911 l 422 521 l 460 521 b 582 563 553 521 567 533 b 628 690 601 600 617 644 l 653 690 l 653 300 "},"Ĕ":{"ha":854,"x_min":0,"x_max":0,"o":"m 460 1007 b 258 1228 342 1007 281 1094 l 274 1233 b 461 1149 315 1174 360 1149 b 649 1233 557 1149 604 1174 l 664 1228 b 460 1007 646 1094 581 1007 m 628 300 b 582 433 618 343 603 392 b 458 476 565 465 550 476 l 422 476 l 422 140 b 529 47 422 65 431 47 b 700 140 635 47 654 67 b 810 369 740 207 769 267 l 838 369 l 818 0 l 7 0 l 7 24 l 44 33 b 106 146 96 47 106 50 l 106 817 b 44 929 106 913 96 915 l 7 939 l 7 963 l 790 963 l 803 647 l 776 647 b 683 832 740 732 714 783 b 525 915 642 899 606 915 b 422 907 469 915 438 911 l 422 521 l 460 521 b 582 563 553 521 567 533 b 628 690 601 600 617 644 l 653 690 l 653 300 "},"Ė":{"ha":854,"x_min":0,"x_max":0,"o":"m 442 1004 b 307 1128 367 1004 307 1051 b 442 1251 307 1203 367 1251 b 576 1128 518 1251 576 1203 b 442 1004 576 1051 518 1004 m 628 300 b 582 433 618 343 603 392 b 458 476 565 465 550 476 l 422 476 l 422 140 b 529 47 422 65 431 47 b 700 140 635 47 654 67 b 810 369 740 207 769 267 l 838 369 l 818 0 l 7 0 l 7 24 l 44 33 b 106 146 96 47 106 50 l 106 817 b 44 929 106 913 96 915 l 7 939 l 7 963 l 790 963 l 803 647 l 776 647 b 683 832 740 732 714 783 b 525 915 642 899 606 915 b 422 907 469 915 438 911 l 422 521 l 460 521 b 582 563 553 521 567 533 b 628 690 601 600 617 644 l 653 690 l 653 300 "},"Ę":{"ha":854,"x_min":0,"x_max":0,"o":"m 7 24 l 44 33 b 106 146 96 47 106 50 l 106 817 b 44 929 106 913 96 915 l 7 939 l 7 963 l 790 963 l 803 647 l 776 647 b 683 832 740 732 714 783 b 525 915 642 899 606 915 b 422 907 469 915 438 911 l 422 521 l 460 521 b 582 563 553 521 567 533 b 628 690 601 600 617 644 l 653 690 l 653 300 l 628 300 b 582 433 618 343 603 392 b 458 476 565 465 550 476 l 422 476 l 422 140 b 529 47 422 65 431 47 b 700 140 635 47 654 67 b 810 369 740 207 769 267 l 838 369 l 818 0 l 692 0 b 635 -156 664 -33 635 -92 b 690 -215 635 -196 657 -215 b 731 -211 704 -215 718 -214 l 731 -232 b 604 -285 706 -258 671 -285 b 457 -176 507 -285 457 -242 b 664 0 457 -93 549 -37 l 7 0 "},"Ě":{"ha":854,"x_min":0,"x_max":0,"o":"m 463 1174 l 688 1235 l 696 1221 l 506 1015 l 419 1015 l 229 1221 l 238 1235 m 628 300 b 582 433 618 343 603 392 b 458 476 565 465 550 476 l 422 476 l 422 140 b 529 47 422 65 431 47 b 700 140 635 47 654 67 b 810 369 740 207 769 267 l 838 369 l 818 0 l 7 0 l 7 24 l 44 33 b 106 146 96 47 106 50 l 106 817 b 44 929 106 913 96 915 l 7 939 l 7 963 l 790 963 l 803 647 l 776 647 b 683 832 740 732 714 783 b 525 915 642 899 606 915 b 422 907 469 915 438 911 l 422 521 l 460 521 b 582 563 553 521 567 533 b 628 690 601 600 617 644 l 653 690 l 653 300 "},"Ẹ":{"ha":854,"x_min":0,"x_max":0,"o":"m 628 300 b 582 433 618 343 603 392 b 458 476 565 465 550 476 l 422 476 l 422 140 b 529 47 422 65 431 47 b 700 140 635 47 654 67 b 810 369 740 207 769 267 l 838 369 l 818 0 l 7 0 l 7 24 l 44 33 b 106 146 96 47 106 50 l 106 817 b 44 929 106 913 96 915 l 7 939 l 7 963 l 790 963 l 803 647 l 776 647 b 683 832 740 732 714 783 b 525 915 642 899 606 915 b 422 907 469 915 438 911 l 422 521 l 460 521 b 582 563 553 521 567 533 b 628 690 601 600 617 644 l 653 690 l 653 300 m 322 -171 b 447 -57 322 -101 378 -57 b 572 -171 519 -57 572 -101 b 447 -285 572 -240 519 -285 b 322 -171 378 -285 322 -240 "},"Ẻ":{"ha":854,"x_min":0,"x_max":0,"o":"m 431 1004 b 401 1060 418 1015 401 1029 b 457 1138 401 1097 432 1122 b 501 1196 483 1154 501 1168 b 456 1233 501 1222 479 1233 b 417 1190 429 1233 424 1219 b 349 1128 406 1140 386 1128 b 288 1179 314 1128 288 1151 b 461 1272 288 1240 372 1272 b 643 1165 588 1272 643 1229 b 550 1069 643 1117 599 1090 b 446 1010 497 1047 446 1032 l 446 1004 m 628 300 b 582 433 618 343 603 392 b 458 476 565 465 550 476 l 422 476 l 422 140 b 529 47 422 65 431 47 b 700 140 635 47 654 67 b 810 369 740 207 769 267 l 838 369 l 818 0 l 7 0 l 7 24 l 44 33 b 106 146 96 47 106 50 l 106 817 b 44 929 106 913 96 915 l 7 939 l 7 963 l 790 963 l 803 647 l 776 647 b 683 832 740 732 714 783 b 525 915 642 899 606 915 b 422 907 469 915 438 911 l 422 521 l 460 521 b 582 563 553 521 567 533 b 628 690 601 600 617 644 l 653 690 l 653 300 "},"Ẽ":{"ha":854,"x_min":0,"x_max":0,"o":"m 546 1031 b 303 1056 489 1031 364 1056 b 219 996 265 1056 246 1039 l 200 1007 b 349 1208 242 1133 278 1208 b 592 1182 407 1208 531 1182 b 675 1243 628 1182 649 1200 l 694 1232 b 546 1031 654 1106 624 1031 m 628 300 b 582 433 618 343 603 392 b 458 476 565 465 550 476 l 422 476 l 422 140 b 529 47 422 65 431 47 b 700 140 635 47 654 67 b 810 369 740 207 769 267 l 838 369 l 818 0 l 7 0 l 7 24 l 44 33 b 106 146 96 47 106 50 l 106 817 b 44 929 106 913 96 915 l 7 939 l 7 963 l 790 963 l 803 647 l 776 647 b 683 832 740 732 714 783 b 525 915 642 899 606 915 b 422 907 469 915 438 911 l 422 521 l 460 521 b 582 563 553 521 567 533 b 628 690 601 600 617 644 l 653 690 l 653 300 "},"Ế":{"ha":854,"x_min":0,"x_max":0,"o":"m 558 1181 l 638 1315 b 713 1368 657 1349 682 1368 b 794 1282 747 1368 794 1332 b 711 1200 794 1235 758 1208 l 563 1172 m 214 1018 l 404 1224 l 490 1224 l 681 1018 l 672 1004 l 447 1065 l 222 1004 m 628 300 b 582 433 618 343 603 392 b 458 476 565 465 550 476 l 422 476 l 422 140 b 529 47 422 65 431 47 b 700 140 635 47 654 67 b 810 369 740 207 769 267 l 838 369 l 818 0 l 7 0 l 7 24 l 44 33 b 106 146 96 47 106 50 l 106 817 b 44 929 106 913 96 915 l 7 939 l 7 963 l 790 963 l 803 647 l 776 647 b 683 832 740 732 714 783 b 525 915 642 899 606 915 b 422 907 469 915 438 911 l 422 521 l 460 521 b 582 563 553 521 567 533 b 628 690 601 600 617 644 l 653 690 l 653 300 "},"Ề":{"ha":854,"x_min":0,"x_max":0,"o":"m 601 1200 b 518 1282 554 1208 518 1235 b 600 1368 518 1332 565 1368 b 675 1315 631 1368 656 1349 l 754 1181 l 750 1172 m 214 1018 l 404 1224 l 490 1224 l 681 1018 l 672 1004 l 447 1065 l 222 1004 m 628 300 b 582 433 618 343 603 392 b 458 476 565 465 550 476 l 422 476 l 422 140 b 529 47 422 65 431 47 b 700 140 635 47 654 67 b 810 369 740 207 769 267 l 838 369 l 818 0 l 7 0 l 7 24 l 44 33 b 106 146 96 47 106 50 l 106 817 b 44 929 106 913 96 915 l 7 939 l 7 963 l 790 963 l 803 647 l 776 647 b 683 832 740 732 714 783 b 525 915 642 899 606 915 b 422 907 469 915 438 911 l 422 521 l 460 521 b 582 563 553 521 567 533 b 628 690 601 600 617 644 l 653 690 l 653 300 "},"Ể":{"ha":854,"x_min":0,"x_max":0,"o":"m 594 1160 b 569 1210 583 1169 569 1182 b 619 1279 569 1243 596 1267 b 658 1332 643 1294 658 1307 b 618 1367 658 1356 639 1367 b 582 1328 594 1367 589 1354 b 521 1271 572 1282 556 1271 b 467 1317 490 1271 467 1292 b 622 1401 467 1372 543 1401 b 783 1304 736 1401 783 1363 b 700 1218 783 1261 744 1238 b 608 1165 653 1199 608 1185 l 608 1160 m 214 1018 l 404 1224 l 490 1224 l 681 1018 l 672 1004 l 447 1065 l 222 1004 m 628 300 b 582 433 618 343 603 392 b 458 476 565 465 550 476 l 422 476 l 422 140 b 529 47 422 65 431 47 b 700 140 635 47 654 67 b 810 369 740 207 769 267 l 838 369 l 818 0 l 7 0 l 7 24 l 44 33 b 106 146 96 47 106 50 l 106 817 b 44 929 106 913 96 915 l 7 939 l 7 963 l 790 963 l 803 647 l 776 647 b 683 832 740 732 714 783 b 525 915 642 899 606 915 b 422 907 469 915 438 911 l 422 521 l 460 521 b 582 563 553 521 567 533 b 628 690 601 600 617 644 l 653 690 l 653 300 "},"Ễ":{"ha":854,"x_min":0,"x_max":0,"o":"m 224 1264 b 372 1451 261 1382 301 1451 b 590 1418 431 1451 529 1418 b 674 1465 626 1418 650 1431 l 693 1454 b 544 1267 654 1336 622 1267 b 326 1299 488 1267 388 1299 b 243 1253 289 1299 265 1288 m 214 1018 l 404 1224 l 490 1224 l 681 1018 l 672 1004 l 447 1065 l 222 1004 m 628 300 b 582 433 618 343 603 392 b 458 476 565 465 550 476 l 422 476 l 422 140 b 529 47 422 65 431 47 b 700 140 635 47 654 67 b 810 369 740 207 769 267 l 838 369 l 818 0 l 7 0 l 7 24 l 44 33 b 106 146 96 47 106 50 l 106 817 b 44 929 106 913 96 915 l 7 939 l 7 963 l 790 963 l 803 647 l 776 647 b 683 832 740 732 714 783 b 525 915 642 899 606 915 b 422 907 469 915 438 911 l 422 521 l 460 521 b 582 563 553 521 567 533 b 628 690 601 600 617 644 l 653 690 l 653 300 "},"Ệ":{"ha":854,"x_min":0,"x_max":0,"o":"m 214 1018 l 404 1224 l 490 1224 l 681 1018 l 672 1004 l 447 1065 l 222 1004 m 628 300 b 582 433 618 343 603 392 b 458 476 565 465 550 476 l 422 476 l 422 140 b 529 47 422 65 431 47 b 700 140 635 47 654 67 b 810 369 740 207 769 267 l 838 369 l 818 0 l 7 0 l 7 24 l 44 33 b 106 146 96 47 106 50 l 106 817 b 44 929 106 913 96 915 l 7 939 l 7 963 l 790 963 l 803 647 l 776 647 b 683 832 740 732 714 783 b 525 915 642 899 606 915 b 422 907 469 915 438 911 l 422 521 l 460 521 b 582 563 553 521 567 533 b 628 690 601 600 617 644 l 653 690 l 653 300 m 322 -171 b 447 -57 322 -101 378 -57 b 572 -171 519 -57 572 -101 b 447 -285 572 -240 519 -285 b 322 -171 378 -285 322 -240 "},"F":{"ha":815,"x_min":0,"x_max":0,"o":"m 422 146 b 486 35 422 50 428 47 l 538 24 l 538 0 l 7 0 l 7 24 l 44 33 b 106 146 96 47 106 50 l 106 817 b 44 929 106 913 96 915 l 7 939 l 7 963 l 785 963 l 799 639 l 772 639 b 686 817 738 715 714 769 b 529 915 643 888 619 915 b 422 907 475 915 447 913 l 422 507 l 458 507 b 585 551 551 507 564 519 b 631 681 606 586 617 626 l 654 681 l 654 282 l 631 282 b 585 413 617 333 606 378 b 457 463 558 453 549 463 l 422 463 "},"G":{"ha":963,"x_min":0,"x_max":0,"o":"m 544 -17 b 26 479 193 -17 26 167 b 585 979 26 835 286 979 b 850 944 700 979 794 963 l 865 624 l 839 624 b 722 838 794 718 764 778 b 558 939 664 924 621 939 b 356 497 413 939 356 790 b 528 24 356 150 389 24 b 603 49 564 24 585 32 l 603 274 b 540 386 603 369 594 372 l 503 396 l 503 419 l 967 419 l 967 396 l 938 388 b 899 274 901 378 899 369 l 899 42 b 544 -17 821 10 671 -17 "},"Ĝ":{"ha":963,"x_min":0,"x_max":0,"o":"m 301 1018 l 492 1224 l 578 1224 l 768 1018 l 760 1004 l 535 1065 l 310 1004 m 544 -17 b 26 479 193 -17 26 167 b 585 979 26 835 286 979 b 850 944 700 979 794 963 l 865 624 l 839 624 b 722 838 794 718 764 778 b 558 939 664 924 621 939 b 356 497 413 939 356 790 b 528 24 356 150 389 24 b 603 49 564 24 585 32 l 603 274 b 540 386 603 369 594 372 l 503 396 l 503 419 l 967 419 l 967 396 l 938 388 b 899 274 901 378 899 369 l 899 42 b 544 -17 821 10 671 -17 "},"Ğ":{"ha":963,"x_min":0,"x_max":0,"o":"m 532 1007 b 331 1228 414 1007 353 1094 l 346 1233 b 533 1149 388 1174 432 1149 b 721 1233 629 1149 676 1174 l 736 1228 b 532 1007 718 1094 653 1007 m 544 -17 b 26 479 193 -17 26 167 b 585 979 26 835 286 979 b 850 944 700 979 794 963 l 865 624 l 839 624 b 722 838 794 718 764 778 b 558 939 664 924 621 939 b 356 497 413 939 356 790 b 528 24 356 150 389 24 b 603 49 564 24 585 32 l 603 274 b 540 386 603 369 594 372 l 503 396 l 503 419 l 967 419 l 967 396 l 938 388 b 899 274 901 378 899 369 l 899 42 b 544 -17 821 10 671 -17 "},"Ġ":{"ha":963,"x_min":0,"x_max":0,"o":"m 531 1004 b 396 1128 456 1004 396 1051 b 531 1251 396 1203 456 1251 b 665 1128 607 1251 665 1203 b 531 1004 665 1051 607 1004 m 544 -17 b 26 479 193 -17 26 167 b 585 979 26 835 286 979 b 850 944 700 979 794 963 l 865 624 l 839 624 b 722 838 794 718 764 778 b 558 939 664 924 621 939 b 356 497 413 939 356 790 b 528 24 356 150 389 24 b 603 49 564 24 585 32 l 603 274 b 540 386 603 369 594 372 l 503 396 l 503 419 l 967 419 l 967 396 l 938 388 b 899 274 901 378 899 369 l 899 42 b 544 -17 821 10 671 -17 "},"Ģ":{"ha":963,"x_min":0,"x_max":0,"o":"m 544 -17 b 26 479 193 -17 26 167 b 585 979 26 835 286 979 b 850 944 700 979 794 963 l 865 624 l 839 624 b 722 838 794 718 764 778 b 558 939 664 924 621 939 b 356 497 413 939 356 790 b 528 24 356 150 389 24 b 603 49 564 24 585 32 l 603 274 b 540 386 603 369 594 372 l 503 396 l 503 419 l 967 419 l 967 396 l 938 388 b 899 274 901 378 899 369 l 899 42 b 544 -17 821 10 671 -17 m 375 -336 b 531 -204 479 -310 522 -264 b 474 -225 517 -218 494 -225 b 389 -143 424 -225 389 -192 b 501 -53 389 -96 433 -53 b 626 -171 571 -53 626 -103 b 378 -351 626 -276 535 -342 "},"H":{"ha":1090,"x_min":0,"x_max":0,"o":"m 7 24 l 44 33 b 106 146 96 47 106 50 l 106 817 b 44 929 106 913 96 915 l 7 939 l 7 963 l 517 963 l 517 939 l 483 929 b 422 817 429 914 422 911 l 422 518 l 668 518 l 668 817 b 607 929 668 911 661 914 l 574 939 l 574 963 l 1083 963 l 1083 939 l 1046 929 b 985 817 994 915 985 913 l 985 146 b 1046 33 985 50 994 47 l 1083 24 l 1083 0 l 574 0 l 574 24 l 607 33 b 668 146 660 49 668 51 l 668 468 l 422 468 l 422 146 b 483 33 422 51 431 49 l 517 24 l 517 0 l 7 0 "},"Ĥ":{"ha":1090,"x_min":0,"x_max":0,"o":"m 313 1018 l 503 1224 l 589 1224 l 779 1018 l 771 1004 l 546 1065 l 321 1004 m 7 24 l 44 33 b 106 146 96 47 106 50 l 106 817 b 44 929 106 913 96 915 l 7 939 l 7 963 l 517 963 l 517 939 l 483 929 b 422 817 429 914 422 911 l 422 518 l 668 518 l 668 817 b 607 929 668 911 661 914 l 574 939 l 574 963 l 1083 963 l 1083 939 l 1046 929 b 985 817 994 915 985 913 l 985 146 b 1046 33 985 50 994 47 l 1083 24 l 1083 0 l 574 0 l 574 24 l 607 33 b 668 146 660 49 668 51 l 668 468 l 422 468 l 422 146 b 483 33 422 51 431 49 l 517 24 l 517 0 l 7 0 "},"Ȟ":{"ha":1090,"x_min":0,"x_max":0,"o":"m 546 1174 l 771 1235 l 779 1221 l 589 1015 l 503 1015 l 313 1221 l 321 1235 m 7 24 l 44 33 b 106 146 96 47 106 50 l 106 817 b 44 929 106 913 96 915 l 7 939 l 7 963 l 517 963 l 517 939 l 483 929 b 422 817 429 914 422 911 l 422 518 l 668 518 l 668 817 b 607 929 668 911 661 914 l 574 939 l 574 963 l 1083 963 l 1083 939 l 1046 929 b 985 817 994 915 985 913 l 985 146 b 1046 33 985 50 994 47 l 1083 24 l 1083 0 l 574 0 l 574 24 l 607 33 b 668 146 660 49 668 51 l 668 468 l 422 468 l 422 146 b 483 33 422 51 431 49 l 517 24 l 517 0 l 7 0 "},"Ḣ":{"ha":1090,"x_min":0,"x_max":0,"o":"m 546 1004 b 411 1128 471 1004 411 1051 b 546 1251 411 1203 471 1251 b 681 1128 622 1251 681 1203 b 546 1004 681 1051 622 1004 m 7 24 l 44 33 b 106 146 96 47 106 50 l 106 817 b 44 929 106 913 96 915 l 7 939 l 7 963 l 517 963 l 517 939 l 483 929 b 422 817 429 914 422 911 l 422 518 l 668 518 l 668 817 b 607 929 668 911 661 914 l 574 939 l 574 963 l 1083 963 l 1083 939 l 1046 929 b 985 817 994 915 985 913 l 985 146 b 1046 33 985 50 994 47 l 1083 24 l 1083 0 l 574 0 l 574 24 l 607 33 b 668 146 660 49 668 51 l 668 468 l 422 468 l 422 146 b 483 33 422 51 431 49 l 517 24 l 517 0 l 7 0 "},"I":{"ha":536,"x_min":0,"x_max":0,"o":"m 7 24 l 49 33 b 110 146 101 46 110 50 l 110 817 b 49 929 110 913 101 917 l 7 939 l 7 963 l 529 963 l 529 939 l 488 929 b 426 817 435 917 426 913 l 426 146 b 488 33 426 50 435 46 l 529 24 l 529 0 l 7 0 "},"Ì":{"ha":536,"x_min":0,"x_max":0,"o":"m 164 1040 b 78 1131 110 1047 78 1081 b 176 1235 78 1188 119 1235 b 261 1193 208 1235 235 1221 l 431 1018 l 425 1004 m 7 24 l 49 33 b 110 146 101 46 110 50 l 110 817 b 49 929 110 913 101 917 l 7 939 l 7 963 l 529 963 l 529 939 l 488 929 b 426 817 435 917 426 913 l 426 146 b 488 33 426 50 435 46 l 529 24 l 529 0 l 7 0 "},"Í":{"ha":536,"x_min":0,"x_max":0,"o":"m 117 1018 l 286 1193 b 371 1235 313 1221 339 1235 b 469 1131 428 1235 469 1188 b 383 1040 469 1081 438 1047 l 122 1004 m 7 24 l 49 33 b 110 146 101 46 110 50 l 110 817 b 49 929 110 913 101 917 l 7 939 l 7 963 l 529 963 l 529 939 l 488 929 b 426 817 435 917 426 913 l 426 146 b 488 33 426 50 435 46 l 529 24 l 529 0 l 7 0 "},"Î":{"ha":536,"x_min":0,"x_max":0,"o":"m 39 1018 l 229 1224 l 315 1224 l 506 1018 l 497 1004 l 272 1065 l 47 1004 m 7 24 l 49 33 b 110 146 101 46 110 50 l 110 817 b 49 929 110 913 101 917 l 7 939 l 7 963 l 529 963 l 529 939 l 488 929 b 426 817 435 917 426 913 l 426 146 b 488 33 426 50 435 46 l 529 24 l 529 0 l 7 0 "},"Ï":{"ha":536,"x_min":0,"x_max":0,"o":"m 115 999 b -8 1118 49 999 -8 1042 b 115 1236 -8 1193 49 1236 b 240 1118 185 1236 240 1193 b 115 999 240 1042 185 999 m 422 999 b 299 1118 356 999 299 1042 b 422 1236 299 1193 356 1236 b 547 1118 492 1236 547 1193 b 422 999 547 1042 492 999 m 7 24 l 49 33 b 110 146 101 46 110 50 l 110 817 b 49 929 110 913 101 917 l 7 939 l 7 963 l 529 963 l 529 939 l 488 929 b 426 817 435 917 426 913 l 426 146 b 488 33 426 50 435 46 l 529 24 l 529 0 l 7 0 "},"Ĩ":{"ha":536,"x_min":0,"x_max":0,"o":"m 369 1031 b 126 1056 313 1031 188 1056 b 43 996 89 1056 69 1039 l 24 1007 b 172 1208 65 1133 101 1208 b 415 1182 231 1208 354 1182 b 499 1243 451 1182 472 1200 l 518 1232 b 369 1031 478 1106 447 1031 m 7 24 l 49 33 b 110 146 101 46 110 50 l 110 817 b 49 929 110 913 101 917 l 7 939 l 7 963 l 529 963 l 529 939 l 488 929 b 426 817 435 917 426 913 l 426 146 b 488 33 426 50 435 46 l 529 24 l 529 0 l 7 0 "},"Ī":{"ha":536,"x_min":0,"x_max":0,"o":"m 69 1144 l 469 1144 l 469 1049 l 69 1049 m 7 24 l 49 33 b 110 146 101 46 110 50 l 110 817 b 49 929 110 913 101 917 l 7 939 l 7 963 l 529 963 l 529 939 l 488 929 b 426 817 435 917 426 913 l 426 146 b 488 33 426 50 435 46 l 529 24 l 529 0 l 7 0 "},"Ĭ":{"ha":536,"x_min":0,"x_max":0,"o":"m 267 1007 b 65 1228 149 1007 88 1094 l 81 1233 b 268 1149 122 1174 167 1149 b 456 1233 364 1149 411 1174 l 471 1228 b 267 1007 453 1094 388 1007 m 7 24 l 49 33 b 110 146 101 46 110 50 l 110 817 b 49 929 110 913 101 917 l 7 939 l 7 963 l 529 963 l 529 939 l 488 929 b 426 817 435 917 426 913 l 426 146 b 488 33 426 50 435 46 l 529 24 l 529 0 l 7 0 "},"Į":{"ha":536,"x_min":0,"x_max":0,"o":"m 399 0 b 342 -156 371 -33 342 -92 b 397 -215 342 -196 364 -215 b 438 -211 411 -215 425 -214 l 438 -232 b 311 -285 413 -258 378 -285 b 164 -176 214 -285 164 -242 b 371 0 164 -93 256 -37 l 7 0 l 7 24 l 49 33 b 110 146 101 46 110 50 l 110 817 b 49 929 110 913 101 917 l 7 939 l 7 963 l 529 963 l 529 939 l 488 929 b 426 817 435 917 426 913 l 426 146 b 488 33 426 50 435 46 l 529 24 l 529 0 l 399 0 "},"İ":{"ha":536,"x_min":0,"x_max":0,"o":"m 268 1004 b 133 1128 193 1004 133 1051 b 268 1251 133 1203 193 1251 b 403 1128 344 1251 403 1203 b 268 1004 403 1051 344 1004 m 7 24 l 49 33 b 110 146 101 46 110 50 l 110 817 b 49 929 110 913 101 917 l 7 939 l 7 963 l 529 963 l 529 939 l 488 929 b 426 817 435 917 426 913 l 426 146 b 488 33 426 50 435 46 l 529 24 l 529 0 l 7 0 "},"Ỉ":{"ha":536,"x_min":0,"x_max":0,"o":"m 251 1004 b 222 1060 239 1015 222 1029 b 278 1138 222 1097 253 1122 b 322 1196 304 1154 322 1168 b 276 1233 322 1222 300 1233 b 238 1190 250 1233 244 1219 b 169 1128 226 1140 207 1128 b 108 1179 135 1128 108 1151 b 282 1272 108 1240 193 1272 b 464 1165 408 1272 464 1229 b 371 1069 464 1117 419 1090 b 267 1010 318 1047 267 1032 l 267 1004 m 7 24 l 49 33 b 110 146 101 46 110 50 l 110 817 b 49 929 110 913 101 917 l 7 939 l 7 963 l 529 963 l 529 939 l 488 929 b 426 817 435 917 426 913 l 426 146 b 488 33 426 50 435 46 l 529 24 l 529 0 l 7 0 "},"Ị":{"ha":536,"x_min":0,"x_max":0,"o":"m 7 24 l 49 33 b 110 146 101 46 110 50 l 110 817 b 49 929 110 913 101 917 l 7 939 l 7 963 l 529 963 l 529 939 l 488 929 b 426 817 435 917 426 913 l 426 146 b 488 33 426 50 435 46 l 529 24 l 529 0 l 7 0 m 143 -171 b 268 -57 143 -101 199 -57 b 393 -171 340 -57 393 -101 b 268 -285 393 -240 340 -285 b 143 -171 199 -285 143 -240 "},"J":{"ha":751,"x_min":0,"x_max":0,"o":"m 254 -14 b -11 154 79 -14 -11 61 b 115 274 -11 233 38 274 b 256 65 201 274 246 240 b 283 32 257 38 267 32 b 329 128 308 32 329 54 l 329 817 b 271 929 329 913 322 918 l 231 939 l 231 963 l 744 963 l 744 939 l 706 929 b 646 817 651 915 646 913 l 646 354 b 254 -14 646 136 497 -14 "},"Ĵ":{"ha":751,"x_min":0,"x_max":0,"o":"m 253 1018 l 443 1224 l 529 1224 l 719 1018 l 711 1004 l 486 1065 l 261 1004 m 254 -14 b -11 154 79 -14 -11 61 b 115 274 -11 233 38 274 b 256 65 201 274 246 240 b 283 32 257 38 267 32 b 329 128 308 32 329 54 l 329 817 b 271 929 329 913 322 918 l 231 939 l 231 963 l 744 963 l 744 939 l 706 929 b 646 817 651 915 646 913 l 646 354 b 254 -14 646 136 497 -14 "},"K":{"ha":1049,"x_min":0,"x_max":0,"o":"m 683 0 b 444 444 599 119 514 269 l 444 472 l 686 754 b 740 868 722 797 740 839 b 685 928 740 897 721 917 l 647 939 l 647 963 l 999 963 l 999 939 l 964 931 b 796 804 913 918 874 890 l 657 650 b 989 65 754 440 885 206 b 1038 29 1006 43 1014 35 l 1058 24 l 1058 0 l 683 0 m 7 24 l 44 33 b 106 146 96 47 106 50 l 106 817 b 44 929 106 913 96 915 l 7 939 l 7 963 l 517 963 l 517 939 l 483 929 b 422 817 429 914 422 911 l 422 146 b 483 33 422 51 431 49 l 517 24 l 517 0 l 7 0 "},"Ķ":{"ha":1049,"x_min":0,"x_max":0,"o":"m 683 0 b 444 444 599 119 514 269 l 444 472 l 686 754 b 740 868 722 797 740 839 b 685 928 740 897 721 917 l 647 939 l 647 963 l 999 963 l 999 939 l 964 931 b 796 804 913 918 874 890 l 657 650 b 989 65 754 440 885 206 b 1038 29 1006 43 1014 35 l 1058 24 l 1058 0 l 683 0 m 7 24 l 44 33 b 106 146 96 47 106 50 l 106 817 b 44 929 106 913 96 915 l 7 939 l 7 963 l 517 963 l 517 939 l 483 929 b 422 817 429 914 422 911 l 422 146 b 483 33 422 51 431 49 l 517 24 l 517 0 l 7 0 m 381 -336 b 536 -204 485 -310 528 -264 b 479 -225 522 -218 500 -225 b 394 -143 429 -225 394 -192 b 507 -53 394 -96 439 -53 b 632 -171 576 -53 632 -103 b 383 -351 632 -276 540 -342 "},"Ḳ":{"ha":1049,"x_min":0,"x_max":0,"o":"m 683 0 b 444 444 599 119 514 269 l 444 472 l 686 754 b 740 868 722 797 740 839 b 685 928 740 897 721 917 l 647 939 l 647 963 l 999 963 l 999 939 l 964 931 b 796 804 913 918 874 890 l 657 650 b 989 65 754 440 885 206 b 1038 29 1006 43 1014 35 l 1058 24 l 1058 0 l 683 0 m 7 24 l 44 33 b 106 146 96 47 106 50 l 106 817 b 44 929 106 913 96 915 l 7 939 l 7 963 l 517 963 l 517 939 l 483 929 b 422 817 429 914 422 911 l 422 146 b 483 33 422 51 431 49 l 517 24 l 517 0 l 7 0 m 431 -171 b 556 -57 431 -101 486 -57 b 681 -171 628 -57 681 -101 b 556 -285 681 -240 628 -285 b 431 -171 486 -285 431 -240 "},"L":{"ha":833,"x_min":0,"x_max":0,"o":"m 7 24 l 44 33 b 106 146 96 47 106 50 l 106 817 b 44 929 106 913 96 915 l 7 939 l 7 963 l 529 963 l 529 939 l 483 929 b 422 817 429 918 422 913 l 422 136 b 519 46 422 63 432 46 b 685 135 624 46 639 58 b 800 388 718 190 758 282 l 828 388 l 800 0 l 7 0 "},"Ĺ":{"ha":833,"x_min":0,"x_max":0,"o":"m 108 1018 l 278 1193 b 363 1235 304 1221 331 1235 b 461 1131 419 1235 461 1188 b 375 1040 461 1081 429 1047 l 114 1004 m 7 24 l 44 33 b 106 146 96 47 106 50 l 106 817 b 44 929 106 913 96 915 l 7 939 l 7 963 l 529 963 l 529 939 l 483 929 b 422 817 429 918 422 913 l 422 136 b 519 46 422 63 432 46 b 685 135 624 46 639 58 b 800 388 718 190 758 282 l 828 388 l 800 0 l 7 0 "},"Ļ":{"ha":833,"x_min":0,"x_max":0,"o":"m 7 24 l 44 33 b 106 146 96 47 106 50 l 106 817 b 44 929 106 913 96 915 l 7 939 l 7 963 l 529 963 l 529 939 l 483 929 b 422 817 429 918 422 913 l 422 136 b 519 46 422 63 432 46 b 685 135 624 46 639 58 b 800 388 718 190 758 282 l 828 388 l 800 0 l 7 0 m 297 -336 b 453 -204 401 -310 444 -264 b 396 -225 439 -218 417 -225 b 311 -143 346 -225 311 -192 b 424 -53 311 -96 356 -53 b 549 -171 493 -53 549 -103 b 300 -351 549 -276 457 -342 "},"Ľ":{"ha":833,"x_min":0,"x_max":0,"o":"m 565 708 l 571 907 b 639 976 571 950 590 976 b 728 908 686 976 725 944 b 704 849 728 892 725 872 l 581 703 m 7 24 l 44 33 b 106 146 96 47 106 50 l 106 817 b 44 929 106 913 96 915 l 7 939 l 7 963 l 529 963 l 529 939 l 483 929 b 422 817 429 918 422 913 l 422 136 b 519 46 422 63 432 46 b 685 135 624 46 639 58 b 800 388 718 190 758 282 l 828 388 l 800 0 l 7 0 "},"M":{"ha":1213,"x_min":0,"x_max":0,"o":"m 7 24 l 44 33 b 106 174 96 47 106 64 l 106 817 b 44 929 106 913 96 915 l 7 939 l 7 963 l 429 963 l 603 475 l 608 475 l 789 963 l 1206 963 l 1206 939 l 1168 929 b 1107 817 1117 915 1107 913 l 1107 146 b 1168 33 1107 50 1117 47 l 1206 24 l 1206 0 l 688 0 l 688 24 l 725 33 b 788 146 779 47 788 50 l 788 803 l 782 803 l 497 21 l 436 21 l 165 803 l 160 803 l 160 183 b 226 33 160 67 164 49 l 265 24 l 265 0 l 7 0 "},"N":{"ha":939,"x_min":0,"x_max":0,"o":"m 165 793 l 160 793 l 160 183 b 232 33 160 67 165 49 l 275 24 l 275 0 l 7 0 l 7 24 l 44 33 b 106 174 96 47 106 64 l 106 817 b 44 929 106 893 93 917 l 7 939 l 7 963 l 415 963 l 772 490 l 778 490 l 778 779 b 707 928 778 896 774 911 l 661 939 l 661 963 l 932 963 l 932 939 l 893 929 b 832 789 842 917 832 899 l 832 0 l 744 0 "},"Ñ":{"ha":939,"x_min":0,"x_max":0,"o":"m 614 1031 b 371 1056 557 1031 432 1056 b 288 996 333 1056 314 1039 l 268 1007 b 417 1208 310 1133 346 1208 b 660 1182 475 1208 599 1182 b 743 1243 696 1182 717 1200 l 763 1232 b 614 1031 722 1106 692 1031 m 165 793 l 160 793 l 160 183 b 232 33 160 67 165 49 l 275 24 l 275 0 l 7 0 l 7 24 l 44 33 b 106 174 96 47 106 64 l 106 817 b 44 929 106 893 93 917 l 7 939 l 7 963 l 415 963 l 772 490 l 778 490 l 778 779 b 707 928 778 896 774 911 l 661 939 l 661 963 l 932 963 l 932 939 l 893 929 b 832 789 842 917 832 899 l 832 0 l 744 0 "},"Ń":{"ha":939,"x_min":0,"x_max":0,"o":"m 344 1018 l 514 1193 b 599 1235 540 1221 567 1235 b 697 1131 656 1235 697 1188 b 611 1040 697 1081 665 1047 l 350 1004 m 165 793 l 160 793 l 160 183 b 232 33 160 67 165 49 l 275 24 l 275 0 l 7 0 l 7 24 l 44 33 b 106 174 96 47 106 64 l 106 817 b 44 929 106 893 93 917 l 7 939 l 7 963 l 415 963 l 772 490 l 778 490 l 778 779 b 707 928 778 896 774 911 l 661 939 l 661 963 l 932 963 l 932 939 l 893 929 b 832 789 842 917 832 899 l 832 0 l 744 0 "},"Ņ":{"ha":939,"x_min":0,"x_max":0,"o":"m 165 793 l 160 793 l 160 183 b 232 33 160 67 165 49 l 275 24 l 275 0 l 7 0 l 7 24 l 44 33 b 106 174 96 47 106 64 l 106 817 b 44 929 106 893 93 917 l 7 939 l 7 963 l 415 963 l 772 490 l 778 490 l 778 779 b 707 928 778 896 774 911 l 661 939 l 661 963 l 932 963 l 932 939 l 893 929 b 832 789 842 917 832 899 l 832 0 l 744 0 m 326 -336 b 482 -204 431 -310 474 -264 b 425 -225 468 -218 446 -225 b 340 -143 375 -225 340 -192 b 453 -53 340 -96 385 -53 b 578 -171 522 -53 578 -103 b 329 -351 578 -276 486 -342 "},"Ň":{"ha":939,"x_min":0,"x_max":0,"o":"m 479 1174 l 704 1235 l 713 1221 l 522 1015 l 436 1015 l 246 1221 l 254 1235 m 165 793 l 160 793 l 160 183 b 232 33 160 67 165 49 l 275 24 l 275 0 l 7 0 l 7 24 l 44 33 b 106 174 96 47 106 64 l 106 817 b 44 929 106 893 93 917 l 7 939 l 7 963 l 415 963 l 772 490 l 778 490 l 778 779 b 707 928 778 896 774 911 l 661 939 l 661 963 l 932 963 l 932 939 l 893 929 b 832 789 842 917 832 899 l 832 0 l 744 0 "},"O":{"ha":1033,"x_min":0,"x_max":0,"o":"m 513 -17 b 26 469 274 -17 26 128 b 521 979 26 839 300 979 b 1007 493 761 979 1007 856 b 513 -17 1007 121 733 -17 m 518 24 b 676 460 626 24 676 114 b 515 939 676 849 625 939 b 356 503 414 939 356 850 b 518 24 356 118 404 24 "},"Ò":{"ha":1033,"x_min":0,"x_max":0,"o":"m 425 1040 b 339 1131 371 1047 339 1081 b 438 1235 339 1188 381 1235 b 522 1193 469 1235 496 1221 l 692 1018 l 686 1004 m 513 -17 b 26 469 274 -17 26 128 b 521 979 26 839 300 979 b 1007 493 761 979 1007 856 b 513 -17 1007 121 733 -17 m 518 24 b 676 460 626 24 676 114 b 515 939 676 849 625 939 b 356 503 414 939 356 850 b 518 24 356 118 404 24 "},"Ó":{"ha":1033,"x_min":0,"x_max":0,"o":"m 354 1018 l 524 1193 b 608 1235 550 1221 576 1235 b 707 1131 665 1235 707 1188 b 621 1040 707 1081 675 1047 l 360 1004 m 513 -17 b 26 469 274 -17 26 128 b 521 979 26 839 300 979 b 1007 493 761 979 1007 856 b 513 -17 1007 121 733 -17 m 518 24 b 676 460 626 24 676 114 b 515 939 676 849 625 939 b 356 503 414 939 356 850 b 518 24 356 118 404 24 "},"Ô":{"ha":1033,"x_min":0,"x_max":0,"o":"m 282 1018 l 472 1224 l 558 1224 l 749 1018 l 740 1004 l 515 1065 l 290 1004 m 513 -17 b 26 469 274 -17 26 128 b 521 979 26 839 300 979 b 1007 493 761 979 1007 856 b 513 -17 1007 121 733 -17 m 518 24 b 676 460 626 24 676 114 b 515 939 676 849 625 939 b 356 503 414 939 356 850 b 518 24 356 118 404 24 "},"Õ":{"ha":1033,"x_min":0,"x_max":0,"o":"m 619 1031 b 376 1056 563 1031 438 1056 b 293 996 339 1056 319 1039 l 274 1007 b 422 1208 315 1133 351 1208 b 665 1182 481 1208 604 1182 b 749 1243 701 1182 722 1200 l 768 1232 b 619 1031 728 1106 697 1031 m 513 -17 b 26 469 274 -17 26 128 b 521 979 26 839 300 979 b 1007 493 761 979 1007 856 b 513 -17 1007 121 733 -17 m 518 24 b 676 460 626 24 676 114 b 515 939 676 849 625 939 b 356 503 414 939 356 850 b 518 24 356 118 404 24 "},"Ö":{"ha":1033,"x_min":0,"x_max":0,"o":"m 363 999 b 239 1118 296 999 239 1042 b 363 1236 239 1193 296 1236 b 488 1118 432 1236 488 1193 b 363 999 488 1042 432 999 m 669 999 b 546 1118 603 999 546 1042 b 669 1236 546 1193 603 1236 b 794 1118 739 1236 794 1193 b 669 999 794 1042 739 999 m 513 -17 b 26 469 274 -17 26 128 b 521 979 26 839 300 979 b 1007 493 761 979 1007 856 b 513 -17 1007 121 733 -17 m 518 24 b 676 460 626 24 676 114 b 515 939 676 849 625 939 b 356 503 414 939 356 850 b 518 24 356 118 404 24 "},"Ō":{"ha":1033,"x_min":0,"x_max":0,"o":"m 317 1144 l 717 1144 l 717 1049 l 317 1049 m 513 -17 b 26 469 274 -17 26 128 b 521 979 26 839 300 979 b 1007 493 761 979 1007 856 b 513 -17 1007 121 733 -17 m 518 24 b 676 460 626 24 676 114 b 515 939 676 849 625 939 b 356 503 414 939 356 850 b 518 24 356 118 404 24 "},"Ŏ":{"ha":1033,"x_min":0,"x_max":0,"o":"m 513 1007 b 311 1228 394 1007 333 1094 l 326 1233 b 514 1149 368 1174 413 1149 b 701 1233 610 1149 657 1174 l 717 1228 b 513 1007 699 1094 633 1007 m 513 -17 b 26 469 274 -17 26 128 b 521 979 26 839 300 979 b 1007 493 761 979 1007 856 b 513 -17 1007 121 733 -17 m 518 24 b 676 460 626 24 676 114 b 515 939 676 849 625 939 b 356 503 414 939 356 850 b 518 24 356 118 404 24 "},"Ő":{"ha":1033,"x_min":0,"x_max":0,"o":"m 368 1015 l 433 1185 b 511 1256 453 1236 481 1256 b 601 1168 554 1256 601 1217 b 528 1078 601 1135 579 1104 l 382 1004 m 608 1015 l 674 1185 b 751 1256 693 1236 721 1256 b 842 1168 794 1256 842 1217 b 768 1078 842 1135 819 1104 l 622 1004 m 513 -17 b 26 469 274 -17 26 128 b 521 979 26 839 300 979 b 1007 493 761 979 1007 856 b 513 -17 1007 121 733 -17 m 518 24 b 676 460 626 24 676 114 b 515 939 676 849 625 939 b 356 503 414 939 356 850 b 518 24 356 118 404 24 "},"Ơ":{"ha":1033,"x_min":0,"x_max":0,"o":"m 513 -17 b 26 469 274 -17 26 128 b 521 979 26 839 300 979 b 719 947 589 979 656 969 b 864 1019 828 950 864 985 b 776 1167 864 1065 776 1090 b 875 1264 776 1228 817 1264 b 985 1132 939 1264 985 1224 b 790 915 985 1031 924 942 b 1007 493 915 846 1007 714 b 513 -17 1007 121 733 -17 m 518 24 b 676 460 626 24 676 114 b 515 939 676 849 625 939 b 356 503 414 939 356 850 b 518 24 356 118 404 24 "},"Ọ":{"ha":1033,"x_min":0,"x_max":0,"o":"m 513 -17 b 26 469 274 -17 26 128 b 521 979 26 839 300 979 b 1007 493 761 979 1007 856 b 513 -17 1007 121 733 -17 m 518 24 b 676 460 626 24 676 114 b 515 939 676 849 625 939 b 356 503 414 939 356 850 b 518 24 356 118 404 24 m 392 -171 b 517 -57 392 -101 447 -57 b 642 -171 589 -57 642 -101 b 517 -285 642 -240 589 -285 b 392 -171 447 -285 392 -240 "},"Ỏ":{"ha":1033,"x_min":0,"x_max":0,"o":"m 500 1004 b 471 1060 488 1015 471 1029 b 526 1138 471 1097 501 1122 b 571 1196 553 1154 571 1168 b 525 1233 571 1222 549 1233 b 486 1190 499 1233 493 1219 b 418 1128 475 1140 456 1128 b 357 1179 383 1128 357 1151 b 531 1272 357 1240 442 1272 b 713 1165 657 1272 713 1229 b 619 1069 713 1117 668 1090 b 515 1010 567 1047 515 1032 l 515 1004 m 513 -17 b 26 469 274 -17 26 128 b 521 979 26 839 300 979 b 1007 493 761 979 1007 856 b 513 -17 1007 121 733 -17 m 518 24 b 676 460 626 24 676 114 b 515 939 676 849 625 939 b 356 503 414 939 356 850 b 518 24 356 118 404 24 "},"Ố":{"ha":1033,"x_min":0,"x_max":0,"o":"m 628 1181 l 707 1315 b 782 1368 726 1349 751 1368 b 864 1282 817 1368 864 1332 b 781 1200 864 1235 828 1208 l 632 1172 m 283 1018 l 474 1224 l 560 1224 l 750 1018 l 742 1004 l 517 1065 l 292 1004 m 513 -17 b 26 469 274 -17 26 128 b 521 979 26 839 300 979 b 1007 493 761 979 1007 856 b 513 -17 1007 121 733 -17 m 518 24 b 676 460 626 24 676 114 b 515 939 676 849 625 939 b 356 503 414 939 356 850 b 518 24 356 118 404 24 "},"Ồ":{"ha":1033,"x_min":0,"x_max":0,"o":"m 671 1200 b 588 1282 624 1208 588 1235 b 669 1368 588 1332 635 1368 b 744 1315 700 1368 725 1349 l 824 1181 l 819 1172 m 283 1018 l 474 1224 l 560 1224 l 750 1018 l 742 1004 l 517 1065 l 292 1004 m 513 -17 b 26 469 274 -17 26 128 b 521 979 26 839 300 979 b 1007 493 761 979 1007 856 b 513 -17 1007 121 733 -17 m 518 24 b 676 460 626 24 676 114 b 515 939 676 849 625 939 b 356 503 414 939 356 850 b 518 24 356 118 404 24 "},"Ổ":{"ha":1033,"x_min":0,"x_max":0,"o":"m 664 1160 b 639 1210 653 1169 639 1182 b 689 1279 639 1243 665 1267 b 728 1332 713 1294 728 1307 b 688 1367 728 1356 708 1367 b 651 1328 664 1367 658 1354 b 590 1271 642 1282 625 1271 b 536 1317 560 1271 536 1292 b 692 1401 536 1372 613 1401 b 853 1304 806 1401 853 1363 b 769 1218 853 1261 814 1238 b 678 1165 722 1199 678 1185 l 678 1160 m 283 1018 l 474 1224 l 560 1224 l 750 1018 l 742 1004 l 517 1065 l 292 1004 m 513 -17 b 26 469 274 -17 26 128 b 521 979 26 839 300 979 b 1007 493 761 979 1007 856 b 513 -17 1007 121 733 -17 m 518 24 b 676 460 626 24 676 114 b 515 939 676 849 625 939 b 356 503 414 939 356 850 b 518 24 356 118 404 24 "},"Ỗ":{"ha":1033,"x_min":0,"x_max":0,"o":"m 293 1264 b 442 1451 331 1382 371 1451 b 660 1418 500 1451 599 1418 b 743 1465 696 1418 719 1431 l 763 1454 b 614 1267 724 1336 692 1267 b 396 1299 557 1267 457 1299 b 313 1253 358 1299 335 1288 m 283 1018 l 474 1224 l 560 1224 l 750 1018 l 742 1004 l 517 1065 l 292 1004 m 513 -17 b 26 469 274 -17 26 128 b 521 979 26 839 300 979 b 1007 493 761 979 1007 856 b 513 -17 1007 121 733 -17 m 518 24 b 676 460 626 24 676 114 b 515 939 676 849 625 939 b 356 503 414 939 356 850 b 518 24 356 118 404 24 "},"Ộ":{"ha":1033,"x_min":0,"x_max":0,"o":"m 283 1018 l 474 1224 l 560 1224 l 750 1018 l 742 1004 l 517 1065 l 292 1004 m 513 -17 b 26 469 274 -17 26 128 b 521 979 26 839 300 979 b 1007 493 761 979 1007 856 b 513 -17 1007 121 733 -17 m 518 24 b 676 460 626 24 676 114 b 515 939 676 849 625 939 b 356 503 414 939 356 850 b 518 24 356 118 404 24 m 392 -171 b 517 -57 392 -101 447 -57 b 642 -171 589 -57 642 -101 b 517 -285 642 -240 589 -285 b 392 -171 447 -285 392 -240 "},"Ớ":{"ha":1033,"x_min":0,"x_max":0,"o":"m 513 -17 b 26 469 274 -17 26 128 b 521 979 26 839 300 979 b 719 947 589 979 656 969 b 864 1019 828 950 864 985 b 776 1167 864 1065 776 1090 b 875 1264 776 1228 817 1264 b 985 1132 939 1264 985 1224 b 790 915 985 1031 924 942 b 1007 493 915 846 1007 714 b 513 -17 1007 121 733 -17 m 356 1018 l 525 1193 b 610 1235 551 1221 578 1235 b 708 1131 667 1235 708 1188 b 622 1040 708 1081 676 1047 l 361 1004 m 518 24 b 676 460 626 24 676 114 b 515 939 676 849 625 939 b 356 503 414 939 356 850 b 518 24 356 118 404 24 "},"Ờ":{"ha":1033,"x_min":0,"x_max":0,"o":"m 513 -17 b 26 469 274 -17 26 128 b 521 979 26 839 300 979 b 719 947 589 979 656 969 b 864 1019 828 950 864 985 b 776 1167 864 1065 776 1090 b 875 1264 776 1228 817 1264 b 985 1132 939 1264 985 1224 b 790 915 985 1031 924 942 b 1007 493 915 846 1007 714 b 513 -17 1007 121 733 -17 m 411 1040 b 325 1131 357 1047 325 1081 b 424 1235 325 1188 367 1235 b 508 1193 456 1235 482 1221 l 678 1018 l 672 1004 m 518 24 b 676 460 626 24 676 114 b 515 939 676 849 625 939 b 356 503 414 939 356 850 b 518 24 356 118 404 24 "},"Ở":{"ha":1033,"x_min":0,"x_max":0,"o":"m 500 1004 b 471 1060 488 1015 471 1029 b 526 1138 471 1097 501 1122 b 571 1196 553 1154 571 1168 b 525 1233 571 1222 549 1233 b 486 1190 499 1233 493 1219 b 418 1128 475 1140 456 1128 b 357 1179 383 1128 357 1151 b 531 1272 357 1240 442 1272 b 713 1165 657 1272 713 1229 b 619 1069 713 1117 668 1090 b 515 1010 567 1047 515 1032 l 515 1004 m 513 -17 b 26 469 274 -17 26 128 b 521 979 26 839 300 979 b 719 947 589 979 656 969 b 864 1019 828 950 864 985 b 776 1167 864 1065 776 1090 b 875 1264 776 1228 817 1264 b 985 1132 939 1264 985 1224 b 790 915 985 1031 924 942 b 1007 493 915 846 1007 714 b 513 -17 1007 121 733 -17 m 518 24 b 676 460 626 24 676 114 b 515 939 676 849 625 939 b 356 503 414 939 356 850 b 518 24 356 118 404 24 "},"Ỡ":{"ha":1033,"x_min":0,"x_max":0,"o":"m 513 -17 b 26 469 274 -17 26 128 b 521 979 26 839 300 979 b 719 947 589 979 656 969 b 864 1019 828 950 864 985 b 776 1167 864 1065 776 1090 b 875 1264 776 1228 817 1264 b 985 1132 939 1264 985 1224 b 790 915 985 1031 924 942 b 1007 493 915 846 1007 714 b 513 -17 1007 121 733 -17 m 601 1031 b 358 1056 544 1031 419 1056 b 275 996 321 1056 301 1039 l 256 1007 b 404 1208 297 1133 333 1208 b 647 1182 463 1208 586 1182 b 731 1243 683 1182 704 1200 l 750 1232 b 601 1031 710 1106 679 1031 m 518 24 b 676 460 626 24 676 114 b 515 939 676 849 625 939 b 356 503 414 939 356 850 b 518 24 356 118 404 24 "},"Ợ":{"ha":1033,"x_min":0,"x_max":0,"o":"m 513 -17 b 26 469 274 -17 26 128 b 521 979 26 839 300 979 b 719 947 589 979 656 969 b 864 1019 828 950 864 985 b 776 1167 864 1065 776 1090 b 875 1264 776 1228 817 1264 b 985 1132 939 1264 985 1224 b 790 915 985 1031 924 942 b 1007 493 915 846 1007 714 b 513 -17 1007 121 733 -17 m 518 24 b 676 460 626 24 676 114 b 515 939 676 849 625 939 b 356 503 414 939 356 850 b 518 24 356 118 404 24 m 392 -171 b 517 -57 392 -101 447 -57 b 642 -171 589 -57 642 -101 b 517 -285 642 -240 589 -285 b 392 -171 447 -285 392 -240 "},"P":{"ha":939,"x_min":0,"x_max":0,"o":"m 7 24 l 44 33 b 106 146 96 47 106 50 l 106 817 b 43 929 106 913 96 915 l 7 939 l 7 963 l 506 963 b 922 683 789 963 922 888 b 554 397 922 535 825 397 b 453 410 499 397 467 406 l 453 442 b 601 675 583 451 601 494 b 483 917 601 882 575 917 b 422 910 460 917 435 913 l 422 146 b 489 36 422 57 432 51 l 536 24 l 536 0 l 7 0 "},"Q":{"ha":1033,"x_min":0,"x_max":0,"o":"m 813 -233 b 526 -143 699 -233 621 -207 b 336 15 475 -108 406 -49 b 26 469 168 69 26 214 b 521 979 26 839 300 979 b 1007 493 761 979 1007 856 b 694 46 1007 218 871 101 l 694 43 b 811 -53 731 8 761 -18 b 964 -108 868 -92 910 -108 b 1086 -82 1008 -108 1040 -103 l 1086 -104 b 813 -233 1047 -154 953 -233 m 518 18 b 676 460 626 18 676 114 b 515 939 676 849 625 939 b 356 503 414 939 356 850 b 518 18 356 118 404 18 "},"R":{"ha":1021,"x_min":0,"x_max":0,"o":"m 7 24 l 44 33 b 106 146 96 47 106 50 l 106 817 b 44 929 106 913 96 915 l 7 939 l 7 963 l 519 963 b 929 710 806 963 929 883 b 757 482 929 585 876 521 l 757 478 b 971 72 804 365 900 172 b 1026 31 989 46 1006 36 l 1050 24 l 1050 0 l 656 0 b 457 424 576 118 508 279 b 425 425 450 424 440 424 l 425 146 b 478 33 425 51 431 46 l 515 24 l 515 0 l 7 0 m 474 468 b 611 686 563 468 611 508 b 492 914 611 842 590 914 b 425 908 464 914 439 911 l 425 472 b 474 468 436 469 454 468 "},"Ŕ":{"ha":1021,"x_min":0,"x_max":0,"o":"m 346 1018 l 515 1193 b 600 1235 542 1221 568 1235 b 699 1131 657 1235 699 1188 b 613 1040 699 1081 667 1047 l 351 1004 m 7 24 l 44 33 b 106 146 96 47 106 50 l 106 817 b 44 929 106 913 96 915 l 7 939 l 7 963 l 519 963 b 929 710 806 963 929 883 b 757 482 929 585 876 521 l 757 478 b 971 72 804 365 900 172 b 1026 31 989 46 1006 36 l 1050 24 l 1050 0 l 656 0 b 457 424 576 118 508 279 b 425 425 450 424 440 424 l 425 146 b 478 33 425 51 431 46 l 515 24 l 515 0 l 7 0 m 474 468 b 611 686 563 468 611 508 b 492 914 611 842 590 914 b 425 908 464 914 439 911 l 425 472 b 474 468 436 469 454 468 "},"Ŗ":{"ha":1021,"x_min":0,"x_max":0,"o":"m 7 24 l 44 33 b 106 146 96 47 106 50 l 106 817 b 44 929 106 913 96 915 l 7 939 l 7 963 l 519 963 b 929 710 806 963 929 883 b 757 482 929 585 876 521 l 757 478 b 971 72 804 365 900 172 b 1026 31 989 46 1006 36 l 1050 24 l 1050 0 l 656 0 b 457 424 576 118 508 279 b 425 425 450 424 440 424 l 425 146 b 478 33 425 51 431 46 l 515 24 l 515 0 l 7 0 m 474 468 b 611 686 563 468 611 508 b 492 914 611 842 590 914 b 425 908 464 914 439 911 l 425 472 b 474 468 436 469 454 468 m 353 -336 b 508 -204 457 -310 500 -264 b 451 -225 494 -218 472 -225 b 367 -143 401 -225 367 -192 b 479 -53 367 -96 411 -53 b 604 -171 549 -53 604 -103 b 356 -351 604 -276 513 -342 "},"Ř":{"ha":1021,"x_min":0,"x_max":0,"o":"m 482 1174 l 707 1235 l 715 1221 l 525 1015 l 439 1015 l 249 1221 l 257 1235 m 7 24 l 44 33 b 106 146 96 47 106 50 l 106 817 b 44 929 106 913 96 915 l 7 939 l 7 963 l 519 963 b 929 710 806 963 929 883 b 757 482 929 585 876 521 l 757 478 b 971 72 804 365 900 172 b 1026 31 989 46 1006 36 l 1050 24 l 1050 0 l 656 0 b 457 424 576 118 508 279 b 425 425 450 424 440 424 l 425 146 b 478 33 425 51 431 46 l 515 24 l 515 0 l 7 0 m 474 468 b 611 686 563 468 611 508 b 492 914 611 842 590 914 b 425 908 464 914 439 911 l 425 472 b 474 468 436 469 454 468 "},"S":{"ha":732,"x_min":0,"x_max":0,"o":"m 331 -17 b 38 26 192 -17 92 0 l 19 324 l 49 324 b 171 117 92 236 128 171 b 346 24 222 53 269 24 b 483 164 435 24 483 78 b 289 351 483 254 438 301 b 19 660 83 421 19 506 b 392 979 19 843 171 979 b 644 936 507 979 594 960 l 658 672 l 629 672 b 511 868 596 744 561 814 b 369 939 460 924 424 939 b 235 811 286 939 235 890 b 422 642 235 738 274 694 b 719 333 643 565 719 485 b 331 -17 719 150 575 -17 "},"Ś":{"ha":732,"x_min":0,"x_max":0,"o":"m 229 1018 l 399 1193 b 483 1235 425 1221 451 1235 b 582 1131 540 1235 582 1188 b 496 1040 582 1081 550 1047 l 235 1004 m 331 -17 b 38 26 192 -17 92 0 l 19 324 l 49 324 b 171 117 92 236 128 171 b 346 24 222 53 269 24 b 483 164 435 24 483 78 b 289 351 483 254 438 301 b 19 660 83 421 19 506 b 392 979 19 843 171 979 b 644 936 507 979 594 960 l 658 672 l 629 672 b 511 868 596 744 561 814 b 369 939 460 924 424 939 b 235 811 286 939 235 890 b 422 642 235 738 274 694 b 719 333 643 565 719 485 b 331 -17 719 150 575 -17 "},"Ŝ":{"ha":732,"x_min":0,"x_max":0,"o":"m 133 1018 l 324 1224 l 410 1224 l 600 1018 l 592 1004 l 367 1065 l 142 1004 m 331 -17 b 38 26 192 -17 92 0 l 19 324 l 49 324 b 171 117 92 236 128 171 b 346 24 222 53 269 24 b 483 164 435 24 483 78 b 289 351 483 254 438 301 b 19 660 83 421 19 506 b 392 979 19 843 171 979 b 644 936 507 979 594 960 l 658 672 l 629 672 b 511 868 596 744 561 814 b 369 939 460 924 424 939 b 235 811 286 939 235 890 b 422 642 235 738 274 694 b 719 333 643 565 719 485 b 331 -17 719 150 575 -17 "},"Ş":{"ha":732,"x_min":0,"x_max":0,"o":"m 211 -260 b 326 -179 286 -243 326 -211 b 275 -146 326 -157 310 -147 l 269 -139 l 329 -17 b 38 26 192 -17 92 0 l 19 324 l 49 324 b 171 117 92 236 128 171 b 346 24 222 53 269 24 b 483 164 435 24 483 78 b 289 351 483 254 438 301 b 19 660 83 421 19 506 b 392 979 19 843 171 979 b 644 936 507 979 594 960 l 658 672 l 629 672 b 511 868 596 744 561 814 b 369 939 460 924 424 939 b 235 811 286 939 235 890 b 422 642 235 738 274 694 b 719 333 643 565 719 485 b 376 -15 719 163 593 6 l 346 -56 b 465 -144 428 -62 465 -99 b 211 -281 465 -228 329 -269 "},"Š":{"ha":732,"x_min":0,"x_max":0,"o":"m 371 1174 l 596 1235 l 604 1221 l 414 1015 l 328 1015 l 138 1221 l 146 1235 m 331 -17 b 38 26 192 -17 92 0 l 19 324 l 49 324 b 171 117 92 236 128 171 b 346 24 222 53 269 24 b 483 164 435 24 483 78 b 289 351 483 254 438 301 b 19 660 83 421 19 506 b 392 979 19 843 171 979 b 644 936 507 979 594 960 l 658 672 l 629 672 b 511 868 596 744 561 814 b 369 939 460 924 424 939 b 235 811 286 939 235 890 b 422 642 235 738 274 694 b 719 333 643 565 719 485 b 331 -17 719 150 575 -17 "},"Ș":{"ha":732,"x_min":0,"x_max":0,"o":"m 331 -17 b 38 26 192 -17 92 0 l 19 324 l 49 324 b 171 117 92 236 128 171 b 346 24 222 53 269 24 b 483 164 435 24 483 78 b 289 351 483 254 438 301 b 19 660 83 421 19 506 b 392 979 19 843 171 979 b 644 936 507 979 594 960 l 658 672 l 629 672 b 511 868 596 744 561 814 b 369 939 460 924 424 939 b 235 811 286 939 235 890 b 422 642 235 738 274 694 b 719 333 643 565 719 485 b 331 -17 719 150 575 -17 m 206 -336 b 361 -204 310 -310 353 -264 b 304 -225 347 -218 325 -225 b 219 -143 254 -225 219 -192 b 332 -53 219 -96 264 -53 b 457 -171 401 -53 457 -103 b 208 -351 457 -276 365 -342 "},"T":{"ha":914,"x_min":0,"x_max":0,"o":"m 615 146 b 688 33 615 51 624 49 l 729 24 l 729 0 l 185 0 l 185 24 l 226 33 b 299 146 290 49 299 51 l 299 917 l 269 917 b 167 849 221 917 197 894 b 44 599 136 803 90 704 l 17 599 l 28 963 l 886 963 l 897 599 l 869 599 b 749 849 826 704 779 803 b 644 917 713 901 699 917 l 615 917 "},"Ţ":{"ha":903,"x_min":0,"x_max":0,"o":"m 300 -260 b 415 -179 375 -243 415 -211 b 364 -146 415 -157 399 -147 l 358 -139 l 426 0 l 179 0 l 179 24 l 221 33 b 293 146 285 49 293 51 l 293 917 l 264 917 b 161 849 215 917 192 894 b 39 599 131 803 85 704 l 11 599 l 22 963 l 881 963 l 892 599 l 864 599 b 743 849 821 704 774 803 b 639 917 707 901 693 917 l 610 917 l 610 146 b 682 33 610 51 618 49 l 724 24 l 724 0 l 476 0 l 435 -56 b 554 -144 517 -62 554 -99 b 300 -281 554 -228 418 -269 "},"Ť":{"ha":914,"x_min":0,"x_max":0,"o":"m 451 1174 l 676 1235 l 685 1221 l 494 1015 l 408 1015 l 218 1221 l 226 1235 m 610 146 b 682 33 610 51 618 49 l 724 24 l 724 0 l 179 0 l 179 24 l 221 33 b 293 146 285 49 293 51 l 293 917 l 264 917 b 161 849 215 917 192 894 b 39 599 131 803 85 704 l 11 599 l 22 963 l 881 963 l 892 599 l 864 599 b 743 849 821 704 774 803 b 639 917 707 901 693 917 l 610 917 "},"Ț":{"ha":903,"x_min":0,"x_max":0,"o":"m 610 146 b 682 33 610 51 618 49 l 724 24 l 724 0 l 179 0 l 179 24 l 221 33 b 293 146 285 49 293 51 l 293 917 l 264 917 b 161 849 215 917 192 894 b 39 599 131 803 85 704 l 11 599 l 22 963 l 881 963 l 892 599 l 864 599 b 743 849 821 704 774 803 b 639 917 707 901 693 917 l 610 917 m 310 -336 b 465 -204 414 -310 457 -264 b 408 -225 451 -218 429 -225 b 324 -143 358 -225 324 -192 b 436 -53 324 -96 368 -53 b 561 -171 506 -53 561 -103 b 313 -351 561 -276 469 -342 "},"Ṭ":{"ha":914,"x_min":0,"x_max":0,"o":"m 615 146 b 688 33 615 51 624 49 l 729 24 l 729 0 l 185 0 l 185 24 l 226 33 b 299 146 290 49 299 51 l 299 917 l 269 917 b 167 849 221 917 197 894 b 44 599 136 803 90 704 l 17 599 l 28 963 l 886 963 l 897 599 l 869 599 b 749 849 826 704 779 803 b 644 917 713 901 699 917 l 615 917 m 332 -171 b 457 -57 332 -101 388 -57 b 582 -171 529 -57 582 -101 b 457 -285 582 -240 529 -285 b 332 -171 388 -285 332 -240 "},"U":{"ha":967,"x_min":0,"x_max":0,"o":"m 531 -17 b 104 307 272 -17 104 60 l 104 817 b 42 929 104 913 94 915 l 4 939 l 4 963 l 519 963 l 519 939 l 482 929 b 419 817 429 915 419 913 l 419 278 b 624 67 419 133 479 67 b 811 293 765 67 811 156 l 811 779 b 740 928 811 896 804 913 l 694 939 l 694 963 l 963 963 l 963 939 l 924 929 b 865 789 878 918 865 899 l 865 282 b 531 -17 865 111 769 -17 "},"Ù":{"ha":967,"x_min":0,"x_max":0,"o":"m 479 1040 b 393 1131 425 1047 393 1081 b 492 1235 393 1188 435 1235 b 576 1193 524 1235 550 1221 l 746 1018 l 740 1004 m 531 -17 b 104 307 272 -17 104 60 l 104 817 b 42 929 104 913 94 915 l 4 939 l 4 963 l 519 963 l 519 939 l 482 929 b 419 817 429 915 419 913 l 419 278 b 624 67 419 133 479 67 b 811 293 765 67 811 156 l 811 779 b 740 928 811 896 804 913 l 694 939 l 694 963 l 963 963 l 963 939 l 924 929 b 865 789 878 918 865 899 l 865 282 b 531 -17 865 111 769 -17 "},"Ú":{"ha":967,"x_min":0,"x_max":0,"o":"m 432 1018 l 601 1193 b 686 1235 628 1221 654 1235 b 785 1131 743 1235 785 1188 b 699 1040 785 1081 753 1047 l 438 1004 m 531 -17 b 104 307 272 -17 104 60 l 104 817 b 42 929 104 913 94 915 l 4 939 l 4 963 l 519 963 l 519 939 l 482 929 b 419 817 429 915 419 913 l 419 278 b 624 67 419 133 479 67 b 811 293 765 67 811 156 l 811 779 b 740 928 811 896 804 913 l 694 939 l 694 963 l 963 963 l 963 939 l 924 929 b 865 789 878 918 865 899 l 865 282 b 531 -17 865 111 769 -17 "},"Û":{"ha":967,"x_min":0,"x_max":0,"o":"m 338 1018 l 528 1224 l 614 1224 l 804 1018 l 796 1004 l 571 1065 l 346 1004 m 531 -17 b 104 307 272 -17 104 60 l 104 817 b 42 929 104 913 94 915 l 4 939 l 4 963 l 519 963 l 519 939 l 482 929 b 419 817 429 915 419 913 l 419 278 b 624 67 419 133 479 67 b 811 293 765 67 811 156 l 811 779 b 740 928 811 896 804 913 l 694 939 l 694 963 l 963 963 l 963 939 l 924 929 b 865 789 878 918 865 899 l 865 282 b 531 -17 865 111 769 -17 "},"Ü":{"ha":967,"x_min":0,"x_max":0,"o":"m 393 999 b 269 1118 326 999 269 1042 b 393 1236 269 1193 326 1236 b 518 1118 463 1236 518 1193 b 393 999 518 1042 463 999 m 700 999 b 576 1118 633 999 576 1042 b 700 1236 576 1193 633 1236 b 825 1118 769 1236 825 1193 b 700 999 825 1042 769 999 m 531 -17 b 104 307 272 -17 104 60 l 104 817 b 42 929 104 913 94 915 l 4 939 l 4 963 l 519 963 l 519 939 l 482 929 b 419 817 429 915 419 913 l 419 278 b 624 67 419 133 479 67 b 811 293 765 67 811 156 l 811 779 b 740 928 811 896 804 913 l 694 939 l 694 963 l 963 963 l 963 939 l 924 929 b 865 789 878 918 865 899 l 865 282 b 531 -17 865 111 769 -17 "},"Ũ":{"ha":967,"x_min":0,"x_max":0,"o":"m 694 1031 b 451 1056 638 1031 513 1056 b 368 996 414 1056 394 1039 l 349 1007 b 497 1208 390 1133 426 1208 b 740 1182 556 1208 679 1182 b 824 1243 776 1182 797 1200 l 843 1232 b 694 1031 803 1106 772 1031 m 531 -17 b 104 307 272 -17 104 60 l 104 817 b 42 929 104 913 94 915 l 4 939 l 4 963 l 519 963 l 519 939 l 482 929 b 419 817 429 915 419 913 l 419 278 b 624 67 419 133 479 67 b 811 293 765 67 811 156 l 811 779 b 740 928 811 896 804 913 l 694 939 l 694 963 l 963 963 l 963 939 l 924 929 b 865 789 878 918 865 899 l 865 282 b 531 -17 865 111 769 -17 "},"Ū":{"ha":967,"x_min":0,"x_max":0,"o":"m 361 1144 l 761 1144 l 761 1049 l 361 1049 m 531 -17 b 104 307 272 -17 104 60 l 104 817 b 42 929 104 913 94 915 l 4 939 l 4 963 l 519 963 l 519 939 l 482 929 b 419 817 429 915 419 913 l 419 278 b 624 67 419 133 479 67 b 811 293 765 67 811 156 l 811 779 b 740 928 811 896 804 913 l 694 939 l 694 963 l 963 963 l 963 939 l 924 929 b 865 789 878 918 865 899 l 865 282 b 531 -17 865 111 769 -17 "},"Ŭ":{"ha":967,"x_min":0,"x_max":0,"o":"m 571 1007 b 369 1228 453 1007 392 1094 l 385 1233 b 572 1149 426 1174 471 1149 b 760 1233 668 1149 715 1174 l 775 1228 b 571 1007 757 1094 692 1007 m 531 -17 b 104 307 272 -17 104 60 l 104 817 b 42 929 104 913 94 915 l 4 939 l 4 963 l 519 963 l 519 939 l 482 929 b 419 817 429 915 419 913 l 419 278 b 624 67 419 133 479 67 b 811 293 765 67 811 156 l 811 779 b 740 928 811 896 804 913 l 694 939 l 694 963 l 963 963 l 963 939 l 924 929 b 865 789 878 918 865 899 l 865 282 b 531 -17 865 111 769 -17 "},"Ů":{"ha":967,"x_min":0,"x_max":0,"o":"m 465 1125 b 597 1251 465 1199 528 1251 b 729 1125 667 1251 729 1199 b 597 999 729 1051 667 999 b 465 1125 528 999 465 1051 m 518 1125 b 597 1038 518 1075 547 1038 b 676 1125 647 1038 676 1075 b 597 1213 676 1175 647 1213 b 518 1125 547 1213 518 1175 m 531 -17 b 104 307 272 -17 104 60 l 104 817 b 42 929 104 913 94 915 l 4 939 l 4 963 l 519 963 l 519 939 l 482 929 b 419 817 429 915 419 913 l 419 278 b 624 67 419 133 479 67 b 811 293 765 67 811 156 l 811 779 b 740 928 811 896 804 913 l 694 939 l 694 963 l 963 963 l 963 939 l 924 929 b 865 789 878 918 865 899 l 865 282 b 531 -17 865 111 769 -17 "},"Ű":{"ha":967,"x_min":0,"x_max":0,"o":"m 379 1015 l 444 1185 b 522 1256 464 1236 492 1256 b 613 1168 565 1256 613 1217 b 539 1078 613 1135 590 1104 l 393 1004 m 619 1015 l 685 1185 b 763 1256 704 1236 732 1256 b 853 1168 806 1256 853 1217 b 779 1078 853 1135 831 1104 l 633 1004 m 531 -17 b 104 307 272 -17 104 60 l 104 817 b 42 929 104 913 94 915 l 4 939 l 4 963 l 519 963 l 519 939 l 482 929 b 419 817 429 915 419 913 l 419 278 b 624 67 419 133 479 67 b 811 293 765 67 811 156 l 811 779 b 740 928 811 896 804 913 l 694 939 l 694 963 l 963 963 l 963 939 l 924 929 b 865 789 878 918 865 899 l 865 282 b 531 -17 865 111 769 -17 "},"Ų":{"ha":967,"x_min":0,"x_max":0,"o":"m 531 -17 b 104 307 272 -17 104 60 l 104 817 b 42 929 104 913 94 915 l 4 939 l 4 963 l 519 963 l 519 939 l 482 929 b 419 817 429 915 419 913 l 419 278 b 624 67 419 133 479 67 b 811 293 765 67 811 156 l 811 779 b 740 928 811 896 804 913 l 694 939 l 694 963 l 963 963 l 963 939 l 924 929 b 865 789 878 918 865 899 l 865 282 b 725 8 865 157 829 89 b 615 -156 642 -56 615 -94 b 671 -215 615 -196 638 -215 b 711 -211 685 -215 699 -214 l 711 -232 b 576 -285 678 -265 635 -285 b 438 -176 492 -285 438 -242 b 651 -4 438 -100 503 -50 b 531 -17 600 -14 574 -17 "},"Ư":{"ha":1001,"x_min":0,"x_max":0,"o":"m 531 -17 b 104 307 272 -17 104 60 l 104 817 b 42 929 104 913 94 915 l 4 939 l 4 963 l 519 963 l 519 939 l 482 929 b 419 817 429 915 419 913 l 419 278 b 624 67 419 133 479 67 b 811 293 765 67 811 156 l 811 779 b 740 928 811 896 804 913 l 694 939 l 694 963 l 838 963 b 967 1019 921 963 967 983 b 879 1167 967 1065 879 1090 b 978 1264 879 1228 919 1264 b 1088 1132 1042 1264 1088 1224 b 865 924 1088 1019 1007 931 l 865 282 b 531 -17 865 111 769 -17 "},"Ụ":{"ha":967,"x_min":0,"x_max":0,"o":"m 531 -17 b 104 307 272 -17 104 60 l 104 817 b 42 929 104 913 94 915 l 4 939 l 4 963 l 519 963 l 519 939 l 482 929 b 419 817 429 915 419 913 l 419 278 b 624 67 419 133 479 67 b 811 293 765 67 811 156 l 811 779 b 740 928 811 896 804 913 l 694 939 l 694 963 l 963 963 l 963 939 l 924 929 b 865 789 878 918 865 899 l 865 282 b 531 -17 865 111 769 -17 m 400 -171 b 525 -57 400 -101 456 -57 b 650 -171 597 -57 650 -101 b 525 -285 650 -240 597 -285 b 400 -171 456 -285 400 -240 "},"Ủ":{"ha":967,"x_min":0,"x_max":0,"o":"m 578 1004 b 549 1060 565 1015 549 1029 b 604 1138 549 1097 579 1122 b 649 1196 631 1154 649 1168 b 603 1233 649 1222 626 1233 b 564 1190 576 1233 571 1219 b 496 1128 553 1140 533 1128 b 435 1179 461 1128 435 1151 b 608 1272 435 1240 519 1272 b 790 1165 735 1272 790 1229 b 697 1069 790 1117 746 1090 b 593 1010 644 1047 593 1032 l 593 1004 m 531 -17 b 104 307 272 -17 104 60 l 104 817 b 42 929 104 913 94 915 l 4 939 l 4 963 l 519 963 l 519 939 l 482 929 b 419 817 429 915 419 913 l 419 278 b 624 67 419 133 479 67 b 811 293 765 67 811 156 l 811 779 b 740 928 811 896 804 913 l 694 939 l 694 963 l 963 963 l 963 939 l 924 929 b 865 789 878 918 865 899 l 865 282 b 531 -17 865 111 769 -17 "},"Ứ":{"ha":1001,"x_min":0,"x_max":0,"o":"m 531 -17 b 104 307 272 -17 104 60 l 104 817 b 42 929 104 913 94 915 l 4 939 l 4 963 l 519 963 l 519 939 l 482 929 b 419 817 429 915 419 913 l 419 278 b 624 67 419 133 479 67 b 811 293 765 67 811 156 l 811 779 b 740 928 811 896 804 913 l 694 939 l 694 963 l 838 963 b 967 1019 921 963 967 983 b 879 1167 967 1065 879 1090 b 978 1264 879 1228 919 1264 b 1088 1132 1042 1264 1088 1224 b 865 924 1088 1019 1007 931 l 865 282 b 531 -17 865 111 769 -17 m 433 1018 l 603 1193 b 688 1235 629 1221 656 1235 b 786 1131 744 1235 786 1188 b 700 1040 786 1081 754 1047 l 439 1004 "},"Ừ":{"ha":1001,"x_min":0,"x_max":0,"o":"m 531 -17 b 104 307 272 -17 104 60 l 104 817 b 42 929 104 913 94 915 l 4 939 l 4 963 l 519 963 l 519 939 l 482 929 b 419 817 429 915 419 913 l 419 278 b 624 67 419 133 479 67 b 811 293 765 67 811 156 l 811 779 b 740 928 811 896 804 913 l 694 939 l 694 963 l 838 963 b 967 1019 921 963 967 983 b 879 1167 967 1065 879 1090 b 978 1264 879 1228 919 1264 b 1088 1132 1042 1264 1088 1224 b 865 924 1088 1019 1007 931 l 865 282 b 531 -17 865 111 769 -17 m 489 1040 b 403 1131 435 1047 403 1081 b 501 1235 403 1188 444 1235 b 586 1193 533 1235 560 1221 l 756 1018 l 750 1004 "},"Ử":{"ha":1001,"x_min":0,"x_max":0,"o":"m 578 1004 b 549 1060 565 1015 549 1029 b 604 1138 549 1097 579 1122 b 649 1196 631 1154 649 1168 b 603 1233 649 1222 626 1233 b 564 1190 576 1233 571 1219 b 496 1128 553 1140 533 1128 b 435 1179 461 1128 435 1151 b 608 1272 435 1240 519 1272 b 790 1165 735 1272 790 1229 b 697 1069 790 1117 746 1090 b 593 1010 644 1047 593 1032 l 593 1004 m 531 -17 b 104 307 272 -17 104 60 l 104 817 b 42 929 104 913 94 915 l 4 939 l 4 963 l 519 963 l 519 939 l 482 929 b 419 817 429 915 419 913 l 419 278 b 624 67 419 133 479 67 b 811 293 765 67 811 156 l 811 779 b 740 928 811 896 804 913 l 694 939 l 694 963 l 838 963 b 967 1019 921 963 967 983 b 879 1167 967 1065 879 1090 b 978 1264 879 1228 919 1264 b 1088 1132 1042 1264 1088 1224 b 865 924 1088 1019 1007 931 l 865 282 b 531 -17 865 111 769 -17 "},"Ữ":{"ha":1001,"x_min":0,"x_max":0,"o":"m 531 -17 b 104 307 272 -17 104 60 l 104 817 b 42 929 104 913 94 915 l 4 939 l 4 963 l 519 963 l 519 939 l 482 929 b 419 817 429 915 419 913 l 419 278 b 624 67 419 133 479 67 b 811 293 765 67 811 156 l 811 779 b 740 928 811 896 804 913 l 694 939 l 694 963 l 838 963 b 967 1019 921 963 967 983 b 879 1167 967 1065 879 1090 b 978 1264 879 1228 919 1264 b 1088 1132 1042 1264 1088 1224 b 865 924 1088 1019 1007 931 l 865 282 b 531 -17 865 111 769 -17 m 679 1031 b 436 1056 622 1031 497 1056 b 353 996 399 1056 379 1039 l 333 1007 b 482 1208 375 1133 411 1208 b 725 1182 540 1208 664 1182 b 808 1243 761 1182 782 1200 l 828 1232 b 679 1031 788 1106 757 1031 "},"Ự":{"ha":1001,"x_min":0,"x_max":0,"o":"m 531 -17 b 104 307 272 -17 104 60 l 104 817 b 42 929 104 913 94 915 l 4 939 l 4 963 l 519 963 l 519 939 l 482 929 b 419 817 429 915 419 913 l 419 278 b 624 67 419 133 479 67 b 811 293 765 67 811 156 l 811 779 b 740 928 811 896 804 913 l 694 939 l 694 963 l 838 963 b 967 1019 921 963 967 983 b 879 1167 967 1065 879 1090 b 978 1264 879 1228 919 1264 b 1088 1132 1042 1264 1088 1224 b 865 924 1088 1019 1007 931 l 865 282 b 531 -17 865 111 769 -17 m 400 -171 b 525 -57 400 -101 456 -57 b 650 -171 597 -57 650 -101 b 525 -285 650 -240 597 -285 b 400 -171 456 -285 400 -240 "},"V":{"ha":947,"x_min":0,"x_max":0,"o":"m 110 789 b 14 932 75 879 60 921 l -17 939 l -17 963 l 524 963 l 524 939 l 485 929 b 435 871 449 919 435 903 b 463 761 435 846 446 811 l 619 301 l 624 301 l 771 760 b 796 868 786 808 796 839 b 740 929 796 904 779 919 l 699 939 l 699 963 l 964 963 l 964 939 l 929 928 b 843 790 893 917 872 874 l 568 0 l 415 0 "},"W":{"ha":1443,"x_min":0,"x_max":0,"o":"m 1272 763 b 1293 868 1285 803 1293 836 b 1239 931 1293 907 1274 924 l 1196 939 l 1196 963 l 1464 963 l 1464 939 l 1439 932 b 1335 772 1393 919 1371 879 l 1075 0 l 922 0 l 742 564 l 739 564 l 549 0 l 385 0 l 96 808 b 13 932 64 899 54 924 l -21 939 l -21 963 l 496 963 l 496 939 l 465 931 b 414 875 433 922 414 907 b 442 761 414 844 426 807 l 597 313 l 601 313 l 714 646 l 651 840 b 578 931 635 892 619 918 l 551 939 l 551 963 l 1061 963 l 1061 939 l 1013 928 b 968 867 981 921 968 900 b 992 761 968 839 978 807 l 1129 313 l 1133 313 "},"Ŵ":{"ha":1443,"x_min":0,"x_max":0,"o":"m 561 1018 l 751 1224 l 838 1224 l 1028 1018 l 1019 1004 l 794 1065 l 569 1004 m 1272 763 b 1293 868 1285 803 1293 836 b 1239 931 1293 907 1274 924 l 1196 939 l 1196 963 l 1464 963 l 1464 939 l 1439 932 b 1335 772 1393 919 1371 879 l 1075 0 l 922 0 l 742 564 l 739 564 l 549 0 l 385 0 l 96 808 b 13 932 64 899 54 924 l -21 939 l -21 963 l 496 963 l 496 939 l 465 931 b 414 875 433 922 414 907 b 442 761 414 844 426 807 l 597 313 l 601 313 l 714 646 l 651 840 b 578 931 635 892 619 918 l 551 939 l 551 963 l 1061 963 l 1061 939 l 1013 928 b 968 867 981 921 968 900 b 992 761 968 839 978 807 l 1129 313 l 1133 313 "},"Ẁ":{"ha":1443,"x_min":0,"x_max":0,"o":"m 668 1040 b 582 1131 614 1047 582 1081 b 681 1235 582 1188 624 1235 b 765 1193 713 1235 739 1221 l 935 1018 l 929 1004 m 1272 763 b 1293 868 1285 803 1293 836 b 1239 931 1293 907 1274 924 l 1196 939 l 1196 963 l 1464 963 l 1464 939 l 1439 932 b 1335 772 1393 919 1371 879 l 1075 0 l 922 0 l 742 564 l 739 564 l 549 0 l 385 0 l 96 808 b 13 932 64 899 54 924 l -21 939 l -21 963 l 496 963 l 496 939 l 465 931 b 414 875 433 922 414 907 b 442 761 414 844 426 807 l 597 313 l 601 313 l 714 646 l 651 840 b 578 931 635 892 619 918 l 551 939 l 551 963 l 1061 963 l 1061 939 l 1013 928 b 968 867 981 921 968 900 b 992 761 968 839 978 807 l 1129 313 l 1133 313 "},"Ẃ":{"ha":1443,"x_min":0,"x_max":0,"o":"m 649 1018 l 818 1193 b 903 1235 844 1221 871 1235 b 1001 1131 960 1235 1001 1188 b 915 1040 1001 1081 969 1047 l 654 1004 m 1272 763 b 1293 868 1285 803 1293 836 b 1239 931 1293 907 1274 924 l 1196 939 l 1196 963 l 1464 963 l 1464 939 l 1439 932 b 1335 772 1393 919 1371 879 l 1075 0 l 922 0 l 742 564 l 739 564 l 549 0 l 385 0 l 96 808 b 13 932 64 899 54 924 l -21 939 l -21 963 l 496 963 l 496 939 l 465 931 b 414 875 433 922 414 907 b 442 761 414 844 426 807 l 597 313 l 601 313 l 714 646 l 651 840 b 578 931 635 892 619 918 l 551 939 l 551 963 l 1061 963 l 1061 939 l 1013 928 b 968 867 981 921 968 900 b 992 761 968 839 978 807 l 1129 313 l 1133 313 "},"Ẅ":{"ha":1443,"x_min":0,"x_max":0,"o":"m 638 999 b 514 1118 571 999 514 1042 b 638 1236 514 1193 571 1236 b 763 1118 707 1236 763 1193 b 638 999 763 1042 707 999 m 944 999 b 821 1118 878 999 821 1042 b 944 1236 821 1193 878 1236 b 1069 1118 1014 1236 1069 1193 b 944 999 1069 1042 1014 999 m 1272 763 b 1293 868 1285 803 1293 836 b 1239 931 1293 907 1274 924 l 1196 939 l 1196 963 l 1464 963 l 1464 939 l 1439 932 b 1335 772 1393 919 1371 879 l 1075 0 l 922 0 l 742 564 l 739 564 l 549 0 l 385 0 l 96 808 b 13 932 64 899 54 924 l -21 939 l -21 963 l 496 963 l 496 939 l 465 931 b 414 875 433 922 414 907 b 442 761 414 844 426 807 l 597 313 l 601 313 l 714 646 l 651 840 b 578 931 635 892 619 918 l 551 939 l 551 963 l 1061 963 l 1061 939 l 1013 928 b 968 867 981 921 968 900 b 992 761 968 839 978 807 l 1129 313 l 1133 313 "},"X":{"ha":988,"x_min":0,"x_max":0,"o":"m 621 582 l 624 582 l 728 778 b 763 876 751 821 763 851 b 704 931 763 901 744 922 l 667 939 l 667 963 l 967 963 l 967 939 l 943 932 b 814 797 897 919 872 892 l 653 536 l 879 133 b 975 31 932 39 946 42 l 993 24 l 993 0 l 436 0 l 436 24 l 486 33 b 532 83 518 39 532 57 b 494 182 532 107 519 138 l 379 397 l 376 397 l 261 200 b 210 81 229 147 210 107 b 258 33 210 53 226 40 l 304 24 l 304 0 l -6 0 l -6 24 l 13 29 b 157 156 63 44 100 71 l 349 442 l 129 829 b 36 929 96 889 82 910 l 13 939 l 13 963 l 575 963 l 575 939 l 525 928 b 479 882 494 921 479 906 b 517 779 479 858 486 832 "},"Y":{"ha":911,"x_min":0,"x_max":0,"o":"m 207 24 l 249 33 b 321 146 313 49 321 51 l 321 417 l 97 814 b 6 931 44 907 39 919 l -19 939 l -19 963 l 536 963 l 536 939 l 493 929 b 429 868 451 919 429 901 b 453 786 429 847 435 821 l 607 486 l 611 486 l 732 771 b 756 864 747 807 756 839 b 696 929 756 896 739 917 l 661 939 l 661 963 l 922 963 l 922 939 l 896 931 b 807 803 865 921 849 894 l 636 425 l 636 146 b 708 33 636 51 644 49 l 750 24 l 750 0 l 207 0 "},"Ý":{"ha":911,"x_min":0,"x_max":0,"o":"m 407 1018 l 576 1193 b 661 1235 603 1221 629 1235 b 760 1131 718 1235 760 1188 b 674 1040 760 1081 728 1047 l 413 1004 m 207 24 l 249 33 b 321 146 313 49 321 51 l 321 417 l 97 814 b 6 931 44 907 39 919 l -19 939 l -19 963 l 536 963 l 536 939 l 493 929 b 429 868 451 919 429 901 b 453 786 429 847 435 821 l 607 486 l 611 486 l 732 771 b 756 864 747 807 756 839 b 696 929 756 896 739 917 l 661 939 l 661 963 l 922 963 l 922 939 l 896 931 b 807 803 865 921 849 894 l 636 425 l 636 146 b 708 33 636 51 644 49 l 750 24 l 750 0 l 207 0 "},"Ŷ":{"ha":911,"x_min":0,"x_max":0,"o":"m 314 1018 l 504 1224 l 590 1224 l 781 1018 l 772 1004 l 547 1065 l 322 1004 m 207 24 l 249 33 b 321 146 313 49 321 51 l 321 417 l 97 814 b 6 931 44 907 39 919 l -19 939 l -19 963 l 536 963 l 536 939 l 493 929 b 429 868 451 919 429 901 b 453 786 429 847 435 821 l 607 486 l 611 486 l 732 771 b 756 864 747 807 756 839 b 696 929 756 896 739 917 l 661 939 l 661 963 l 922 963 l 922 939 l 896 931 b 807 803 865 921 849 894 l 636 425 l 636 146 b 708 33 636 51 644 49 l 750 24 l 750 0 l 207 0 "},"Ÿ":{"ha":911,"x_min":0,"x_max":0,"o":"m 394 999 b 271 1118 328 999 271 1042 b 394 1236 271 1193 328 1236 b 519 1118 464 1236 519 1193 b 394 999 519 1042 464 999 m 701 999 b 578 1118 635 999 578 1042 b 701 1236 578 1193 635 1236 b 826 1118 771 1236 826 1193 b 701 999 826 1042 771 999 m 207 24 l 249 33 b 321 146 313 49 321 51 l 321 417 l 97 814 b 6 931 44 907 39 919 l -19 939 l -19 963 l 536 963 l 536 939 l 493 929 b 429 868 451 919 429 901 b 453 786 429 847 435 821 l 607 486 l 611 486 l 732 771 b 756 864 747 807 756 839 b 696 929 756 896 739 917 l 661 939 l 661 963 l 922 963 l 922 939 l 896 931 b 807 803 865 921 849 894 l 636 425 l 636 146 b 708 33 636 51 644 49 l 750 24 l 750 0 l 207 0 "},"Ỳ":{"ha":911,"x_min":0,"x_max":0,"o":"m 425 1040 b 339 1131 371 1047 339 1081 b 438 1235 339 1188 381 1235 b 522 1193 469 1235 496 1221 l 692 1018 l 686 1004 m 207 24 l 249 33 b 321 146 313 49 321 51 l 321 417 l 97 814 b 6 931 44 907 39 919 l -19 939 l -19 963 l 536 963 l 536 939 l 493 929 b 429 868 451 919 429 901 b 453 786 429 847 435 821 l 607 486 l 611 486 l 732 771 b 756 864 747 807 756 839 b 696 929 756 896 739 917 l 661 939 l 661 963 l 922 963 l 922 939 l 896 931 b 807 803 865 921 849 894 l 636 425 l 636 146 b 708 33 636 51 644 49 l 750 24 l 750 0 l 207 0 "},"Ỵ":{"ha":911,"x_min":0,"x_max":0,"o":"m 207 24 l 249 33 b 321 146 313 49 321 51 l 321 417 l 97 814 b 6 931 44 907 39 919 l -19 939 l -19 963 l 536 963 l 536 939 l 493 929 b 429 868 451 919 429 901 b 453 786 429 847 435 821 l 607 486 l 611 486 l 732 771 b 756 864 747 807 756 839 b 696 929 756 896 739 917 l 661 939 l 661 963 l 922 963 l 922 939 l 896 931 b 807 803 865 921 849 894 l 636 425 l 636 146 b 708 33 636 51 644 49 l 750 24 l 750 0 l 207 0 m 346 -171 b 471 -57 346 -101 401 -57 b 596 -171 543 -57 596 -101 b 471 -285 596 -240 543 -285 b 346 -171 401 -285 346 -240 "},"Ỷ":{"ha":911,"x_min":0,"x_max":0,"o":"m 558 1004 b 529 1060 546 1015 529 1029 b 585 1138 529 1097 560 1122 b 629 1196 611 1154 629 1168 b 583 1233 629 1222 607 1233 b 544 1190 557 1233 551 1219 b 476 1128 533 1140 514 1128 b 415 1179 442 1128 415 1151 b 589 1272 415 1240 500 1272 b 771 1165 715 1272 771 1229 b 678 1069 771 1117 726 1090 b 574 1010 625 1047 574 1032 l 574 1004 m 207 24 l 249 33 b 321 146 313 49 321 51 l 321 417 l 97 814 b 6 931 44 907 39 919 l -19 939 l -19 963 l 536 963 l 536 939 l 493 929 b 429 868 451 919 429 901 b 453 786 429 847 435 821 l 607 486 l 611 486 l 732 771 b 756 864 747 807 756 839 b 696 929 756 896 739 917 l 661 939 l 661 963 l 922 963 l 922 939 l 896 931 b 807 803 865 921 849 894 l 636 425 l 636 146 b 708 33 636 51 644 49 l 750 24 l 750 0 l 207 0 "},"Ỹ":{"ha":911,"x_min":0,"x_max":0,"o":"m 674 1031 b 431 1056 617 1031 492 1056 b 347 996 393 1056 374 1039 l 328 1007 b 476 1208 369 1133 406 1208 b 719 1182 535 1208 658 1182 b 803 1243 756 1182 776 1200 l 822 1232 b 674 1031 782 1106 751 1031 m 207 24 l 249 33 b 321 146 313 49 321 51 l 321 417 l 97 814 b 6 931 44 907 39 919 l -19 939 l -19 963 l 536 963 l 536 939 l 493 929 b 429 868 451 919 429 901 b 453 786 429 847 435 821 l 607 486 l 611 486 l 732 771 b 756 864 747 807 756 839 b 696 929 756 896 739 917 l 661 939 l 661 963 l 922 963 l 922 939 l 896 931 b 807 803 865 921 849 894 l 636 425 l 636 146 b 708 33 636 51 644 49 l 750 24 l 750 0 l 207 0 "},"Z":{"ha":885,"x_min":0,"x_max":0,"o":"m 24 49 l 490 914 l 490 918 l 453 918 b 232 850 306 918 272 907 b 106 608 192 793 156 725 l 76 608 l 97 963 l 843 963 l 843 914 l 371 50 l 371 44 l 417 44 b 682 132 600 44 628 57 b 817 379 729 197 769 281 l 847 379 l 819 0 l 24 0 "},"Ź":{"ha":885,"x_min":0,"x_max":0,"o":"m 339 1018 l 508 1193 b 593 1235 535 1221 561 1235 b 692 1131 650 1235 692 1188 b 606 1040 692 1081 660 1047 l 344 1004 m 24 49 l 490 914 l 490 918 l 453 918 b 232 850 306 918 272 907 b 106 608 192 793 156 725 l 76 608 l 97 963 l 843 963 l 843 914 l 371 50 l 371 44 l 417 44 b 682 132 600 44 628 57 b 817 379 729 197 769 281 l 847 379 l 819 0 l 24 0 "},"Ż":{"ha":885,"x_min":0,"x_max":0,"o":"m 481 1004 b 346 1128 406 1004 346 1051 b 481 1251 346 1203 406 1251 b 615 1128 557 1251 615 1203 b 481 1004 615 1051 557 1004 m 24 49 l 490 914 l 490 918 l 453 918 b 232 850 306 918 272 907 b 106 608 192 793 156 725 l 76 608 l 97 963 l 843 963 l 843 914 l 371 50 l 371 44 l 417 44 b 682 132 600 44 628 57 b 817 379 729 197 769 281 l 847 379 l 819 0 l 24 0 "},"Ž":{"ha":885,"x_min":0,"x_max":0,"o":"m 492 1174 l 717 1235 l 725 1221 l 535 1015 l 449 1015 l 258 1221 l 267 1235 m 24 49 l 490 914 l 490 918 l 453 918 b 232 850 306 918 272 907 b 106 608 192 793 156 725 l 76 608 l 97 963 l 843 963 l 843 914 l 371 50 l 371 44 l 417 44 b 682 132 600 44 628 57 b 817 379 729 197 769 281 l 847 379 l 819 0 l 24 0 "},"Æ":{"ha":1281,"x_min":0,"x_max":0,"o":"m -11 24 l 22 33 b 153 182 75 49 93 71 l 529 885 b 454 929 515 906 493 919 l 417 939 l 417 963 l 1217 963 l 1229 647 l 1203 647 b 1110 832 1167 732 1140 783 b 951 915 1068 899 1032 915 b 854 907 901 915 869 911 l 854 521 l 886 521 b 1008 563 979 521 993 533 b 1054 690 1028 600 1043 644 l 1079 690 l 1079 300 l 1054 300 b 1008 433 1044 343 1029 392 b 885 476 992 465 976 476 l 854 476 l 854 140 b 956 47 854 65 863 47 b 1126 140 1061 47 1081 67 b 1236 369 1167 207 1196 267 l 1264 369 l 1244 0 l 444 0 l 444 24 l 482 33 b 543 146 533 47 543 50 l 543 303 l 276 303 l 225 201 b 183 82 199 149 183 113 b 249 33 183 58 203 49 l 279 24 l 279 0 l -11 0 m 301 350 l 543 350 l 543 819 l 540 819 "},"Ǽ":{"ha":1281,"x_min":0,"x_max":0,"o":"m 731 1018 l 900 1193 b 985 1235 926 1221 953 1235 b 1083 1131 1042 1235 1083 1188 b 997 1040 1083 1081 1051 1047 l 736 1004 m -10 24 l 24 33 b 154 182 76 49 94 71 l 531 885 b 456 929 517 906 494 919 l 418 939 l 418 963 l 1218 963 l 1231 647 l 1204 647 b 1111 832 1168 732 1142 783 b 953 915 1069 899 1033 915 b 856 907 903 915 871 911 l 856 521 l 888 521 b 1010 563 981 521 994 533 b 1056 690 1029 600 1044 644 l 1081 690 l 1081 300 l 1056 300 b 1010 433 1046 343 1031 392 b 886 476 993 465 978 476 l 856 476 l 856 140 b 957 47 856 65 864 47 b 1128 140 1063 47 1082 67 b 1238 369 1168 207 1197 267 l 1265 369 l 1246 0 l 446 0 l 446 24 l 483 33 b 544 146 535 47 544 50 l 544 303 l 278 303 l 226 201 b 185 82 200 149 185 113 b 250 33 185 58 204 49 l 281 24 l 281 0 l -10 0 m 303 350 l 544 350 l 544 819 l 542 819 "},"Ð":{"ha":1036,"x_min":0,"x_max":0,"o":"m 7 24 l 44 33 b 106 146 96 47 106 50 l 106 458 l 26 458 l 26 503 l 106 503 l 106 817 b 44 929 106 913 96 915 l 7 939 l 7 963 l 518 963 b 1010 503 826 963 1010 814 b 513 0 1010 193 824 0 l 7 0 m 494 50 b 679 467 613 50 679 176 b 492 911 679 828 610 911 b 422 903 461 911 442 908 l 422 503 l 575 503 l 575 458 l 422 458 l 422 136 b 494 50 422 63 443 50 "},"Ø":{"ha":1033,"x_min":0,"x_max":0,"o":"m 196 85 b 26 469 96 163 26 289 b 521 979 26 839 300 979 b 801 910 619 979 718 958 l 878 1014 l 932 1014 l 838 885 b 1007 493 938 810 1007 685 b 513 -17 1007 121 733 -17 b 232 60 414 -17 315 7 l 136 -71 l 82 -71 m 349 503 b 356 303 349 425 351 358 l 668 729 b 515 939 644 893 593 939 b 349 503 414 939 349 850 m 518 24 b 683 460 626 24 683 114 b 676 665 683 540 681 608 l 363 238 b 518 24 386 71 438 24 "},"Ǿ":{"ha":1033,"x_min":0,"x_max":0,"o":"m 351 1018 l 521 1193 b 606 1235 547 1221 574 1235 b 704 1131 663 1235 704 1188 b 618 1040 704 1081 672 1047 l 357 1004 m 196 85 b 26 469 96 163 26 289 b 521 979 26 839 300 979 b 801 910 619 979 718 958 l 878 1014 l 932 1014 l 838 885 b 1007 493 938 810 1007 685 b 513 -17 1007 121 733 -17 b 232 60 414 -17 315 7 l 136 -71 l 82 -71 m 349 503 b 356 303 349 425 351 358 l 668 729 b 515 939 644 893 593 939 b 349 503 414 939 349 850 m 518 24 b 683 460 626 24 683 114 b 676 665 683 540 681 608 l 363 238 b 518 24 386 71 438 24 "},"Þ":{"ha":938,"x_min":0,"x_max":0,"o":"m 526 963 l 526 939 l 485 929 b 422 817 429 918 422 911 l 422 774 l 506 774 b 922 499 782 774 922 693 b 563 208 922 356 821 208 b 453 221 506 208 469 215 l 453 253 b 601 488 583 261 601 308 b 488 725 601 686 572 725 b 422 718 454 725 438 722 l 422 146 b 489 38 422 53 432 49 l 563 24 l 563 0 l 7 0 l 7 24 l 44 33 b 106 146 96 47 106 50 l 106 817 b 44 929 106 913 96 915 l 7 939 l 7 963 "},"Đ":{"ha":1036,"x_min":0,"x_max":0,"o":"m 36 507 l 106 507 l 106 817 b 44 929 106 913 96 915 l 7 939 l 7 963 l 518 963 b 1010 503 826 963 1010 814 b 513 0 1010 193 824 0 l 7 0 l 7 24 l 44 33 b 106 146 96 47 106 50 l 106 456 l 36 456 m 494 46 b 679 467 613 46 679 176 b 492 915 679 828 610 915 b 422 907 461 915 442 913 l 424 507 l 572 507 l 572 456 l 424 456 l 422 132 b 494 46 422 58 443 46 "},"Ħ":{"ha":1090,"x_min":0,"x_max":0,"o":"m 7 24 l 44 33 b 106 146 96 47 106 50 l 106 692 l 13 692 l 13 735 l 106 735 l 106 817 b 44 929 106 913 96 915 l 7 939 l 7 963 l 517 963 l 517 939 l 483 929 b 422 817 429 914 422 911 l 422 735 l 668 735 l 668 817 b 607 929 668 911 661 914 l 574 939 l 574 963 l 1083 963 l 1083 939 l 1046 929 b 985 817 994 915 985 913 l 985 735 l 1093 735 l 1093 692 l 985 692 l 985 146 b 1046 33 985 50 994 47 l 1083 24 l 1083 0 l 574 0 l 574 24 l 607 33 b 668 146 660 49 668 51 l 668 468 l 422 468 l 422 146 b 483 33 422 51 431 49 l 517 24 l 517 0 l 7 0 m 668 518 l 668 692 l 422 692 l 422 518 "},"Ĳ":{"ha":1276,"x_min":0,"x_max":0,"o":"m 7 24 l 49 33 b 110 146 101 46 110 50 l 110 817 b 49 929 110 913 101 917 l 7 939 l 7 963 l 526 963 l 526 939 l 488 929 b 426 817 435 917 426 913 l 426 146 b 488 33 426 50 435 46 l 529 24 l 529 0 l 7 0 m 779 -14 b 514 154 604 -14 514 61 b 640 274 514 233 563 274 b 781 65 726 274 771 240 b 808 32 782 38 792 32 b 854 128 833 32 854 54 l 854 817 b 796 929 854 913 847 918 l 756 939 l 756 963 l 1269 963 l 1269 939 l 1231 929 b 1171 817 1176 915 1171 913 l 1171 354 b 779 -14 1171 136 1022 -14 "},"Ŀ":{"ha":833,"x_min":0,"x_max":0,"o":"m 7 24 l 44 33 b 106 146 96 47 106 50 l 106 817 b 44 929 106 913 96 915 l 7 939 l 7 963 l 529 963 l 529 939 l 483 929 b 422 817 429 918 422 913 l 422 136 b 519 46 422 63 432 46 b 700 135 624 46 649 60 b 796 321 735 185 765 247 l 824 321 l 800 0 l 7 0 m 690 400 b 557 532 617 400 557 458 b 690 664 557 610 617 664 b 824 532 760 664 824 610 b 690 400 824 458 760 400 "},"Ł":{"ha":833,"x_min":0,"x_max":0,"o":"m 7 24 l 44 33 b 106 146 96 47 106 50 l 106 358 l 7 326 l 7 372 l 106 404 l 106 817 b 44 929 106 913 96 915 l 7 939 l 7 963 l 529 963 l 529 939 l 483 929 b 422 817 429 918 422 913 l 422 508 l 679 592 l 679 546 l 422 463 l 422 139 b 519 49 422 65 432 49 b 685 135 624 49 639 58 b 800 388 718 190 758 282 l 828 388 l 800 0 l 7 0 "},"Ŋ":{"ha":939,"x_min":0,"x_max":0,"o":"m 165 793 l 160 793 l 160 183 b 232 33 160 67 165 49 l 275 24 l 275 0 l 7 0 l 7 24 l 44 33 b 106 174 96 47 106 64 l 106 817 b 44 929 106 893 93 917 l 7 939 l 7 963 l 415 963 l 772 490 l 778 490 l 778 779 b 707 928 778 896 774 911 l 661 939 l 661 963 l 932 963 l 932 939 l 893 929 b 832 789 842 917 832 899 l 832 -12 b 617 -264 832 -174 768 -264 b 424 -119 478 -264 424 -194 b 524 -29 424 -68 463 -29 b 642 -165 593 -29 619 -61 b 678 -208 649 -196 656 -208 b 772 -39 717 -208 771 -162 "},"Œ":{"ha":1385,"x_min":0,"x_max":0,"o":"m 526 0 b 26 469 247 0 26 122 b 536 963 26 824 271 963 l 1321 963 l 1333 647 l 1307 647 b 1214 832 1271 732 1244 783 b 1056 915 1172 899 1136 915 b 953 907 1000 915 968 911 l 953 521 l 990 521 b 1113 563 1083 521 1097 533 b 1158 690 1132 600 1147 644 l 1183 690 l 1183 300 l 1158 300 b 1113 433 1149 343 1133 392 b 989 476 1096 465 1081 476 l 953 476 l 953 140 b 1060 47 953 65 961 47 b 1231 140 1165 47 1185 67 b 1340 369 1271 207 1300 267 l 1368 369 l 1349 0 m 538 46 b 636 169 624 46 636 94 l 636 801 b 528 918 636 882 613 918 b 356 503 431 918 356 814 b 538 46 356 169 393 46 "},"Ŧ":{"ha":914,"x_min":0,"x_max":0,"o":"m 293 542 l 293 917 l 264 917 b 161 849 215 917 192 894 b 39 599 131 803 85 704 l 11 599 l 22 963 l 881 963 l 892 599 l 864 599 b 743 849 821 704 774 803 b 639 917 707 901 693 917 l 610 917 l 610 542 l 806 542 l 806 490 l 610 490 l 610 146 b 682 33 610 51 618 49 l 724 24 l 724 0 l 179 0 l 179 24 l 221 33 b 293 146 285 49 293 51 l 293 490 l 103 490 l 103 542 "},"a":{"ha":758,"x_min":0,"x_max":0,"o":"m 214 -17 b 13 157 90 -17 13 49 b 240 358 13 290 122 326 l 399 401 l 399 535 b 328 707 399 663 385 707 b 272 650 293 707 275 700 b 153 500 265 531 236 500 b 40 590 78 500 40 532 b 379 749 40 685 142 749 b 672 550 557 749 672 697 l 672 169 b 703 75 672 108 676 89 b 765 61 721 65 753 61 l 765 40 b 578 -17 736 18 678 -17 b 414 74 490 -17 435 15 l 408 74 b 214 -17 371 29 318 -17 m 347 88 b 399 113 371 88 389 96 l 399 344 l 367 342 b 279 213 304 338 279 310 b 347 88 279 117 310 88 "},"à":{"ha":758,"x_min":0,"x_max":0,"o":"m 249 842 b 171 931 193 850 171 890 b 265 1036 171 988 214 1036 b 356 993 304 1036 328 1022 l 521 814 l 515 800 m 214 -17 b 13 157 90 -17 13 49 b 240 358 13 290 122 326 l 399 401 l 399 535 b 328 707 399 663 385 707 b 272 650 293 707 275 700 b 153 500 265 531 236 500 b 40 590 78 500 40 532 b 379 749 40 685 142 749 b 672 550 557 749 672 697 l 672 169 b 703 75 672 108 676 89 b 765 61 721 65 753 61 l 765 40 b 578 -17 736 18 678 -17 b 414 74 490 -17 435 15 l 408 74 b 214 -17 371 29 318 -17 m 347 88 b 399 113 371 88 389 96 l 399 344 l 367 342 b 279 213 304 338 279 310 b 347 88 279 117 310 88 "},"á":{"ha":758,"x_min":0,"x_max":0,"o":"m 208 814 l 374 993 b 464 1036 401 1022 425 1036 b 558 931 515 1036 558 988 b 481 842 558 890 536 850 l 214 800 m 214 -17 b 13 157 90 -17 13 49 b 240 358 13 290 122 326 l 399 401 l 399 535 b 328 707 399 663 385 707 b 272 650 293 707 275 700 b 153 500 265 531 236 500 b 40 590 78 500 40 532 b 379 749 40 685 142 749 b 672 550 557 749 672 697 l 672 169 b 703 75 672 108 676 89 b 765 61 721 65 753 61 l 765 40 b 578 -17 736 18 678 -17 b 414 74 490 -17 435 15 l 408 74 b 214 -17 371 29 318 -17 m 347 88 b 399 113 371 88 389 96 l 399 344 l 367 342 b 279 213 304 338 279 310 b 347 88 279 117 310 88 "},"â":{"ha":758,"x_min":0,"x_max":0,"o":"m 574 807 l 567 794 l 363 872 l 158 794 l 151 807 l 322 1031 l 403 1031 m 214 -17 b 13 157 90 -17 13 49 b 240 358 13 290 122 326 l 399 401 l 399 535 b 328 707 399 663 385 707 b 272 650 293 707 275 700 b 153 500 265 531 236 500 b 40 590 78 500 40 532 b 379 749 40 685 142 749 b 672 550 557 749 672 697 l 672 169 b 703 75 672 108 676 89 b 765 61 721 65 753 61 l 765 40 b 578 -17 736 18 678 -17 b 414 74 490 -17 435 15 l 408 74 b 214 -17 371 29 318 -17 m 347 88 b 399 113 371 88 389 96 l 399 344 l 367 342 b 279 213 304 338 279 310 b 347 88 279 117 310 88 "},"ã":{"ha":758,"x_min":0,"x_max":0,"o":"m 149 801 b 297 1003 190 928 226 1003 b 513 976 356 1003 451 976 b 596 1038 549 976 569 994 l 615 1026 b 467 825 575 900 544 825 b 251 850 410 825 313 850 b 168 790 214 850 194 833 m 214 -17 b 13 157 90 -17 13 49 b 240 358 13 290 122 326 l 399 401 l 399 535 b 328 707 399 663 385 707 b 272 650 293 707 275 700 b 153 500 265 531 236 500 b 40 590 78 500 40 532 b 379 749 40 685 142 749 b 672 550 557 749 672 697 l 672 169 b 703 75 672 108 676 89 b 765 61 721 65 753 61 l 765 40 b 578 -17 736 18 678 -17 b 414 74 490 -17 435 15 l 408 74 b 214 -17 371 29 318 -17 m 347 88 b 399 113 371 88 389 96 l 399 344 l 367 342 b 279 213 304 338 279 310 b 347 88 279 117 310 88 "},"ä":{"ha":758,"x_min":0,"x_max":0,"o":"m 89 911 b 213 1029 89 986 146 1029 b 338 911 282 1029 338 986 b 213 792 338 835 282 792 b 89 911 146 792 89 835 m 385 911 b 508 1029 385 986 442 1029 b 633 911 578 1029 633 986 b 508 792 633 835 578 792 b 385 911 442 792 385 835 m 214 -17 b 13 157 90 -17 13 49 b 240 358 13 290 122 326 l 399 401 l 399 535 b 328 707 399 663 385 707 b 272 650 293 707 275 700 b 153 500 265 531 236 500 b 40 590 78 500 40 532 b 379 749 40 685 142 749 b 672 550 557 749 672 697 l 672 169 b 703 75 672 108 676 89 b 765 61 721 65 753 61 l 765 40 b 578 -17 736 18 678 -17 b 414 74 490 -17 435 15 l 408 74 b 214 -17 371 29 318 -17 m 347 88 b 399 113 371 88 389 96 l 399 344 l 367 342 b 279 213 304 338 279 310 b 347 88 279 117 310 88 "},"å":{"ha":758,"x_min":0,"x_max":0,"o":"m 226 910 b 358 1036 226 983 289 1036 b 490 910 428 1036 490 983 b 358 783 490 836 428 783 b 226 910 289 783 226 836 m 279 910 b 358 822 279 860 308 822 b 438 910 408 822 438 860 b 358 997 438 960 408 997 b 279 910 308 997 279 960 m 214 -17 b 13 157 90 -17 13 49 b 240 358 13 290 122 326 l 399 401 l 399 535 b 328 707 399 663 385 707 b 272 650 293 707 275 700 b 153 500 265 531 236 500 b 40 590 78 500 40 532 b 379 749 40 685 142 749 b 672 550 557 749 672 697 l 672 169 b 703 75 672 108 676 89 b 765 61 721 65 753 61 l 765 40 b 578 -17 736 18 678 -17 b 414 74 490 -17 435 15 l 408 74 b 214 -17 371 29 318 -17 m 347 88 b 399 113 371 88 389 96 l 399 344 l 367 342 b 279 213 304 338 279 310 b 347 88 279 117 310 88 "},"ā":{"ha":758,"x_min":0,"x_max":0,"o":"m 168 949 l 568 949 l 568 853 l 168 853 m 214 -17 b 13 157 90 -17 13 49 b 240 358 13 290 122 326 l 399 401 l 399 535 b 328 707 399 663 385 707 b 272 650 293 707 275 700 b 153 500 265 531 236 500 b 40 590 78 500 40 532 b 379 749 40 685 142 749 b 672 550 557 749 672 697 l 672 169 b 703 75 672 108 676 89 b 765 61 721 65 753 61 l 765 40 b 578 -17 736 18 678 -17 b 414 74 490 -17 435 15 l 408 74 b 214 -17 371 29 318 -17 m 347 88 b 399 113 371 88 389 96 l 399 344 l 367 342 b 279 213 304 338 279 310 b 347 88 279 117 310 88 "},"ă":{"ha":758,"x_min":0,"x_max":0,"o":"m 367 797 b 182 1018 261 797 204 893 l 197 1024 b 368 943 231 963 282 943 b 539 1024 449 943 503 963 l 554 1018 b 367 797 536 893 475 797 m 214 -17 b 13 157 90 -17 13 49 b 240 358 13 290 122 326 l 399 401 l 399 535 b 328 707 399 663 385 707 b 272 650 293 707 275 700 b 153 500 265 531 236 500 b 40 590 78 500 40 532 b 379 749 40 685 142 749 b 672 550 557 749 672 697 l 672 169 b 703 75 672 108 676 89 b 765 61 721 65 753 61 l 765 40 b 578 -17 736 18 678 -17 b 414 74 490 -17 435 15 l 408 74 b 214 -17 371 29 318 -17 m 347 88 b 399 113 371 88 389 96 l 399 344 l 367 342 b 279 213 304 338 279 310 b 347 88 279 117 310 88 "},"ą":{"ha":758,"x_min":0,"x_max":0,"o":"m 461 -176 b 658 -7 461 -101 525 -56 b 575 -17 631 -12 600 -17 b 414 74 492 -17 435 15 l 408 74 b 214 -17 371 29 318 -17 b 13 157 90 -17 13 49 b 240 358 13 290 122 326 l 399 401 l 399 535 b 328 707 399 663 385 707 b 272 650 293 707 275 700 b 153 500 265 531 236 500 b 40 590 78 500 40 532 b 379 749 40 685 142 749 b 672 550 557 749 672 697 l 672 169 b 703 75 672 108 676 89 b 765 61 721 65 753 61 l 765 43 b 636 -144 668 -36 636 -87 b 699 -215 636 -194 657 -215 b 735 -211 711 -215 722 -214 l 735 -232 b 608 -285 710 -258 675 -285 b 461 -176 511 -285 461 -242 m 347 88 b 399 113 371 88 389 96 l 399 344 l 367 342 b 279 213 304 338 279 310 b 347 88 279 117 310 88 "},"ǻ":{"ha":758,"x_min":0,"x_max":0,"o":"m 188 1074 l 357 1249 b 442 1290 383 1276 410 1290 b 540 1186 499 1290 540 1243 b 454 1096 540 1136 508 1103 l 193 1060 m 231 917 b 363 1043 231 990 293 1043 b 494 917 432 1043 494 990 b 363 790 494 843 432 790 b 231 917 293 790 231 843 m 283 917 b 363 829 283 867 313 829 b 442 917 413 829 442 867 b 363 1004 442 967 413 1004 b 283 917 313 1004 283 967 m 214 -17 b 13 157 90 -17 13 49 b 240 358 13 290 122 326 l 399 401 l 399 535 b 328 707 399 663 385 707 b 272 650 293 707 275 700 b 153 500 265 531 236 500 b 40 590 78 500 40 532 b 379 749 40 685 142 749 b 672 550 557 749 672 697 l 672 169 b 703 75 672 108 676 89 b 765 61 721 65 753 61 l 765 40 b 578 -17 736 18 678 -17 b 414 74 490 -17 435 15 l 408 74 b 214 -17 371 29 318 -17 m 347 88 b 399 113 371 88 389 96 l 399 344 l 367 342 b 279 213 304 338 279 310 b 347 88 279 117 310 88 "},"ạ":{"ha":758,"x_min":0,"x_max":0,"o":"m 214 -17 b 13 157 90 -17 13 49 b 240 358 13 290 122 326 l 399 401 l 399 535 b 328 707 399 663 385 707 b 272 650 293 707 275 700 b 153 500 265 531 236 500 b 40 590 78 500 40 532 b 379 749 40 685 142 749 b 672 550 557 749 672 697 l 672 169 b 703 75 672 108 676 89 b 765 61 721 65 753 61 l 765 40 b 578 -17 736 18 678 -17 b 414 74 490 -17 435 15 l 408 74 b 214 -17 371 29 318 -17 m 347 88 b 399 113 371 88 389 96 l 399 344 l 367 342 b 279 213 304 338 279 310 b 347 88 279 117 310 88 m 240 -171 b 365 -57 240 -101 296 -57 b 490 -171 438 -57 490 -101 b 365 -285 490 -240 438 -285 b 240 -171 296 -285 240 -240 "},"ả":{"ha":758,"x_min":0,"x_max":0,"o":"m 353 807 b 324 863 340 818 324 832 b 379 940 324 900 354 925 b 424 999 406 957 424 971 b 378 1036 424 1025 401 1036 b 339 993 351 1036 346 1022 b 271 931 328 943 308 931 b 210 982 236 931 210 954 b 383 1075 210 1043 294 1075 b 565 968 510 1075 565 1032 b 472 872 565 919 521 893 b 368 813 419 850 368 835 l 368 807 m 214 -17 b 13 157 90 -17 13 49 b 240 358 13 290 122 326 l 399 401 l 399 535 b 328 707 399 663 385 707 b 272 650 293 707 275 700 b 153 500 265 531 236 500 b 40 590 78 500 40 532 b 379 749 40 685 142 749 b 672 550 557 749 672 697 l 672 169 b 703 75 672 108 676 89 b 765 61 721 65 753 61 l 765 40 b 578 -17 736 18 678 -17 b 414 74 490 -17 435 15 l 408 74 b 214 -17 371 29 318 -17 m 347 88 b 399 113 371 88 389 96 l 399 344 l 367 342 b 279 213 304 338 279 310 b 347 88 279 117 310 88 "},"ấ":{"ha":758,"x_min":0,"x_max":0,"o":"m 506 951 l 558 1114 b 633 1183 574 1160 594 1183 b 719 1103 676 1183 719 1147 b 658 1021 719 1067 696 1040 l 513 944 m 576 807 l 569 794 l 365 872 l 161 794 l 154 807 l 325 1031 l 406 1031 m 214 -17 b 13 157 90 -17 13 49 b 240 358 13 290 122 326 l 399 401 l 399 535 b 328 707 399 663 385 707 b 272 650 293 707 275 700 b 153 500 265 531 236 500 b 40 590 78 500 40 532 b 379 749 40 685 142 749 b 672 550 557 749 672 697 l 672 169 b 703 75 672 108 676 89 b 765 61 721 65 753 61 l 765 40 b 578 -17 736 18 678 -17 b 414 74 490 -17 435 15 l 408 74 b 214 -17 371 29 318 -17 m 347 88 b 399 113 371 88 389 96 l 399 344 l 367 342 b 279 213 304 338 279 310 b 347 88 279 117 310 88 "},"ầ":{"ha":758,"x_min":0,"x_max":0,"o":"m 494 1021 b 433 1103 457 1040 433 1067 b 519 1183 433 1147 476 1183 b 594 1114 558 1183 579 1160 l 647 951 l 640 944 m 576 807 l 569 794 l 365 872 l 161 794 l 154 807 l 325 1031 l 406 1031 m 214 -17 b 13 157 90 -17 13 49 b 240 358 13 290 122 326 l 399 401 l 399 535 b 328 707 399 663 385 707 b 272 650 293 707 275 700 b 153 500 265 531 236 500 b 40 590 78 500 40 532 b 379 749 40 685 142 749 b 672 550 557 749 672 697 l 672 169 b 703 75 672 108 676 89 b 765 61 721 65 753 61 l 765 40 b 578 -17 736 18 678 -17 b 414 74 490 -17 435 15 l 408 74 b 214 -17 371 29 318 -17 m 347 88 b 399 113 371 88 389 96 l 399 344 l 367 342 b 279 213 304 338 279 310 b 347 88 279 117 310 88 "},"ẩ":{"ha":758,"x_min":0,"x_max":0,"o":"m 510 960 b 485 1010 499 969 485 982 b 535 1079 485 1043 511 1067 b 574 1132 558 1094 574 1107 b 533 1167 574 1156 554 1167 b 497 1128 510 1167 504 1154 b 436 1071 488 1082 471 1071 b 382 1117 406 1071 382 1092 b 538 1201 382 1172 458 1201 b 699 1104 651 1201 699 1163 b 615 1018 699 1061 660 1038 b 524 965 568 999 524 985 l 524 960 m 576 807 l 569 794 l 365 872 l 161 794 l 154 807 l 325 1031 l 406 1031 m 214 -17 b 13 157 90 -17 13 49 b 240 358 13 290 122 326 l 399 401 l 399 535 b 328 707 399 663 385 707 b 272 650 293 707 275 700 b 153 500 265 531 236 500 b 40 590 78 500 40 532 b 379 749 40 685 142 749 b 672 550 557 749 672 697 l 672 169 b 703 75 672 108 676 89 b 765 61 721 65 753 61 l 765 40 b 578 -17 736 18 678 -17 b 414 74 490 -17 435 15 l 408 74 b 214 -17 371 29 318 -17 m 347 88 b 399 113 371 88 389 96 l 399 344 l 367 342 b 279 213 304 338 279 310 b 347 88 279 117 310 88 "},"ẫ":{"ha":758,"x_min":0,"x_max":0,"o":"m 158 1044 b 307 1246 200 1171 236 1246 b 494 1219 360 1246 440 1219 b 578 1281 531 1219 551 1238 l 597 1269 b 449 1068 557 1143 526 1068 b 261 1093 396 1068 314 1093 b 178 1033 224 1093 204 1076 m 576 807 l 569 794 l 365 872 l 161 794 l 154 807 l 325 1031 l 406 1031 m 214 -17 b 13 157 90 -17 13 49 b 240 358 13 290 122 326 l 399 401 l 399 535 b 328 707 399 663 385 707 b 272 650 293 707 275 700 b 153 500 265 531 236 500 b 40 590 78 500 40 532 b 379 749 40 685 142 749 b 672 550 557 749 672 697 l 672 169 b 703 75 672 108 676 89 b 765 61 721 65 753 61 l 765 40 b 578 -17 736 18 678 -17 b 414 74 490 -17 435 15 l 408 74 b 214 -17 371 29 318 -17 m 347 88 b 399 113 371 88 389 96 l 399 344 l 367 342 b 279 213 304 338 279 310 b 347 88 279 117 310 88 "},"ậ":{"ha":758,"x_min":0,"x_max":0,"o":"m 576 807 l 569 794 l 365 872 l 161 794 l 154 807 l 325 1031 l 406 1031 m 214 -17 b 13 157 90 -17 13 49 b 240 358 13 290 122 326 l 399 401 l 399 535 b 328 707 399 663 385 707 b 272 650 293 707 275 700 b 153 500 265 531 236 500 b 40 590 78 500 40 532 b 379 749 40 685 142 749 b 672 550 557 749 672 697 l 672 169 b 703 75 672 108 676 89 b 765 61 721 65 753 61 l 765 40 b 578 -17 736 18 678 -17 b 414 74 490 -17 435 15 l 408 74 b 214 -17 371 29 318 -17 m 347 88 b 399 113 371 88 389 96 l 399 344 l 367 342 b 279 213 304 338 279 310 b 347 88 279 117 310 88 m 240 -171 b 365 -57 240 -101 296 -57 b 490 -171 438 -57 490 -101 b 365 -285 490 -240 438 -285 b 240 -171 296 -285 240 -240 "},"ắ":{"ha":758,"x_min":0,"x_max":0,"o":"m 308 1007 l 361 1169 b 436 1239 376 1215 397 1239 b 522 1158 479 1239 522 1203 b 461 1076 522 1122 499 1096 l 315 1000 m 364 797 b 179 1018 258 797 201 893 l 194 1024 b 365 943 228 963 279 943 b 536 1024 446 943 500 963 l 551 1018 b 364 797 533 893 472 797 m 214 -17 b 13 157 90 -17 13 49 b 240 358 13 290 122 326 l 399 401 l 399 535 b 328 707 399 663 385 707 b 272 650 293 707 275 700 b 153 500 265 531 236 500 b 40 590 78 500 40 532 b 379 749 40 685 142 749 b 672 550 557 749 672 697 l 672 169 b 703 75 672 108 676 89 b 765 61 721 65 753 61 l 765 40 b 578 -17 736 18 678 -17 b 414 74 490 -17 435 15 l 408 74 b 214 -17 371 29 318 -17 m 347 88 b 399 113 371 88 389 96 l 399 344 l 367 342 b 279 213 304 338 279 310 b 347 88 279 117 310 88 "},"ằ":{"ha":758,"x_min":0,"x_max":0,"o":"m 278 1076 b 217 1158 240 1096 217 1122 b 303 1239 217 1203 260 1239 b 378 1169 342 1239 363 1215 l 431 1007 l 424 1000 m 364 797 b 179 1018 258 797 201 893 l 194 1024 b 365 943 228 963 279 943 b 536 1024 446 943 500 963 l 551 1018 b 364 797 533 893 472 797 m 214 -17 b 13 157 90 -17 13 49 b 240 358 13 290 122 326 l 399 401 l 399 535 b 328 707 399 663 385 707 b 272 650 293 707 275 700 b 153 500 265 531 236 500 b 40 590 78 500 40 532 b 379 749 40 685 142 749 b 672 550 557 749 672 697 l 672 169 b 703 75 672 108 676 89 b 765 61 721 65 753 61 l 765 40 b 578 -17 736 18 678 -17 b 414 74 490 -17 435 15 l 408 74 b 214 -17 371 29 318 -17 m 347 88 b 399 113 371 88 389 96 l 399 344 l 367 342 b 279 213 304 338 279 310 b 347 88 279 117 310 88 "},"ẳ":{"ha":758,"x_min":0,"x_max":0,"o":"m 332 996 b 307 1046 321 1006 307 1018 b 357 1115 307 1079 333 1103 b 396 1168 381 1131 396 1143 b 356 1203 396 1192 376 1203 b 319 1164 332 1203 326 1190 b 258 1107 310 1118 293 1107 b 204 1153 228 1107 204 1128 b 360 1238 204 1208 281 1238 b 521 1140 474 1238 521 1199 b 438 1054 521 1097 482 1074 b 346 1001 390 1035 346 1021 l 346 996 m 364 797 b 179 1018 258 797 201 893 l 194 1024 b 365 943 228 963 279 943 b 536 1024 446 943 500 963 l 551 1018 b 364 797 533 893 472 797 m 214 -17 b 13 157 90 -17 13 49 b 240 358 13 290 122 326 l 399 401 l 399 535 b 328 707 399 663 385 707 b 272 650 293 707 275 700 b 153 500 265 531 236 500 b 40 590 78 500 40 532 b 379 749 40 685 142 749 b 672 550 557 749 672 697 l 672 169 b 703 75 672 108 676 89 b 765 61 721 65 753 61 l 765 40 b 578 -17 736 18 678 -17 b 414 74 490 -17 435 15 l 408 74 b 214 -17 371 29 318 -17 m 347 88 b 399 113 371 88 389 96 l 399 344 l 367 342 b 279 213 304 338 279 310 b 347 88 279 117 310 88 "},"ẵ":{"ha":758,"x_min":0,"x_max":0,"o":"m 160 1053 b 308 1254 201 1179 238 1254 b 500 1219 367 1254 439 1219 b 583 1281 536 1219 557 1238 l 603 1269 b 454 1068 563 1143 532 1068 b 263 1101 397 1068 324 1101 b 179 1042 225 1101 206 1085 m 364 797 b 179 1018 258 797 201 893 l 194 1024 b 365 943 228 963 279 943 b 536 1024 446 943 500 963 l 551 1018 b 364 797 533 893 472 797 m 214 -17 b 13 157 90 -17 13 49 b 240 358 13 290 122 326 l 399 401 l 399 535 b 328 707 399 663 385 707 b 272 650 293 707 275 700 b 153 500 265 531 236 500 b 40 590 78 500 40 532 b 379 749 40 685 142 749 b 672 550 557 749 672 697 l 672 169 b 703 75 672 108 676 89 b 765 61 721 65 753 61 l 765 40 b 578 -17 736 18 678 -17 b 414 74 490 -17 435 15 l 408 74 b 214 -17 371 29 318 -17 m 347 88 b 399 113 371 88 389 96 l 399 344 l 367 342 b 279 213 304 338 279 310 b 347 88 279 117 310 88 "},"ặ":{"ha":758,"x_min":0,"x_max":0,"o":"m 364 797 b 179 1018 258 797 201 893 l 194 1024 b 365 943 228 963 279 943 b 536 1024 446 943 500 963 l 551 1018 b 364 797 533 893 472 797 m 214 -17 b 13 157 90 -17 13 49 b 240 358 13 290 122 326 l 399 401 l 399 535 b 328 707 399 663 385 707 b 272 650 293 707 275 700 b 153 500 265 531 236 500 b 40 590 78 500 40 532 b 379 749 40 685 142 749 b 672 550 557 749 672 697 l 672 169 b 703 75 672 108 676 89 b 765 61 721 65 753 61 l 765 40 b 578 -17 736 18 678 -17 b 414 74 490 -17 435 15 l 408 74 b 214 -17 371 29 318 -17 m 347 88 b 399 113 371 88 389 96 l 399 344 l 367 342 b 279 213 304 338 279 310 b 347 88 279 117 310 88 m 240 -171 b 365 -57 240 -101 296 -57 b 490 -171 438 -57 490 -101 b 365 -285 490 -240 438 -285 b 240 -171 296 -285 240 -240 "},"b":{"ha":864,"x_min":0,"x_max":0,"o":"m 414 -17 b 61 79 257 -17 146 18 l 61 874 b 17 981 61 949 60 961 l -29 1001 l -29 1019 l 328 1051 l 340 1043 b 335 875 340 1043 335 968 l 335 643 l 339 643 b 568 749 390 693 465 749 b 838 407 697 749 838 653 b 414 -17 838 101 657 -17 m 431 24 b 558 346 511 24 558 68 b 399 614 558 558 510 614 b 335 603 381 614 351 607 l 335 79 b 431 24 354 49 389 24 "},"c":{"ha":707,"x_min":0,"x_max":0,"o":"m 382 -17 b 18 354 149 -17 18 129 b 454 749 18 638 249 749 b 697 597 606 749 697 699 b 582 492 697 531 660 492 b 460 643 490 492 468 532 b 417 706 454 692 453 706 b 293 428 364 706 293 676 b 507 115 293 225 328 115 b 688 161 571 115 636 135 l 688 136 b 382 -17 654 86 546 -17 "},"ç":{"ha":707,"x_min":0,"x_max":0,"o":"m 176 -260 b 292 -179 251 -243 292 -211 b 240 -146 292 -157 275 -147 l 235 -139 l 299 -10 b 18 354 118 22 18 158 b 454 749 18 638 249 749 b 697 597 606 749 697 699 b 582 492 697 531 660 492 b 460 643 490 492 468 532 b 417 706 454 692 453 706 b 293 428 364 706 293 676 b 507 115 293 225 328 115 b 688 161 571 115 636 135 l 688 136 b 382 -17 654 86 546 -17 b 342 -15 368 -17 354 -17 l 311 -56 b 431 -144 393 -62 431 -99 b 176 -281 431 -228 294 -269 "},"ć":{"ha":707,"x_min":0,"x_max":0,"o":"m 246 814 l 411 993 b 501 1036 439 1022 463 1036 b 596 931 553 1036 596 988 b 518 842 596 890 574 850 l 251 800 m 382 -17 b 18 354 149 -17 18 129 b 454 749 18 638 249 749 b 697 597 606 749 697 699 b 582 492 697 531 660 492 b 460 643 490 492 468 532 b 417 706 454 692 453 706 b 293 428 364 706 293 676 b 507 115 293 225 328 115 b 688 161 571 115 636 135 l 688 136 b 382 -17 654 86 546 -17 "},"ĉ":{"ha":707,"x_min":0,"x_max":0,"o":"m 601 807 l 594 794 l 390 872 l 186 794 l 179 807 l 350 1031 l 431 1031 m 382 -17 b 18 354 149 -17 18 129 b 454 749 18 638 249 749 b 697 597 606 749 697 699 b 582 492 697 531 660 492 b 460 643 490 492 468 532 b 417 706 454 692 453 706 b 293 428 364 706 293 676 b 507 115 293 225 328 115 b 688 161 571 115 636 135 l 688 136 b 382 -17 654 86 546 -17 "},"ċ":{"ha":707,"x_min":0,"x_max":0,"o":"m 267 908 b 401 1032 267 983 326 1032 b 536 908 478 1032 536 983 b 401 785 536 832 478 785 b 267 908 326 785 267 832 m 382 -17 b 18 354 149 -17 18 129 b 454 749 18 638 249 749 b 697 597 606 749 697 699 b 582 492 697 531 660 492 b 460 643 490 492 468 532 b 417 706 454 692 453 706 b 293 428 364 706 293 676 b 507 115 293 225 328 115 b 688 161 571 115 636 135 l 688 136 b 382 -17 654 86 546 -17 "},"č":{"ha":707,"x_min":0,"x_max":0,"o":"m 350 806 l 179 1029 l 186 1042 l 390 964 l 594 1042 l 601 1029 l 431 806 m 382 -17 b 18 354 149 -17 18 129 b 454 749 18 638 249 749 b 697 597 606 749 697 699 b 582 492 697 531 660 492 b 460 643 490 492 468 532 b 417 706 454 692 453 706 b 293 428 364 706 293 676 b 507 115 293 225 328 115 b 688 161 571 115 636 135 l 688 136 b 382 -17 654 86 546 -17 "},"d":{"ha":886,"x_min":0,"x_max":0,"o":"m 307 -17 b 26 325 147 -17 26 93 b 438 749 26 631 215 749 b 528 735 479 749 501 743 l 528 874 b 482 969 528 942 522 947 l 426 1000 l 426 1019 l 797 1051 l 808 1043 b 803 875 808 1043 803 968 l 803 161 b 850 63 803 88 804 79 l 883 50 l 883 32 l 549 -17 l 531 -4 l 531 83 l 526 83 b 307 -17 471 31 403 -17 m 449 107 b 528 124 476 107 511 117 l 528 649 b 439 708 508 685 486 708 b 306 394 361 708 306 638 b 449 107 306 178 347 107 "},"ď":{"ha":886,"x_min":0,"x_max":0,"o":"m 846 789 l 851 988 b 919 1057 851 1031 871 1057 b 1008 989 967 1057 1006 1025 b 985 929 1008 972 1006 953 l 861 783 m 307 -17 b 26 325 147 -17 26 93 b 438 749 26 631 215 749 b 528 735 479 749 501 743 l 528 874 b 482 969 528 942 522 947 l 426 1000 l 426 1019 l 797 1051 l 808 1043 b 803 875 808 1043 803 968 l 803 161 b 850 63 803 88 804 79 l 883 50 l 883 32 l 549 -17 l 531 -4 l 531 83 l 526 83 b 307 -17 471 31 403 -17 m 449 107 b 528 124 476 107 511 117 l 528 649 b 439 708 508 685 486 708 b 306 394 361 708 306 638 b 449 107 306 178 347 107 "},"e":{"ha":754,"x_min":0,"x_max":0,"o":"m 394 -17 b 18 356 144 -17 18 114 b 400 749 18 618 217 749 b 739 410 604 749 732 651 l 288 410 b 521 115 292 168 372 115 b 710 164 596 115 656 136 l 710 138 b 394 -17 663 71 553 -17 m 389 710 b 288 447 332 710 290 660 l 474 461 b 389 710 474 658 456 710 "},"è":{"ha":754,"x_min":0,"x_max":0,"o":"m 283 842 b 206 931 228 850 206 890 b 300 1036 206 988 249 1036 b 390 993 339 1036 363 1022 l 556 814 l 550 800 m 394 -17 b 18 356 144 -17 18 114 b 400 749 18 618 217 749 b 739 410 604 749 732 651 l 288 410 b 521 115 292 168 372 115 b 710 164 596 115 656 136 l 710 138 b 394 -17 663 71 553 -17 m 389 710 b 288 447 332 710 290 660 l 474 461 b 389 710 474 658 456 710 "},"é":{"ha":754,"x_min":0,"x_max":0,"o":"m 233 814 l 399 993 b 489 1036 426 1022 450 1036 b 583 931 540 1036 583 988 b 506 842 583 890 561 850 l 239 800 m 394 -17 b 18 356 144 -17 18 114 b 400 749 18 618 217 749 b 739 410 604 749 732 651 l 288 410 b 521 115 292 168 372 115 b 710 164 596 115 656 136 l 710 138 b 394 -17 663 71 553 -17 m 389 710 b 288 447 332 710 290 660 l 474 461 b 389 710 474 658 456 710 "},"ê":{"ha":754,"x_min":0,"x_max":0,"o":"m 594 807 l 588 794 l 383 872 l 179 794 l 172 807 l 343 1031 l 424 1031 m 394 -17 b 18 356 144 -17 18 114 b 400 749 18 618 217 749 b 739 410 604 749 732 651 l 288 410 b 521 115 292 168 372 115 b 710 164 596 115 656 136 l 710 138 b 394 -17 663 71 553 -17 m 389 710 b 288 447 332 710 290 660 l 474 461 b 389 710 474 658 456 710 "},"ë":{"ha":754,"x_min":0,"x_max":0,"o":"m 121 911 b 244 1029 121 986 178 1029 b 369 911 314 1029 369 986 b 244 792 369 835 314 792 b 121 911 178 792 121 835 m 417 911 b 540 1029 417 986 474 1029 b 665 911 610 1029 665 986 b 540 792 665 835 610 792 b 417 911 474 792 417 835 m 394 -17 b 18 356 144 -17 18 114 b 400 749 18 618 217 749 b 739 410 604 749 732 651 l 288 410 b 521 115 292 168 372 115 b 710 164 596 115 656 136 l 710 138 b 394 -17 663 71 553 -17 m 389 710 b 288 447 332 710 290 660 l 474 461 b 389 710 474 658 456 710 "},"ē":{"ha":754,"x_min":0,"x_max":0,"o":"m 179 949 l 579 949 l 579 853 l 179 853 m 394 -17 b 18 356 144 -17 18 114 b 400 749 18 618 217 749 b 739 410 604 749 732 651 l 288 410 b 521 115 292 168 372 115 b 710 164 596 115 656 136 l 710 138 b 394 -17 663 71 553 -17 m 389 710 b 288 447 332 710 290 660 l 474 461 b 389 710 474 658 456 710 "},"ĕ":{"ha":754,"x_min":0,"x_max":0,"o":"m 390 797 b 206 1018 285 797 228 893 l 221 1024 b 392 943 254 963 306 943 b 563 1024 472 943 526 963 l 578 1018 b 390 797 560 893 499 797 m 394 -17 b 18 356 144 -17 18 114 b 400 749 18 618 217 749 b 739 410 604 749 732 651 l 288 410 b 521 115 292 168 372 115 b 710 164 596 115 656 136 l 710 138 b 394 -17 663 71 553 -17 m 389 710 b 288 447 332 710 290 660 l 474 461 b 389 710 474 658 456 710 "},"ė":{"ha":754,"x_min":0,"x_max":0,"o":"m 246 908 b 381 1032 246 983 306 1032 b 515 908 457 1032 515 983 b 381 785 515 832 457 785 b 246 908 306 785 246 832 m 394 -17 b 18 356 144 -17 18 114 b 400 749 18 618 217 749 b 739 410 604 749 732 651 l 288 410 b 521 115 292 168 372 115 b 710 164 596 115 656 136 l 710 138 b 394 -17 663 71 553 -17 m 389 710 b 288 447 332 710 290 660 l 474 461 b 389 710 474 658 456 710 "},"ę":{"ha":754,"x_min":0,"x_max":0,"o":"m 328 -176 b 524 1 328 -104 421 -40 b 394 -17 482 -8 433 -17 b 18 356 144 -17 18 114 b 400 749 18 618 217 749 b 739 410 604 749 732 651 l 288 410 b 521 115 292 168 372 115 b 710 164 596 115 656 136 l 710 138 b 579 8 671 94 622 51 b 501 -144 521 -50 501 -92 b 567 -215 501 -194 525 -215 b 601 -211 581 -215 589 -214 l 601 -232 b 475 -285 576 -258 542 -285 b 328 -176 378 -285 328 -242 m 389 710 b 288 447 332 710 289 660 l 474 461 b 389 710 474 658 456 710 "},"ě":{"ha":754,"x_min":0,"x_max":0,"o":"m 343 806 l 172 1029 l 179 1042 l 383 964 l 588 1042 l 594 1029 l 424 806 m 394 -17 b 18 356 144 -17 18 114 b 400 749 18 618 217 749 b 739 410 604 749 732 651 l 288 410 b 521 115 292 168 372 115 b 710 164 596 115 656 136 l 710 138 b 394 -17 663 71 553 -17 m 389 710 b 288 447 332 710 290 660 l 474 461 b 389 710 474 658 456 710 "},"ẹ":{"ha":754,"x_min":0,"x_max":0,"o":"m 394 -17 b 18 356 144 -17 18 114 b 400 749 18 618 217 749 b 739 410 604 749 732 651 l 288 410 b 521 115 292 168 372 115 b 710 164 596 115 656 136 l 710 138 b 394 -17 663 71 553 -17 m 389 710 b 288 447 332 710 290 660 l 474 461 b 389 710 474 658 456 710 m 267 -171 b 392 -57 267 -101 322 -57 b 517 -171 464 -57 517 -101 b 392 -285 517 -240 464 -285 b 267 -171 322 -285 267 -240 "},"ẻ":{"ha":754,"x_min":0,"x_max":0,"o":"m 379 807 b 350 863 367 818 350 832 b 406 940 350 900 381 925 b 450 999 432 957 450 971 b 404 1036 450 1025 428 1036 b 365 993 378 1036 372 1022 b 297 931 354 943 335 931 b 236 982 263 931 236 954 b 410 1075 236 1043 321 1075 b 592 968 536 1075 592 1032 b 499 872 592 919 547 893 b 394 813 446 850 394 835 l 394 807 m 394 -17 b 18 356 144 -17 18 114 b 400 749 18 618 217 749 b 739 410 604 749 732 651 l 288 410 b 521 115 292 168 372 115 b 710 164 596 115 656 136 l 710 138 b 394 -17 663 71 553 -17 m 389 710 b 288 447 332 710 290 660 l 474 461 b 389 710 474 658 456 710 "},"ẽ":{"ha":754,"x_min":0,"x_max":0,"o":"m 158 801 b 307 1003 200 928 236 1003 b 522 976 365 1003 461 976 b 606 1038 558 976 579 994 l 625 1026 b 476 825 585 900 554 825 b 261 850 419 825 322 850 b 178 790 224 850 204 833 m 394 -17 b 18 356 144 -17 18 114 b 400 749 18 618 217 749 b 739 410 604 749 732 651 l 288 410 b 521 115 292 168 372 115 b 710 164 596 115 656 136 l 710 138 b 394 -17 663 71 553 -17 m 389 710 b 288 447 332 710 290 660 l 474 461 b 389 710 474 658 456 710 "},"ế":{"ha":754,"x_min":0,"x_max":0,"o":"m 532 951 l 585 1114 b 660 1183 600 1160 621 1183 b 746 1103 703 1183 746 1147 b 685 1021 746 1067 722 1040 l 539 944 m 603 807 l 596 794 l 392 872 l 188 794 l 181 807 l 351 1031 l 432 1031 m 394 -17 b 18 356 144 -17 18 114 b 400 749 18 618 217 749 b 739 410 604 749 732 651 l 288 410 b 521 115 292 168 372 115 b 710 164 596 115 656 136 l 710 138 b 394 -17 663 71 553 -17 m 389 710 b 288 447 332 710 290 660 l 474 461 b 389 710 474 658 456 710 "},"ề":{"ha":754,"x_min":0,"x_max":0,"o":"m 521 1021 b 460 1103 483 1040 460 1067 b 546 1183 460 1147 503 1183 b 621 1114 585 1183 606 1160 l 674 951 l 667 944 m 603 807 l 596 794 l 392 872 l 188 794 l 181 807 l 351 1031 l 432 1031 m 394 -17 b 18 356 144 -17 18 114 b 400 749 18 618 217 749 b 739 410 604 749 732 651 l 288 410 b 521 115 292 168 372 115 b 710 164 596 115 656 136 l 710 138 b 394 -17 663 71 553 -17 m 389 710 b 288 447 332 710 290 660 l 474 461 b 389 710 474 658 456 710 "},"ể":{"ha":754,"x_min":0,"x_max":0,"o":"m 536 960 b 511 1010 525 969 511 982 b 561 1079 511 1043 538 1067 b 600 1132 585 1094 600 1107 b 560 1167 600 1156 581 1167 b 524 1128 536 1167 531 1154 b 463 1071 514 1082 497 1071 b 408 1117 432 1071 408 1092 b 564 1201 408 1172 485 1201 b 725 1104 678 1201 725 1163 b 642 1018 725 1061 686 1038 b 550 965 594 999 550 985 l 550 960 m 603 807 l 596 794 l 392 872 l 188 794 l 181 807 l 351 1031 l 432 1031 m 394 -17 b 18 356 144 -17 18 114 b 400 749 18 618 217 749 b 739 410 604 749 732 651 l 288 410 b 521 115 292 168 372 115 b 710 164 596 115 656 136 l 710 138 b 394 -17 663 71 553 -17 m 389 710 b 288 447 332 710 290 660 l 474 461 b 389 710 474 658 456 710 "},"ễ":{"ha":754,"x_min":0,"x_max":0,"o":"m 185 1044 b 333 1246 226 1171 263 1246 b 521 1219 386 1246 467 1219 b 604 1281 557 1219 578 1238 l 624 1269 b 475 1068 583 1143 553 1068 b 288 1093 422 1068 340 1093 b 204 1033 250 1093 231 1076 m 603 807 l 596 794 l 392 872 l 188 794 l 181 807 l 351 1031 l 432 1031 m 394 -17 b 18 356 144 -17 18 114 b 400 749 18 618 217 749 b 739 410 604 749 732 651 l 288 410 b 521 115 292 168 372 115 b 710 164 596 115 656 136 l 710 138 b 394 -17 663 71 553 -17 m 389 710 b 288 447 332 710 290 660 l 474 461 b 389 710 474 658 456 710 "},"ệ":{"ha":754,"x_min":0,"x_max":0,"o":"m 603 807 l 596 794 l 392 872 l 188 794 l 181 807 l 351 1031 l 432 1031 m 394 -17 b 18 356 144 -17 18 114 b 400 749 18 618 217 749 b 739 410 604 749 732 651 l 288 410 b 521 115 292 168 372 115 b 710 164 596 115 656 136 l 710 138 b 394 -17 663 71 553 -17 m 389 710 b 288 447 332 710 290 660 l 474 461 b 389 710 474 658 456 710 m 267 -171 b 392 -57 267 -101 322 -57 b 517 -171 464 -57 517 -101 b 392 -285 517 -240 464 -285 b 267 -171 322 -285 267 -240 "},"f":{"ha":496,"x_min":0,"x_max":0,"o":"m -1 24 l 24 31 b 82 114 79 46 82 50 l 82 656 l -8 656 l -8 672 l 82 731 l 82 765 b 442 1060 82 940 204 1060 b 657 932 572 1060 657 1015 b 551 835 657 869 615 835 b 443 969 476 835 449 869 b 418 1018 440 1013 433 1018 b 356 865 375 1018 356 982 l 356 731 l 485 731 l 474 656 l 356 656 l 356 114 b 410 35 356 51 360 49 l 450 24 l 450 0 l -1 0 "},"g":{"ha":744,"x_min":0,"x_max":0,"o":"m 299 -283 b -22 -136 81 -283 -22 -233 b 161 -6 -22 -69 40 -19 l 161 -3 b 22 150 63 22 22 74 b 135 325 22 233 83 294 l 135 328 b 21 506 63 365 21 422 b 336 749 21 660 156 749 b 525 707 410 749 478 731 b 688 788 568 749 624 788 b 781 703 740 788 781 761 b 707 625 781 663 761 625 b 638 679 661 625 650 644 b 550 688 622 722 583 711 l 550 685 b 651 526 604 649 651 594 b 336 283 651 371 517 283 b 163 313 272 283 204 296 b 142 254 154 301 142 281 b 201 217 142 232 156 217 l 485 217 b 728 24 621 217 728 174 b 299 -283 728 -171 546 -283 m 336 322 b 404 514 390 322 404 353 b 336 710 404 681 386 710 b 268 518 282 710 268 681 b 336 322 268 356 285 322 m 331 -243 b 564 -110 488 -243 564 -196 b 433 -14 564 -40 522 -14 l 192 -14 b 167 -114 176 -31 167 -60 b 331 -243 167 -190 206 -243 "},"ĝ":{"ha":744,"x_min":0,"x_max":0,"o":"m 561 807 l 554 794 l 350 872 l 146 794 l 139 807 l 310 1031 l 390 1031 m 299 -283 b -22 -136 81 -283 -22 -233 b 161 -6 -22 -69 40 -19 l 161 -3 b 22 150 63 22 22 74 b 135 325 22 233 83 294 l 135 328 b 21 506 63 365 21 422 b 336 749 21 660 156 749 b 525 707 410 749 478 731 b 688 788 568 749 624 788 b 781 703 740 788 781 761 b 707 625 781 663 761 625 b 638 679 661 625 650 644 b 550 688 622 722 583 711 l 550 685 b 651 526 604 649 651 594 b 336 283 651 371 517 283 b 163 313 272 283 204 296 b 142 254 154 301 142 281 b 201 217 142 232 156 217 l 485 217 b 728 24 621 217 728 174 b 299 -283 728 -171 546 -283 m 336 322 b 404 514 390 322 404 353 b 336 710 404 681 386 710 b 268 518 282 710 268 681 b 336 322 268 356 285 322 m 331 -243 b 564 -110 488 -243 564 -196 b 433 -14 564 -40 522 -14 l 192 -14 b 167 -114 176 -31 167 -60 b 331 -243 167 -190 206 -243 "},"ğ":{"ha":744,"x_min":0,"x_max":0,"o":"m 351 797 b 167 1018 246 797 189 893 l 182 1024 b 353 943 215 963 267 943 b 524 1024 433 943 488 963 l 539 1018 b 351 797 521 893 460 797 m 299 -283 b -22 -136 81 -283 -22 -233 b 161 -6 -22 -69 40 -19 l 161 -3 b 22 150 63 22 22 74 b 135 325 22 233 83 294 l 135 328 b 21 506 63 365 21 422 b 336 749 21 660 156 749 b 525 707 410 749 478 731 b 688 788 568 749 624 788 b 781 703 740 788 781 761 b 707 625 781 663 761 625 b 638 679 661 625 650 644 b 550 688 622 722 583 711 l 550 685 b 651 526 604 649 651 594 b 336 283 651 371 517 283 b 163 313 272 283 204 296 b 142 254 154 301 142 281 b 201 217 142 232 156 217 l 485 217 b 728 24 621 217 728 174 b 299 -283 728 -171 546 -283 m 336 322 b 404 514 390 322 404 353 b 336 710 404 681 386 710 b 268 518 282 710 268 681 b 336 322 268 356 285 322 m 331 -243 b 564 -110 488 -243 564 -196 b 433 -14 564 -40 522 -14 l 192 -14 b 167 -114 176 -31 167 -60 b 331 -243 167 -190 206 -243 "},"ġ":{"ha":744,"x_min":0,"x_max":0,"o":"m 207 908 b 342 1032 207 983 267 1032 b 476 908 418 1032 476 983 b 342 785 476 832 418 785 b 207 908 267 785 207 832 m 299 -283 b -22 -136 81 -283 -22 -233 b 161 -6 -22 -69 40 -19 l 161 -3 b 22 150 63 22 22 74 b 135 325 22 233 83 294 l 135 328 b 21 506 63 365 21 422 b 336 749 21 660 156 749 b 525 707 410 749 478 731 b 688 788 568 749 624 788 b 781 703 740 788 781 761 b 707 625 781 663 761 625 b 638 679 661 625 650 644 b 550 688 622 722 583 711 l 550 685 b 651 526 604 649 651 594 b 336 283 651 371 517 283 b 163 313 272 283 204 296 b 142 254 154 301 142 281 b 201 217 142 232 156 217 l 485 217 b 728 24 621 217 728 174 b 299 -283 728 -171 546 -283 m 336 322 b 404 514 390 322 404 353 b 336 710 404 681 386 710 b 268 518 282 710 268 681 b 336 322 268 356 285 322 m 331 -243 b 564 -110 488 -243 564 -196 b 433 -14 564 -40 522 -14 l 192 -14 b 167 -114 176 -31 167 -60 b 331 -243 167 -190 206 -243 "},"ģ":{"ha":744,"x_min":0,"x_max":0,"o":"m 483 1060 b 328 928 379 1033 336 988 b 385 949 342 942 364 949 b 469 867 435 949 469 915 b 357 776 469 819 425 776 b 232 894 288 776 232 826 b 481 1075 232 1000 324 1065 m 299 -283 b -22 -136 81 -283 -22 -233 b 161 -6 -22 -69 40 -19 l 161 -3 b 22 150 63 22 22 74 b 135 325 22 233 83 294 l 135 328 b 21 506 63 365 21 422 b 336 749 21 660 156 749 b 525 707 410 749 478 731 b 688 788 568 749 624 788 b 781 703 740 788 781 761 b 707 625 781 663 761 625 b 638 679 661 625 650 644 b 550 688 622 722 583 711 l 550 685 b 651 526 604 649 651 594 b 336 283 651 371 517 283 b 163 313 272 283 204 296 b 142 254 154 301 142 281 b 201 217 142 232 156 217 l 485 217 b 728 24 621 217 728 174 b 299 -283 728 -171 546 -283 m 336 322 b 404 514 390 322 404 353 b 336 710 404 681 386 710 b 268 518 282 710 268 681 b 336 322 268 356 285 322 m 331 -243 b 564 -110 488 -243 564 -196 b 433 -14 564 -40 522 -14 l 192 -14 b 167 -114 176 -31 167 -60 b 331 -243 167 -190 206 -243 "},"h":{"ha":888,"x_min":0,"x_max":0,"o":"m 625 749 b 804 563 731 749 804 686 l 804 114 b 864 31 804 49 808 46 l 889 24 l 889 0 l 460 0 l 460 24 l 481 29 b 531 114 529 42 531 44 l 531 510 b 449 610 531 586 500 610 b 357 601 410 610 381 607 l 357 114 b 407 29 357 43 360 42 l 428 24 l 428 0 l -1 0 l -1 24 l 24 31 b 82 114 79 46 82 50 l 82 874 b 38 981 82 949 81 957 l -8 1001 l -8 1019 l 350 1051 l 363 1043 b 357 875 363 1043 357 968 l 357 646 l 361 646 b 625 749 432 699 515 749 "},"ĥ":{"ha":888,"x_min":0,"x_max":0,"o":"m -18 1104 l 172 1310 l 258 1310 l 449 1104 l 440 1090 l 215 1151 l -10 1090 m 625 749 b 804 563 731 749 804 686 l 804 114 b 864 31 804 49 808 46 l 889 24 l 889 0 l 460 0 l 460 24 l 481 29 b 531 114 529 42 531 44 l 531 510 b 449 610 531 586 500 610 b 357 601 410 610 381 607 l 357 114 b 407 29 357 43 360 42 l 428 24 l 428 0 l -1 0 l -1 24 l 24 31 b 82 114 79 46 82 50 l 82 874 b 38 981 82 949 81 957 l -8 1001 l -8 1019 l 350 1051 l 363 1043 b 357 875 363 1043 357 968 l 357 646 l 361 646 b 625 749 432 699 515 749 "},"ȟ":{"ha":888,"x_min":0,"x_max":0,"o":"m 440 1243 l 665 1304 l 674 1290 l 483 1085 l 397 1085 l 207 1290 l 215 1304 m 625 749 b 804 563 731 749 804 686 l 804 114 b 864 31 804 49 808 46 l 889 24 l 889 0 l 460 0 l 460 24 l 481 29 b 531 114 529 42 531 44 l 531 510 b 449 610 531 586 500 610 b 357 601 410 610 381 607 l 357 114 b 407 29 357 43 360 42 l 428 24 l 428 0 l -1 0 l -1 24 l 24 31 b 82 114 79 46 82 50 l 82 874 b 38 981 82 949 81 957 l -8 1001 l -8 1019 l 350 1051 l 363 1043 b 357 875 363 1043 357 968 l 357 646 l 361 646 b 625 749 432 699 515 749 "},"ḣ":{"ha":888,"x_min":0,"x_max":0,"o":"m 440 1074 b 306 1197 365 1074 306 1121 b 440 1321 306 1272 365 1321 b 575 1197 517 1321 575 1272 b 440 1074 575 1121 517 1074 m 625 749 b 804 563 731 749 804 686 l 804 114 b 864 31 804 49 808 46 l 889 24 l 889 0 l 460 0 l 460 24 l 481 29 b 531 114 529 42 531 44 l 531 510 b 449 610 531 586 500 610 b 357 601 410 610 381 607 l 357 114 b 407 29 357 43 360 42 l 428 24 l 428 0 l -1 0 l -1 24 l 24 31 b 82 114 79 46 82 50 l 82 874 b 38 981 82 949 81 957 l -8 1001 l -8 1019 l 350 1051 l 363 1043 b 357 875 363 1043 357 968 l 357 646 l 361 646 b 625 749 432 699 515 749 "},"i":{"ha":439,"x_min":0,"x_max":0,"o":"m 78 924 b 213 1047 78 999 138 1047 b 347 924 289 1047 347 999 b 213 800 347 847 289 800 b 78 924 138 800 78 847 m -1 24 l 24 31 b 82 114 79 46 82 50 l 82 571 b 35 668 82 632 78 638 l -10 700 l -10 713 l 350 749 l 361 740 b 356 563 357 672 356 624 l 356 114 b 414 31 356 50 358 46 l 439 24 l 439 0 l -1 0 "},"ì":{"ha":439,"x_min":0,"x_max":0,"o":"m 104 842 b 26 931 49 850 26 890 b 121 1036 26 988 69 1036 b 211 993 160 1036 183 1022 l 376 814 l 371 800 m -1 24 l 24 31 b 82 114 79 46 82 50 l 82 571 b 35 668 82 632 78 638 l -10 700 l -10 713 l 350 749 l 361 740 b 356 563 357 672 356 624 l 356 114 b 414 31 356 50 358 46 l 439 24 l 439 0 l -1 0 "},"í":{"ha":439,"x_min":0,"x_max":0,"o":"m 50 814 l 215 993 b 306 1036 243 1022 267 1036 b 400 931 357 1036 400 988 b 322 842 400 890 378 850 l 56 800 m -1 24 l 24 31 b 82 114 79 46 82 50 l 82 571 b 35 668 82 632 78 638 l -10 700 l -10 713 l 350 749 l 361 740 b 356 563 357 672 356 624 l 356 114 b 414 31 356 50 358 46 l 439 24 l 439 0 l -1 0 "},"î":{"ha":439,"x_min":0,"x_max":0,"o":"m 422 807 l 415 794 l 211 872 l 7 794 l 0 807 l 171 1031 l 251 1031 m -1 24 l 24 31 b 82 114 79 46 82 50 l 82 571 b 35 668 82 632 78 638 l -10 700 l -10 713 l 350 749 l 361 740 b 356 563 357 672 356 624 l 356 114 b 414 31 356 50 358 46 l 439 24 l 439 0 l -1 0 "},"ï":{"ha":439,"x_min":0,"x_max":0,"o":"m -61 911 b 63 1029 -61 986 -4 1029 b 188 911 132 1029 188 986 b 63 792 188 835 132 792 b -61 911 -4 792 -61 835 m 235 911 b 358 1029 235 986 292 1029 b 483 911 428 1029 483 986 b 358 792 483 835 428 792 b 235 911 292 792 235 835 m -1 24 l 24 31 b 82 114 79 46 82 50 l 82 571 b 35 668 82 632 78 638 l -10 700 l -10 713 l 350 749 l 361 740 b 356 563 357 672 356 624 l 356 114 b 414 31 356 50 358 46 l 439 24 l 439 0 l -1 0 "},"ĩ":{"ha":439,"x_min":0,"x_max":0,"o":"m -14 801 b 135 1003 28 928 64 1003 b 350 976 193 1003 289 976 b 433 1038 386 976 407 994 l 453 1026 b 304 825 413 900 382 825 b 89 850 247 825 150 850 b 6 790 51 850 32 833 m -1 24 l 24 31 b 82 114 79 46 82 50 l 82 571 b 35 668 82 632 78 638 l -10 700 l -10 713 l 350 749 l 361 740 b 356 563 357 672 356 624 l 356 114 b 414 31 356 50 358 46 l 439 24 l 439 0 l -1 0 "},"ī":{"ha":439,"x_min":0,"x_max":0,"o":"m 10 949 l 410 949 l 410 853 l 10 853 m -1 24 l 24 31 b 82 114 79 46 82 50 l 82 571 b 35 668 82 632 78 638 l -10 700 l -10 713 l 350 749 l 361 740 b 356 563 357 672 356 624 l 356 114 b 414 31 356 50 358 46 l 439 24 l 439 0 l -1 0 "},"ĭ":{"ha":439,"x_min":0,"x_max":0,"o":"m 218 797 b 33 1018 113 797 56 893 l 49 1024 b 219 943 82 963 133 943 b 390 1024 300 943 354 963 l 406 1018 b 218 797 388 893 326 797 m -1 24 l 24 31 b 82 114 79 46 82 50 l 82 571 b 35 668 82 632 78 638 l -10 700 l -10 713 l 350 749 l 361 740 b 356 563 357 672 356 624 l 356 114 b 414 31 356 50 358 46 l 439 24 l 439 0 l -1 0 "},"į":{"ha":439,"x_min":0,"x_max":0,"o":"m 78 924 b 213 1047 78 999 138 1047 b 347 924 289 1047 347 999 b 213 800 347 847 289 800 b 78 924 138 800 78 847 m -1 24 l 24 31 b 82 114 79 46 82 50 l 82 571 b 35 668 82 632 78 638 l -10 700 l -10 713 l 350 749 l 361 740 b 356 563 357 672 356 624 l 356 114 b 414 31 356 50 358 46 l 439 24 l 439 0 l 317 0 b 260 -156 289 -33 260 -92 b 315 -215 260 -196 282 -215 b 356 -211 329 -215 343 -214 l 356 -232 b 229 -285 331 -258 296 -285 b 82 -176 132 -285 82 -242 b 289 0 82 -93 174 -37 l -1 0 "},"ỉ":{"ha":439,"x_min":0,"x_max":0,"o":"m 203 807 b 174 863 190 818 174 832 b 229 940 174 900 204 925 b 274 999 256 957 274 971 b 228 1036 274 1025 251 1036 b 189 993 201 1036 196 1022 b 121 931 178 943 158 931 b 60 982 86 931 60 954 b 233 1075 60 1043 144 1075 b 415 968 360 1075 415 1032 b 322 872 415 919 371 893 b 218 813 269 850 218 835 l 218 807 m -1 24 l 24 31 b 82 114 79 46 82 50 l 82 571 b 35 668 82 632 78 638 l -10 700 l -10 713 l 350 749 l 361 740 b 356 563 357 672 356 624 l 356 114 b 414 31 356 50 358 46 l 439 24 l 439 0 l -1 0 "},"ị":{"ha":439,"x_min":0,"x_max":0,"o":"m 78 924 b 213 1047 78 999 138 1047 b 347 924 289 1047 347 999 b 213 800 347 847 289 800 b 78 924 138 800 78 847 m -1 24 l 24 31 b 82 114 79 46 82 50 l 82 571 b 35 668 82 632 78 638 l -10 700 l -10 713 l 350 749 l 361 740 b 356 563 357 672 356 624 l 356 114 b 414 31 356 50 358 46 l 439 24 l 439 0 l -1 0 m 90 -171 b 215 -57 90 -101 146 -57 b 340 -171 288 -57 340 -101 b 215 -285 340 -240 288 -285 b 90 -171 146 -285 90 -240 "},"j":{"ha":418,"x_min":0,"x_max":0,"o":"m 78 924 b 213 1047 78 999 138 1047 b 347 924 289 1047 347 999 b 213 800 347 847 289 800 b 78 924 138 800 78 847 m 356 32 b 25 -283 356 -154 214 -283 b -207 -132 -124 -283 -207 -224 b -94 -31 -207 -67 -165 -31 b 25 -201 -19 -31 15 -61 b 44 -240 28 -235 31 -240 b 82 -146 68 -240 82 -222 l 82 571 b 35 668 82 632 78 638 l -10 700 l -10 713 l 350 749 l 361 740 b 356 563 357 672 356 624 "},"ĵ":{"ha":418,"x_min":0,"x_max":0,"o":"m 421 807 l 414 794 l 210 872 l 6 794 l -1 807 l 169 1031 l 250 1031 m 356 32 b 25 -283 356 -154 214 -283 b -207 -132 -124 -283 -207 -224 b -94 -31 -207 -67 -165 -31 b 25 -201 -19 -31 15 -61 b 44 -240 28 -235 31 -240 b 82 -146 68 -240 82 -222 l 82 571 b 35 668 82 632 78 638 l -10 700 l -10 713 l 350 749 l 361 740 b 356 563 357 672 356 624 "},"k":{"ha":861,"x_min":0,"x_max":0,"o":"m 357 114 b 404 29 357 44 358 43 l 422 24 l 422 0 l -1 0 l -1 24 l 24 31 b 82 114 79 46 82 50 l 82 874 b 38 981 82 949 81 957 l -8 1001 l -8 1019 l 350 1051 l 363 1043 b 357 875 363 1043 357 968 m 550 0 b 371 336 475 107 403 243 l 371 353 l 519 517 b 590 638 572 575 590 617 b 521 701 590 667 568 689 l 500 707 l 500 731 l 832 731 l 832 707 l 819 704 b 690 625 783 696 749 682 l 565 506 b 811 69 632 356 754 147 b 864 26 831 43 840 32 l 875 24 l 875 0 l 550 0 "},"ķ":{"ha":861,"x_min":0,"x_max":0,"o":"m 357 114 b 404 29 357 44 358 43 l 422 24 l 422 0 l -1 0 l -1 24 l 24 31 b 82 114 79 46 82 50 l 82 874 b 38 981 82 949 81 957 l -8 1001 l -8 1019 l 350 1051 l 363 1043 b 357 875 363 1043 357 968 m 550 0 b 371 336 475 107 403 243 l 371 353 l 519 517 b 590 638 572 575 590 617 b 521 701 590 667 568 689 l 500 707 l 500 731 l 832 731 l 832 707 l 819 704 b 690 625 783 696 749 682 l 565 506 b 811 69 632 356 754 147 b 864 26 831 43 840 32 l 875 24 l 875 0 l 550 0 m 313 -336 b 468 -204 417 -310 460 -264 b 411 -225 454 -218 432 -225 b 326 -143 361 -225 326 -192 b 439 -53 326 -96 371 -53 b 564 -171 508 -53 564 -103 b 315 -351 564 -276 472 -342 "},"ḳ":{"ha":861,"x_min":0,"x_max":0,"o":"m 357 114 b 404 29 357 44 358 43 l 422 24 l 422 0 l -1 0 l -1 24 l 24 31 b 82 114 79 46 82 50 l 82 874 b 38 981 82 949 81 957 l -8 1001 l -8 1019 l 350 1051 l 363 1043 b 357 875 363 1043 357 968 m 550 0 b 371 336 475 107 403 243 l 371 353 l 519 517 b 590 638 572 575 590 617 b 521 701 590 667 568 689 l 500 707 l 500 731 l 832 731 l 832 707 l 819 704 b 690 625 783 696 749 682 l 565 506 b 811 69 632 356 754 147 b 864 26 831 43 840 32 l 875 24 l 875 0 l 550 0 m 308 -171 b 433 -57 308 -101 364 -57 b 558 -171 506 -57 558 -101 b 433 -285 558 -240 506 -285 b 308 -171 364 -285 308 -240 "},"l":{"ha":447,"x_min":0,"x_max":0,"o":"m 360 114 b 424 31 360 49 368 46 l 449 24 l 449 0 l -1 0 l -1 24 l 24 31 b 86 114 83 47 86 50 l 86 874 b 38 981 86 949 82 957 l -8 1001 l -8 1019 l 353 1051 l 365 1043 b 360 875 365 1043 360 968 "},"ĺ":{"ha":447,"x_min":0,"x_max":0,"o":"m 51 1104 l 221 1279 b 306 1321 247 1307 274 1321 b 404 1217 363 1321 404 1274 b 318 1126 404 1167 372 1133 l 57 1090 m 360 114 b 424 31 360 49 368 46 l 449 24 l 449 0 l -1 0 l -1 24 l 24 31 b 86 114 83 47 86 50 l 86 874 b 38 981 86 949 82 957 l -8 1001 l -8 1019 l 353 1051 l 365 1043 b 360 875 365 1043 360 968 "},"ļ":{"ha":447,"x_min":0,"x_max":0,"o":"m 360 114 b 424 31 360 49 368 46 l 449 24 l 449 0 l -1 0 l -1 24 l 24 31 b 86 114 83 47 86 50 l 86 874 b 38 981 86 949 82 957 l -8 1001 l -8 1019 l 353 1051 l 365 1043 b 360 875 365 1043 360 968 m 88 -336 b 243 -204 192 -310 235 -264 b 186 -225 229 -218 207 -225 b 101 -143 136 -225 101 -192 b 214 -53 101 -96 146 -53 b 339 -171 283 -53 339 -103 b 90 -351 339 -276 247 -342 "},"ľ":{"ha":447,"x_min":0,"x_max":0,"o":"m 403 789 l 408 988 b 476 1057 408 1031 428 1057 b 565 989 524 1057 563 1025 b 542 929 565 972 563 953 l 418 783 m 360 114 b 424 31 360 49 368 46 l 449 24 l 449 0 l -1 0 l -1 24 l 24 31 b 86 114 83 47 86 50 l 86 874 b 38 981 86 949 82 957 l -8 1001 l -8 1019 l 353 1051 l 365 1043 b 360 875 365 1043 360 968 "},"m":{"ha":1306,"x_min":0,"x_max":0,"o":"m -1 24 l 24 31 b 82 114 79 46 82 50 l 82 569 b 38 667 82 631 81 635 l -7 699 l -7 713 l 339 749 l 350 740 l 350 635 l 354 635 b 614 749 426 696 511 749 b 778 635 694 749 754 710 l 782 635 b 1046 749 856 697 942 749 b 1222 563 1147 749 1222 686 l 1222 114 b 1282 31 1222 49 1224 47 l 1307 24 l 1307 0 l 885 0 l 885 24 l 904 29 b 949 114 946 42 949 43 l 949 511 b 871 606 949 588 926 606 b 786 600 836 606 808 604 b 789 546 788 590 789 560 l 789 114 b 833 29 789 46 790 43 l 851 24 l 851 0 l 451 0 l 451 24 l 471 29 b 515 114 514 42 515 44 l 515 511 b 442 606 515 588 493 606 b 356 597 407 606 378 603 l 356 114 b 400 29 356 44 357 42 l 419 24 l 419 0 l -1 0 "},"n":{"ha":888,"x_min":0,"x_max":0,"o":"m -1 24 l 24 31 b 82 114 79 46 82 50 l 82 569 b 38 667 82 631 81 636 l -7 699 l -7 713 l 339 749 l 350 740 l 350 635 l 354 635 b 624 749 429 693 514 749 b 803 563 729 749 803 686 l 803 114 b 863 31 803 49 807 46 l 888 24 l 888 0 l 458 0 l 458 24 l 479 29 b 529 114 528 42 529 44 l 529 510 b 447 606 529 585 499 606 b 356 597 408 606 379 603 l 356 114 b 406 29 356 43 358 42 l 426 24 l 426 0 l -1 0 "},"ñ":{"ha":888,"x_min":0,"x_max":0,"o":"m 231 801 b 379 1003 272 928 308 1003 b 594 976 438 1003 533 976 b 678 1038 631 976 651 994 l 697 1026 b 549 825 657 900 626 825 b 333 850 492 825 394 850 b 250 790 296 850 276 833 m -1 24 l 24 31 b 82 114 79 46 82 50 l 82 569 b 38 667 82 631 81 636 l -7 699 l -7 713 l 339 749 l 350 740 l 350 635 l 354 635 b 624 749 429 693 514 749 b 803 563 729 749 803 686 l 803 114 b 863 31 803 49 807 46 l 888 24 l 888 0 l 458 0 l 458 24 l 479 29 b 529 114 528 42 529 44 l 529 510 b 447 606 529 585 499 606 b 356 597 408 606 379 603 l 356 114 b 406 29 356 43 358 42 l 426 24 l 426 0 l -1 0 "},"ń":{"ha":888,"x_min":0,"x_max":0,"o":"m 308 814 l 474 993 b 564 1036 501 1022 525 1036 b 658 931 615 1036 658 988 b 581 842 658 890 636 850 l 314 800 m -1 24 l 24 31 b 82 114 79 46 82 50 l 82 569 b 38 667 82 631 81 636 l -7 699 l -7 713 l 339 749 l 350 740 l 350 635 l 354 635 b 624 749 429 693 514 749 b 803 563 729 749 803 686 l 803 114 b 863 31 803 49 807 46 l 888 24 l 888 0 l 458 0 l 458 24 l 479 29 b 529 114 528 42 529 44 l 529 510 b 447 606 529 585 499 606 b 356 597 408 606 379 603 l 356 114 b 406 29 356 43 358 42 l 426 24 l 426 0 l -1 0 "},"ņ":{"ha":888,"x_min":0,"x_max":0,"o":"m -1 24 l 24 31 b 82 114 79 46 82 50 l 82 569 b 38 667 82 631 81 636 l -7 699 l -7 713 l 339 749 l 350 740 l 350 635 l 354 635 b 624 749 429 693 514 749 b 803 563 729 749 803 686 l 803 114 b 863 31 803 49 807 46 l 888 24 l 888 0 l 458 0 l 458 24 l 479 29 b 529 114 528 42 529 44 l 529 510 b 447 606 529 585 499 606 b 356 597 408 606 379 603 l 356 114 b 406 29 356 43 358 42 l 426 24 l 426 0 l -1 0 m 304 -336 b 460 -204 408 -310 451 -264 b 403 -225 446 -218 424 -225 b 318 -143 353 -225 318 -192 b 431 -53 318 -96 363 -53 b 556 -171 500 -53 556 -103 b 307 -351 556 -276 464 -342 "},"ň":{"ha":888,"x_min":0,"x_max":0,"o":"m 403 806 l 232 1029 l 239 1042 l 443 964 l 647 1042 l 654 1029 l 483 806 m -1 24 l 24 31 b 82 114 79 46 82 50 l 82 569 b 38 667 82 631 81 636 l -7 699 l -7 713 l 339 749 l 350 740 l 350 635 l 354 635 b 624 749 429 693 514 749 b 803 563 729 749 803 686 l 803 114 b 863 31 803 49 807 46 l 888 24 l 888 0 l 458 0 l 458 24 l 479 29 b 529 114 528 42 529 44 l 529 510 b 447 606 529 585 499 606 b 356 597 408 606 379 603 l 356 114 b 406 29 356 43 358 42 l 426 24 l 426 0 l -1 0 "},"o":{"ha":828,"x_min":0,"x_max":0,"o":"m 414 -17 b 18 363 208 -17 18 104 b 414 749 18 644 219 749 b 810 368 618 749 810 628 b 414 -17 810 88 613 -17 m 417 24 b 526 357 489 24 526 56 b 410 708 526 674 479 708 b 301 382 344 708 301 661 b 417 24 301 63 336 24 "},"ò":{"ha":828,"x_min":0,"x_max":0,"o":"m 304 842 b 226 931 249 850 226 890 b 321 1036 226 988 269 1036 b 411 993 360 1036 383 1022 l 576 814 l 571 800 m 414 -17 b 18 363 208 -17 18 104 b 414 749 18 644 219 749 b 810 368 618 749 810 628 b 414 -17 810 88 613 -17 m 417 24 b 526 357 489 24 526 56 b 410 708 526 674 479 708 b 301 382 344 708 301 661 b 417 24 301 63 336 24 "},"ó":{"ha":828,"x_min":0,"x_max":0,"o":"m 246 814 l 411 993 b 501 1036 439 1022 463 1036 b 596 931 553 1036 596 988 b 518 842 596 890 574 850 l 251 800 m 414 -17 b 18 363 208 -17 18 104 b 414 749 18 644 219 749 b 810 368 618 749 810 628 b 414 -17 810 88 613 -17 m 417 24 b 526 357 489 24 526 56 b 410 708 526 674 479 708 b 301 382 344 708 301 661 b 417 24 301 63 336 24 "},"ô":{"ha":828,"x_min":0,"x_max":0,"o":"m 626 807 l 619 794 l 415 872 l 211 794 l 204 807 l 375 1031 l 456 1031 m 414 -17 b 18 363 208 -17 18 104 b 414 749 18 644 219 749 b 810 368 618 749 810 628 b 414 -17 810 88 613 -17 m 417 24 b 526 357 489 24 526 56 b 410 708 526 674 479 708 b 301 382 344 708 301 661 b 417 24 301 63 336 24 "},"õ":{"ha":828,"x_min":0,"x_max":0,"o":"m 185 801 b 333 1003 226 928 263 1003 b 549 976 392 1003 488 976 b 632 1038 585 976 606 994 l 651 1026 b 503 825 611 900 581 825 b 288 850 446 825 349 850 b 204 790 250 850 231 833 m 414 -17 b 18 363 208 -17 18 104 b 414 749 18 644 219 749 b 810 368 618 749 810 628 b 414 -17 810 88 613 -17 m 417 24 b 526 357 489 24 526 56 b 410 708 526 674 479 708 b 301 382 344 708 301 661 b 417 24 301 63 336 24 "},"ö":{"ha":828,"x_min":0,"x_max":0,"o":"m 143 911 b 267 1029 143 986 200 1029 b 392 911 336 1029 392 986 b 267 792 392 835 336 792 b 143 911 200 792 143 835 m 439 911 b 563 1029 439 986 496 1029 b 688 911 632 1029 688 986 b 563 792 688 835 632 792 b 439 911 496 792 439 835 m 414 -17 b 18 363 208 -17 18 104 b 414 749 18 644 219 749 b 810 368 618 749 810 628 b 414 -17 810 88 613 -17 m 417 24 b 526 357 489 24 526 56 b 410 708 526 674 479 708 b 301 382 344 708 301 661 b 417 24 301 63 336 24 "},"ō":{"ha":828,"x_min":0,"x_max":0,"o":"m 214 949 l 614 949 l 614 853 l 214 853 m 414 -17 b 18 363 208 -17 18 104 b 414 749 18 644 219 749 b 810 368 618 749 810 628 b 414 -17 810 88 613 -17 m 417 24 b 526 357 489 24 526 56 b 410 708 526 674 479 708 b 301 382 344 708 301 661 b 417 24 301 63 336 24 "},"ŏ":{"ha":828,"x_min":0,"x_max":0,"o":"m 413 797 b 228 1018 307 797 250 893 l 243 1024 b 414 943 276 963 328 943 b 585 1024 494 943 549 963 l 600 1018 b 413 797 582 893 521 797 m 414 -17 b 18 363 208 -17 18 104 b 414 749 18 644 219 749 b 810 368 618 749 810 628 b 414 -17 810 88 613 -17 m 417 24 b 526 357 489 24 526 56 b 410 708 526 674 479 708 b 301 382 344 708 301 661 b 417 24 301 63 336 24 "},"ő":{"ha":828,"x_min":0,"x_max":0,"o":"m 221 797 l 294 981 b 375 1049 315 1031 344 1049 b 465 961 418 1049 465 1010 b 394 868 465 928 446 894 l 235 786 m 461 797 l 535 981 b 615 1049 556 1031 585 1049 b 706 961 658 1049 706 1010 b 635 868 706 928 686 894 l 475 786 m 414 -17 b 18 363 208 -17 18 104 b 414 749 18 644 219 749 b 810 368 618 749 810 628 b 414 -17 810 88 613 -17 m 417 24 b 526 357 489 24 526 56 b 410 708 526 674 479 708 b 301 382 344 708 301 661 b 417 24 301 63 336 24 "},"ơ":{"ha":828,"x_min":0,"x_max":0,"o":"m 414 -17 b 18 363 208 -17 18 104 b 414 749 18 644 219 749 b 635 693 493 749 569 731 b 738 750 700 696 738 717 b 654 889 738 793 654 817 b 747 982 654 947 693 982 b 853 857 808 982 853 943 b 683 660 853 761 786 682 b 810 368 760 597 810 500 b 414 -17 810 88 613 -17 m 417 24 b 526 357 489 24 526 56 b 410 708 526 674 479 708 b 301 382 344 708 301 661 b 417 24 301 63 336 24 "},"ọ":{"ha":828,"x_min":0,"x_max":0,"o":"m 414 -17 b 18 363 208 -17 18 104 b 414 749 18 644 219 749 b 810 368 618 749 810 628 b 414 -17 810 88 613 -17 m 417 24 b 526 357 489 24 526 56 b 410 708 526 674 479 708 b 301 382 344 708 301 661 b 417 24 301 63 336 24 m 289 -171 b 414 -57 289 -101 344 -57 b 539 -171 486 -57 539 -101 b 414 -285 539 -240 486 -285 b 289 -171 344 -285 289 -240 "},"ỏ":{"ha":828,"x_min":0,"x_max":0,"o":"m 401 807 b 372 863 389 818 372 832 b 428 940 372 900 403 925 b 472 999 454 957 472 971 b 426 1036 472 1025 450 1036 b 388 993 400 1036 394 1022 b 319 931 376 943 357 931 b 258 982 285 931 258 954 b 432 1075 258 1043 343 1075 b 614 968 558 1075 614 1032 b 521 872 614 919 569 893 b 417 813 468 850 417 835 l 417 807 m 414 -17 b 18 363 208 -17 18 104 b 414 749 18 644 219 749 b 810 368 618 749 810 628 b 414 -17 810 88 613 -17 m 417 24 b 526 357 489 24 526 56 b 410 708 526 674 479 708 b 301 382 344 708 301 661 b 417 24 301 63 336 24 "},"ố":{"ha":828,"x_min":0,"x_max":0,"o":"m 554 951 l 607 1114 b 682 1183 622 1160 643 1183 b 768 1103 725 1183 768 1147 b 707 1021 768 1067 744 1040 l 561 944 m 625 807 l 618 794 l 414 872 l 210 794 l 203 807 l 374 1031 l 454 1031 m 414 -17 b 18 363 208 -17 18 104 b 414 749 18 644 219 749 b 810 368 618 749 810 628 b 414 -17 810 88 613 -17 m 417 24 b 526 357 489 24 526 56 b 410 708 526 674 479 708 b 301 382 344 708 301 661 b 417 24 301 63 336 24 "},"ồ":{"ha":828,"x_min":0,"x_max":0,"o":"m 543 1021 b 482 1103 506 1040 482 1067 b 568 1183 482 1147 525 1183 b 643 1114 607 1183 628 1160 l 696 951 l 689 944 m 625 807 l 618 794 l 414 872 l 210 794 l 203 807 l 374 1031 l 454 1031 m 414 -17 b 18 363 208 -17 18 104 b 414 749 18 644 219 749 b 810 368 618 749 810 628 b 414 -17 810 88 613 -17 m 417 24 b 526 357 489 24 526 56 b 410 708 526 674 479 708 b 301 382 344 708 301 661 b 417 24 301 63 336 24 "},"ổ":{"ha":828,"x_min":0,"x_max":0,"o":"m 558 960 b 533 1010 547 969 533 982 b 583 1079 533 1043 560 1067 b 622 1132 607 1094 622 1107 b 582 1167 622 1156 603 1167 b 546 1128 558 1167 553 1154 b 485 1071 536 1082 519 1071 b 431 1117 454 1071 431 1092 b 586 1201 431 1172 507 1201 b 747 1104 700 1201 747 1163 b 664 1018 747 1061 708 1038 b 572 965 617 999 572 985 l 572 960 m 625 807 l 618 794 l 414 872 l 210 794 l 203 807 l 374 1031 l 454 1031 m 414 -17 b 18 363 208 -17 18 104 b 414 749 18 644 219 749 b 810 368 618 749 810 628 b 414 -17 810 88 613 -17 m 417 24 b 526 357 489 24 526 56 b 410 708 526 674 479 708 b 301 382 344 708 301 661 b 417 24 301 63 336 24 "},"ỗ":{"ha":828,"x_min":0,"x_max":0,"o":"m 207 1044 b 356 1246 249 1171 285 1246 b 543 1219 408 1246 489 1219 b 626 1281 579 1219 600 1238 l 646 1269 b 497 1068 606 1143 575 1068 b 310 1093 444 1068 363 1093 b 226 1033 272 1093 253 1076 m 625 807 l 618 794 l 414 872 l 210 794 l 203 807 l 374 1031 l 454 1031 m 414 -17 b 18 363 208 -17 18 104 b 414 749 18 644 219 749 b 810 368 618 749 810 628 b 414 -17 810 88 613 -17 m 417 24 b 526 357 489 24 526 56 b 410 708 526 674 479 708 b 301 382 344 708 301 661 b 417 24 301 63 336 24 "},"ộ":{"ha":828,"x_min":0,"x_max":0,"o":"m 625 807 l 618 794 l 414 872 l 210 794 l 203 807 l 374 1031 l 454 1031 m 414 -17 b 18 363 208 -17 18 104 b 414 749 18 644 219 749 b 810 368 618 749 810 628 b 414 -17 810 88 613 -17 m 417 24 b 526 357 489 24 526 56 b 410 708 526 674 479 708 b 301 382 344 708 301 661 b 417 24 301 63 336 24 m 289 -171 b 414 -57 289 -101 344 -57 b 539 -171 486 -57 539 -101 b 414 -285 539 -240 486 -285 b 289 -171 344 -285 289 -240 "},"ớ":{"ha":828,"x_min":0,"x_max":0,"o":"m 271 814 l 436 993 b 526 1036 464 1022 488 1036 b 621 931 578 1036 621 988 b 543 842 621 890 599 850 l 276 800 m 414 -17 b 18 363 208 -17 18 104 b 414 749 18 644 219 749 b 635 693 493 749 569 731 b 738 750 700 696 738 717 b 654 889 738 793 654 817 b 747 982 654 947 693 982 b 853 857 808 982 853 943 b 683 660 853 761 786 682 b 810 368 760 597 810 500 b 414 -17 810 88 613 -17 m 417 24 b 526 357 489 24 526 56 b 410 708 526 674 479 708 b 301 382 344 708 301 661 b 417 24 301 63 336 24 "},"ờ":{"ha":828,"x_min":0,"x_max":0,"o":"m 290 842 b 213 931 235 850 213 890 b 307 1036 213 988 256 1036 b 397 993 346 1036 369 1022 l 563 814 l 557 800 m 414 -17 b 18 363 208 -17 18 104 b 414 749 18 644 219 749 b 635 693 493 749 569 731 b 738 750 700 696 738 717 b 654 889 738 793 654 817 b 747 982 654 947 693 982 b 853 857 808 982 853 943 b 683 660 853 761 786 682 b 810 368 760 597 810 500 b 414 -17 810 88 613 -17 m 417 24 b 526 357 489 24 526 56 b 410 708 526 674 479 708 b 301 382 344 708 301 661 b 417 24 301 63 336 24 "},"ở":{"ha":828,"x_min":0,"x_max":0,"o":"m 401 807 b 372 863 389 818 372 832 b 428 940 372 900 403 925 b 472 999 454 957 472 971 b 426 1036 472 1025 450 1036 b 388 993 400 1036 394 1022 b 319 931 376 943 357 931 b 258 982 285 931 258 954 b 432 1075 258 1043 343 1075 b 614 968 558 1075 614 1032 b 521 872 614 919 569 893 b 417 813 468 850 417 835 l 417 807 m 414 -17 b 18 363 208 -17 18 104 b 414 749 18 644 219 749 b 635 693 493 749 569 731 b 738 750 700 696 738 717 b 654 889 738 793 654 817 b 747 982 654 947 693 982 b 853 857 808 982 853 943 b 683 660 853 761 786 682 b 810 368 760 597 810 500 b 414 -17 810 88 613 -17 m 417 24 b 526 357 489 24 526 56 b 410 708 526 674 479 708 b 301 382 344 708 301 661 b 417 24 301 63 336 24 "},"ỡ":{"ha":828,"x_min":0,"x_max":0,"o":"m 181 801 b 329 1003 222 928 258 1003 b 544 976 388 1003 483 976 b 628 1038 581 976 601 994 l 647 1026 b 499 825 607 900 576 825 b 283 850 442 825 344 850 b 200 790 246 850 226 833 m 414 -17 b 18 363 208 -17 18 104 b 414 749 18 644 219 749 b 635 693 493 749 569 731 b 738 750 700 696 738 717 b 654 889 738 793 654 817 b 747 982 654 947 693 982 b 853 857 808 982 853 943 b 683 660 853 761 786 682 b 810 368 760 597 810 500 b 414 -17 810 88 613 -17 m 417 24 b 526 357 489 24 526 56 b 410 708 526 674 479 708 b 301 382 344 708 301 661 b 417 24 301 63 336 24 "},"ợ":{"ha":828,"x_min":0,"x_max":0,"o":"m 414 -17 b 18 363 208 -17 18 104 b 414 749 18 644 219 749 b 635 693 493 749 569 731 b 738 750 700 696 738 717 b 654 889 738 793 654 817 b 747 982 654 947 693 982 b 853 857 808 982 853 943 b 683 660 853 761 786 682 b 810 368 760 597 810 500 b 414 -17 810 88 613 -17 m 417 24 b 526 357 489 24 526 56 b 410 708 526 674 479 708 b 301 382 344 708 301 661 b 417 24 301 63 336 24 m 289 -171 b 414 -57 289 -101 344 -57 b 539 -171 486 -57 539 -101 b 414 -285 539 -240 486 -285 b 289 -171 344 -285 289 -240 "},"p":{"ha":885,"x_min":0,"x_max":0,"o":"m -1 -253 l 24 -246 b 82 -162 79 -231 82 -226 l 82 569 b 38 667 82 632 81 636 l -7 699 l -7 713 l 339 749 l 350 740 l 350 643 l 357 643 b 589 749 415 699 482 749 b 858 407 732 749 858 653 b 450 -17 858 101 678 -17 b 356 -6 417 -17 383 -12 l 356 -162 b 410 -244 356 -228 358 -232 l 444 -253 l 444 -276 l -1 -276 m 449 24 b 579 346 532 24 579 74 b 439 615 579 563 526 615 b 356 603 397 615 374 608 l 356 75 b 449 24 374 47 411 24 "},"q":{"ha":872,"x_min":0,"x_max":0,"o":"m 438 -253 l 472 -244 b 526 -162 524 -232 526 -228 l 526 74 l 522 74 b 300 -17 463 19 399 -17 b 26 331 156 -17 26 85 b 439 749 26 631 211 749 b 706 679 553 749 626 724 l 711 679 l 786 743 l 800 736 l 800 -162 b 860 -246 800 -226 803 -231 l 885 -253 l 885 -276 l 438 -276 m 443 100 b 526 117 479 100 511 111 l 526 658 b 436 708 510 683 481 708 b 306 394 363 708 306 638 b 443 100 306 160 350 100 "},"r":{"ha":674,"x_min":0,"x_max":0,"o":"m -1 24 l 24 31 b 82 114 79 46 82 50 l 82 571 b 38 667 82 631 81 636 l -7 699 l -7 713 l 339 749 l 350 740 l 350 629 l 354 629 b 560 747 394 679 469 747 b 674 631 626 747 674 708 b 557 504 674 550 625 504 b 446 578 490 504 465 535 b 413 606 436 599 429 606 b 356 586 393 606 369 599 l 356 114 b 414 31 356 44 363 40 l 444 25 l 444 0 l -1 0 "},"ŕ":{"ha":674,"x_min":0,"x_max":0,"o":"m 215 814 l 381 993 b 471 1036 408 1022 432 1036 b 565 931 522 1036 565 988 b 488 842 565 890 543 850 l 221 800 m -1 24 l 24 31 b 82 114 79 46 82 50 l 82 571 b 38 667 82 631 81 636 l -7 699 l -7 713 l 339 749 l 350 740 l 350 629 l 354 629 b 560 747 394 679 469 747 b 674 631 626 747 674 708 b 557 504 674 550 625 504 b 446 578 490 504 465 535 b 413 606 436 599 429 606 b 356 586 393 606 369 599 l 356 114 b 414 31 356 44 363 40 l 444 25 l 444 0 l -1 0 "},"ŗ":{"ha":674,"x_min":0,"x_max":0,"o":"m -1 24 l 24 31 b 82 114 79 46 82 50 l 82 571 b 38 667 82 631 81 636 l -7 699 l -7 713 l 339 749 l 350 740 l 350 629 l 354 629 b 560 747 394 679 469 747 b 674 631 626 747 674 708 b 557 504 674 550 625 504 b 446 578 490 504 465 535 b 413 606 436 599 429 606 b 356 586 393 606 369 599 l 356 114 b 414 31 356 44 363 40 l 444 25 l 444 0 l -1 0 m 81 -336 b 236 -204 185 -310 228 -264 b 179 -225 222 -218 200 -225 b 94 -143 129 -225 94 -192 b 207 -53 94 -96 139 -53 b 332 -171 276 -53 332 -103 b 83 -351 332 -276 240 -342 "},"ř":{"ha":674,"x_min":0,"x_max":0,"o":"m 333 806 l 163 1029 l 169 1042 l 374 964 l 578 1042 l 585 1029 l 414 806 m -1 24 l 24 31 b 82 114 79 46 82 50 l 82 571 b 38 667 82 631 81 636 l -7 699 l -7 713 l 339 749 l 350 740 l 350 629 l 354 629 b 560 747 394 679 469 747 b 674 631 626 747 674 708 b 557 504 674 550 625 504 b 446 578 490 504 465 535 b 413 606 436 599 429 606 b 356 586 393 606 369 599 l 356 114 b 414 31 356 44 363 40 l 444 25 l 444 0 l -1 0 "},"s":{"ha":615,"x_min":0,"x_max":0,"o":"m 265 -17 b 36 11 178 -17 94 -6 l 28 251 l 54 251 b 164 86 90 186 125 132 b 290 25 200 43 231 25 b 393 119 350 25 393 60 b 218 254 393 176 364 199 b 22 489 90 301 22 369 b 340 749 22 624 121 749 b 538 721 428 749 506 733 l 547 517 l 524 517 b 429 646 486 574 458 617 b 307 707 390 685 364 707 b 210 624 250 707 210 676 b 358 503 210 569 239 544 b 597 250 540 438 597 364 b 265 -17 597 94 483 -17 "},"ś":{"ha":615,"x_min":0,"x_max":0,"o":"m 147 814 l 313 993 b 403 1036 340 1022 364 1036 b 497 931 454 1036 497 988 b 419 842 497 890 475 850 l 153 800 m 265 -17 b 36 11 178 -17 94 -6 l 28 251 l 54 251 b 164 86 90 186 125 132 b 290 25 200 43 231 25 b 393 119 350 25 393 60 b 218 254 393 176 364 199 b 22 489 90 301 22 369 b 340 749 22 624 121 749 b 538 721 428 749 506 733 l 547 517 l 524 517 b 429 646 486 574 458 617 b 307 707 390 685 364 707 b 210 624 250 707 210 676 b 358 503 210 569 239 544 b 597 250 540 438 597 364 b 265 -17 597 94 483 -17 "},"ŝ":{"ha":615,"x_min":0,"x_max":0,"o":"m 519 807 l 513 794 l 308 872 l 104 794 l 97 807 l 268 1031 l 349 1031 m 265 -17 b 36 11 178 -17 94 -6 l 28 251 l 54 251 b 164 86 90 186 125 132 b 290 25 200 43 231 25 b 393 119 350 25 393 60 b 218 254 393 176 364 199 b 22 489 90 301 22 369 b 340 749 22 624 121 749 b 538 721 428 749 506 733 l 547 517 l 524 517 b 429 646 486 574 458 617 b 307 707 390 685 364 707 b 210 624 250 707 210 676 b 358 503 210 569 239 544 b 597 250 540 438 597 364 b 265 -17 597 94 483 -17 "},"ş":{"ha":615,"x_min":0,"x_max":0,"o":"m 113 -260 b 228 -179 188 -243 228 -211 b 176 -146 228 -157 211 -147 l 171 -139 l 231 -17 b 36 11 157 -14 86 -3 l 28 251 l 54 251 b 164 86 90 186 125 132 b 290 25 200 43 231 25 b 393 119 350 25 393 60 b 218 254 393 176 364 199 b 22 489 90 301 22 369 b 340 749 22 624 121 749 b 538 721 428 749 506 733 l 547 517 l 524 517 b 429 646 486 574 458 617 b 307 707 390 685 364 707 b 210 624 250 707 210 676 b 358 503 210 569 239 544 b 597 250 540 438 597 364 b 276 -17 597 97 488 -12 l 247 -56 b 367 -144 329 -62 367 -99 b 113 -281 367 -228 231 -269 "},"š":{"ha":615,"x_min":0,"x_max":0,"o":"m 272 806 l 101 1029 l 108 1042 l 313 964 l 517 1042 l 524 1029 l 353 806 m 265 -17 b 36 11 178 -17 94 -6 l 28 251 l 54 251 b 164 86 90 186 125 132 b 290 25 200 43 231 25 b 393 119 350 25 393 60 b 218 254 393 176 364 199 b 22 489 90 301 22 369 b 340 749 22 624 121 749 b 538 721 428 749 506 733 l 547 517 l 524 517 b 429 646 486 574 458 617 b 307 707 390 685 364 707 b 210 624 250 707 210 676 b 358 503 210 569 239 544 b 597 250 540 438 597 364 b 265 -17 597 94 483 -17 "},"ș":{"ha":615,"x_min":0,"x_max":0,"o":"m 265 -17 b 36 11 178 -17 94 -6 l 28 251 l 54 251 b 164 86 90 186 125 132 b 290 25 200 43 231 25 b 393 119 350 25 393 60 b 218 254 393 176 364 199 b 22 489 90 301 22 369 b 340 749 22 624 121 749 b 538 721 428 749 506 733 l 547 517 l 524 517 b 429 646 486 574 458 617 b 307 707 390 685 364 707 b 210 624 250 707 210 676 b 358 503 210 569 239 544 b 597 250 540 438 597 364 b 265 -17 597 94 483 -17 m 165 -336 b 321 -204 269 -310 313 -264 b 264 -225 307 -218 285 -225 b 179 -143 214 -225 179 -192 b 292 -53 179 -96 224 -53 b 417 -171 361 -53 417 -103 b 168 -351 417 -276 325 -342 "},"t":{"ha":524,"x_min":0,"x_max":0,"o":"m 288 -17 b 68 204 132 -17 68 49 l 68 656 l -8 656 l -8 672 b 272 925 113 717 226 822 l 342 925 l 342 731 l 511 731 l 500 656 l 342 656 l 342 203 b 432 100 342 121 357 100 b 522 111 464 100 501 106 l 522 88 b 288 -17 485 43 418 -17 "},"ţ":{"ha":524,"x_min":0,"x_max":0,"o":"m 50 -260 b 165 -179 125 -243 165 -211 b 114 -146 165 -157 149 -147 l 108 -139 l 176 0 b 68 204 101 28 68 93 l 68 656 l -8 656 l -8 672 b 272 925 113 717 226 822 l 342 925 l 342 731 l 511 731 l 500 656 l 342 656 l 342 203 b 432 100 342 121 357 100 b 522 111 464 100 501 106 l 522 88 b 288 -17 485 43 418 -17 b 218 -11 263 -17 239 -15 l 185 -56 b 304 -144 267 -62 304 -99 b 50 -281 304 -228 168 -269 "},"ť":{"ha":524,"x_min":0,"x_max":0,"o":"m 392 789 l 397 988 b 465 1057 397 1031 417 1057 b 554 989 513 1057 551 1025 b 531 929 554 972 551 953 l 407 783 m 288 -17 b 68 204 132 -17 68 49 l 68 656 l -8 656 l -8 672 b 272 925 113 717 226 822 l 342 925 l 342 731 l 511 731 l 500 656 l 342 656 l 342 203 b 432 100 342 121 357 100 b 522 111 464 100 501 106 l 522 88 b 288 -17 485 43 418 -17 "},"ț":{"ha":524,"x_min":0,"x_max":0,"o":"m 288 -17 b 68 204 132 -17 68 49 l 68 656 l -8 656 l -8 672 b 272 925 113 717 226 822 l 342 925 l 342 731 l 511 731 l 500 656 l 342 656 l 342 203 b 432 100 342 121 357 100 b 522 111 464 100 501 106 l 522 88 b 288 -17 485 43 418 -17 m 150 -336 b 306 -204 254 -310 297 -264 b 249 -225 292 -218 269 -225 b 164 -143 199 -225 164 -192 b 276 -53 164 -96 208 -53 b 401 -171 346 -53 401 -103 b 153 -351 401 -276 310 -342 "},"ṭ":{"ha":524,"x_min":0,"x_max":0,"o":"m 288 -17 b 68 204 132 -17 68 49 l 68 656 l -8 656 l -8 672 b 272 925 113 717 226 822 l 342 925 l 342 731 l 511 731 l 500 656 l 342 656 l 342 203 b 432 100 342 121 357 100 b 522 111 464 100 501 106 l 522 88 b 288 -17 485 43 418 -17 m 136 -171 b 261 -57 136 -101 192 -57 b 386 -171 333 -57 386 -101 b 261 -285 386 -240 333 -285 b 136 -171 192 -285 136 -240 "},"u":{"ha":886,"x_min":0,"x_max":0,"o":"m 529 568 b 485 667 529 631 526 638 l 440 699 l 440 713 l 792 749 l 803 740 l 803 161 b 851 63 803 88 806 79 l 885 50 l 885 32 l 546 -17 l 535 -8 l 535 94 l 531 94 b 261 -17 456 36 375 -17 b 82 169 153 -17 82 46 l 82 568 b 38 667 82 631 81 635 l -7 699 l -7 713 l 344 749 l 356 740 l 356 235 b 435 126 356 151 385 126 b 529 135 479 126 507 131 "},"ù":{"ha":886,"x_min":0,"x_max":0,"o":"m 325 842 b 247 931 269 850 247 890 b 342 1036 247 988 290 1036 b 432 993 381 1036 404 1022 l 597 814 l 592 800 m 529 568 b 485 667 529 631 526 638 l 440 699 l 440 713 l 792 749 l 803 740 l 803 161 b 851 63 803 88 806 79 l 885 50 l 885 32 l 546 -17 l 535 -8 l 535 94 l 531 94 b 261 -17 456 36 375 -17 b 82 169 153 -17 82 46 l 82 568 b 38 667 82 631 81 635 l -7 699 l -7 713 l 344 749 l 356 740 l 356 235 b 435 126 356 151 385 126 b 529 135 479 126 507 131 "},"ú":{"ha":886,"x_min":0,"x_max":0,"o":"m 290 814 l 456 993 b 546 1036 483 1022 507 1036 b 640 931 597 1036 640 988 b 563 842 640 890 618 850 l 296 800 m 529 568 b 485 667 529 631 526 638 l 440 699 l 440 713 l 792 749 l 803 740 l 803 161 b 851 63 803 88 806 79 l 885 50 l 885 32 l 546 -17 l 535 -8 l 535 94 l 531 94 b 261 -17 456 36 375 -17 b 82 169 153 -17 82 46 l 82 568 b 38 667 82 631 81 635 l -7 699 l -7 713 l 344 749 l 356 740 l 356 235 b 435 126 356 151 385 126 b 529 135 479 126 507 131 "},"û":{"ha":886,"x_min":0,"x_max":0,"o":"m 651 807 l 644 794 l 440 872 l 236 794 l 229 807 l 400 1031 l 481 1031 m 529 568 b 485 667 529 631 526 638 l 440 699 l 440 713 l 792 749 l 803 740 l 803 161 b 851 63 803 88 806 79 l 885 50 l 885 32 l 546 -17 l 535 -8 l 535 94 l 531 94 b 261 -17 456 36 375 -17 b 82 169 153 -17 82 46 l 82 568 b 38 667 82 631 81 635 l -7 699 l -7 713 l 344 749 l 356 740 l 356 235 b 435 126 356 151 385 126 b 529 135 479 126 507 131 "},"ü":{"ha":886,"x_min":0,"x_max":0,"o":"m 160 911 b 283 1029 160 986 217 1029 b 408 911 353 1029 408 986 b 283 792 408 835 353 792 b 160 911 217 792 160 835 m 456 911 b 579 1029 456 986 513 1029 b 704 911 649 1029 704 986 b 579 792 704 835 649 792 b 456 911 513 792 456 835 m 529 568 b 485 667 529 631 526 638 l 440 699 l 440 713 l 792 749 l 803 740 l 803 161 b 851 63 803 88 806 79 l 885 50 l 885 32 l 546 -17 l 535 -8 l 535 94 l 531 94 b 261 -17 456 36 375 -17 b 82 169 153 -17 82 46 l 82 568 b 38 667 82 631 81 635 l -7 699 l -7 713 l 344 749 l 356 740 l 356 235 b 435 126 356 151 385 126 b 529 135 479 126 507 131 "},"ũ":{"ha":886,"x_min":0,"x_max":0,"o":"m 236 801 b 385 1003 278 928 314 1003 b 600 976 443 1003 539 976 b 683 1038 636 976 657 994 l 703 1026 b 554 825 663 900 632 825 b 339 850 497 825 400 850 b 256 790 301 850 282 833 m 529 568 b 485 667 529 631 526 638 l 440 699 l 440 713 l 792 749 l 803 740 l 803 161 b 851 63 803 88 806 79 l 885 50 l 885 32 l 546 -17 l 535 -8 l 535 94 l 531 94 b 261 -17 456 36 375 -17 b 82 169 153 -17 82 46 l 82 568 b 38 667 82 631 81 635 l -7 699 l -7 713 l 344 749 l 356 740 l 356 235 b 435 126 356 151 385 126 b 529 135 479 126 507 131 "},"ū":{"ha":886,"x_min":0,"x_max":0,"o":"m 243 949 l 643 949 l 643 853 l 243 853 m 529 568 b 485 667 529 631 526 638 l 440 699 l 440 713 l 792 749 l 803 740 l 803 161 b 851 63 803 88 806 79 l 885 50 l 885 32 l 546 -17 l 535 -8 l 535 94 l 531 94 b 261 -17 456 36 375 -17 b 82 169 153 -17 82 46 l 82 568 b 38 667 82 631 81 635 l -7 699 l -7 713 l 344 749 l 356 740 l 356 235 b 435 126 356 151 385 126 b 529 135 479 126 507 131 "},"ŭ":{"ha":886,"x_min":0,"x_max":0,"o":"m 447 797 b 263 1018 342 797 285 893 l 278 1024 b 449 943 311 963 363 943 b 619 1024 529 943 583 963 l 635 1018 b 447 797 617 893 556 797 m 529 568 b 485 667 529 631 526 638 l 440 699 l 440 713 l 792 749 l 803 740 l 803 161 b 851 63 803 88 806 79 l 885 50 l 885 32 l 546 -17 l 535 -8 l 535 94 l 531 94 b 261 -17 456 36 375 -17 b 82 169 153 -17 82 46 l 82 568 b 38 667 82 631 81 635 l -7 699 l -7 713 l 344 749 l 356 740 l 356 235 b 435 126 356 151 385 126 b 529 135 479 126 507 131 "},"ů":{"ha":886,"x_min":0,"x_max":0,"o":"m 314 917 b 446 1043 314 990 376 1043 b 578 917 515 1043 578 990 b 446 790 578 843 515 790 b 314 917 376 790 314 843 m 367 917 b 446 829 367 867 396 829 b 525 917 496 829 525 867 b 446 1004 525 967 496 1004 b 367 917 396 1004 367 967 m 529 568 b 485 667 529 631 526 638 l 440 699 l 440 713 l 792 749 l 803 740 l 803 161 b 851 63 803 88 806 79 l 885 50 l 885 32 l 546 -17 l 535 -8 l 535 94 l 531 94 b 261 -17 456 36 375 -17 b 82 169 153 -17 82 46 l 82 568 b 38 667 82 631 81 635 l -7 699 l -7 713 l 344 749 l 356 740 l 356 235 b 435 126 356 151 385 126 b 529 135 479 126 507 131 "},"ű":{"ha":886,"x_min":0,"x_max":0,"o":"m 260 797 l 333 981 b 414 1049 354 1031 383 1049 b 504 961 457 1049 504 1010 b 433 868 504 928 485 894 l 274 786 m 500 797 l 574 981 b 654 1049 594 1031 624 1049 b 744 961 697 1049 744 1010 b 674 868 744 928 725 894 l 514 786 m 529 568 b 485 667 529 631 526 638 l 440 699 l 440 713 l 792 749 l 803 740 l 803 161 b 851 63 803 88 806 79 l 885 50 l 885 32 l 546 -17 l 535 -8 l 535 94 l 531 94 b 261 -17 456 36 375 -17 b 82 169 153 -17 82 46 l 82 568 b 38 667 82 631 81 635 l -7 699 l -7 713 l 344 749 l 356 740 l 356 235 b 435 126 356 151 385 126 b 529 135 479 126 507 131 "},"ų":{"ha":886,"x_min":0,"x_max":0,"o":"m 533 94 b 261 -17 458 36 375 -17 b 82 169 153 -17 82 46 l 82 568 b 38 667 82 631 81 635 l -7 699 l -7 713 l 344 749 l 356 740 l 356 235 b 435 126 356 151 385 126 b 529 135 479 126 507 131 l 529 568 b 485 667 529 631 526 638 l 440 699 l 440 713 l 792 749 l 803 740 l 803 161 b 851 63 803 88 806 79 l 885 50 l 885 32 l 800 19 b 563 -147 621 -7 563 -58 b 632 -215 563 -196 590 -215 b 664 -211 646 -215 651 -214 l 664 -232 b 538 -285 639 -258 604 -285 b 390 -176 440 -285 390 -242 b 538 -28 390 -110 439 -67 l 538 94 "},"ư":{"ha":956,"x_min":0,"x_max":0,"o":"m 529 568 b 485 667 529 631 526 638 l 440 699 l 440 713 l 792 749 l 803 740 l 803 696 b 886 750 858 701 886 721 b 803 889 886 793 803 817 b 896 982 803 947 842 982 b 1001 857 957 982 1001 943 b 803 656 1001 754 938 669 l 803 161 b 851 63 803 88 806 79 l 885 50 l 885 32 l 546 -17 l 535 -8 l 535 94 l 531 94 b 261 -17 456 36 375 -17 b 82 169 153 -17 82 46 l 82 568 b 38 667 82 631 81 635 l -7 699 l -7 713 l 344 749 l 356 740 l 356 235 b 435 126 356 151 385 126 b 529 135 479 126 507 131 "},"ụ":{"ha":886,"x_min":0,"x_max":0,"o":"m 529 568 b 485 667 529 631 526 638 l 440 699 l 440 713 l 792 749 l 803 740 l 803 161 b 851 63 803 88 806 79 l 885 50 l 885 32 l 546 -17 l 535 -8 l 535 94 l 531 94 b 261 -17 456 36 375 -17 b 82 169 153 -17 82 46 l 82 568 b 38 667 82 631 81 635 l -7 699 l -7 713 l 344 749 l 356 740 l 356 235 b 435 126 356 151 385 126 b 529 135 479 126 507 131 m 311 -171 b 436 -57 311 -101 367 -57 b 561 -171 508 -57 561 -101 b 436 -285 561 -240 508 -285 b 311 -171 367 -285 311 -240 "},"ủ":{"ha":886,"x_min":0,"x_max":0,"o":"m 424 807 b 394 863 411 818 394 832 b 450 940 394 900 425 925 b 494 999 476 957 494 971 b 449 1036 494 1025 472 1036 b 410 993 422 1036 417 1022 b 342 931 399 943 379 931 b 281 982 307 931 281 954 b 454 1075 281 1043 365 1075 b 636 968 581 1075 636 1032 b 543 872 636 919 592 893 b 439 813 490 850 439 835 l 439 807 m 529 568 b 485 667 529 631 526 638 l 440 699 l 440 713 l 792 749 l 803 740 l 803 161 b 851 63 803 88 806 79 l 885 50 l 885 32 l 546 -17 l 535 -8 l 535 94 l 531 94 b 261 -17 456 36 375 -17 b 82 169 153 -17 82 46 l 82 568 b 38 667 82 631 81 635 l -7 699 l -7 713 l 344 749 l 356 740 l 356 235 b 435 126 356 151 385 126 b 529 135 479 126 507 131 "},"ứ":{"ha":956,"x_min":0,"x_max":0,"o":"m 310 814 l 475 993 b 565 1036 503 1022 526 1036 b 660 931 617 1036 660 988 b 582 842 660 890 638 850 l 315 800 m 529 568 b 485 667 529 631 526 638 l 440 699 l 440 713 l 792 749 l 803 740 l 803 696 b 886 750 858 701 886 721 b 803 889 886 793 803 817 b 896 982 803 947 842 982 b 1001 857 957 982 1001 943 b 803 656 1001 754 938 669 l 803 161 b 851 63 803 88 806 79 l 885 50 l 885 32 l 546 -17 l 535 -8 l 535 94 l 531 94 b 261 -17 456 36 375 -17 b 82 169 153 -17 82 46 l 82 568 b 38 667 82 631 81 635 l -7 699 l -7 713 l 344 749 l 356 740 l 356 235 b 435 126 356 151 385 126 b 529 135 479 126 507 131 "},"ừ":{"ha":956,"x_min":0,"x_max":0,"o":"m 313 842 b 235 931 257 850 235 890 b 329 1036 235 988 278 1036 b 419 993 368 1036 392 1022 l 585 814 l 579 800 m 529 568 b 485 667 529 631 526 638 l 440 699 l 440 713 l 792 749 l 803 740 l 803 696 b 886 750 858 701 886 721 b 803 889 886 793 803 817 b 896 982 803 947 842 982 b 1001 857 957 982 1001 943 b 803 656 1001 754 938 669 l 803 161 b 851 63 803 88 806 79 l 885 50 l 885 32 l 546 -17 l 535 -8 l 535 94 l 531 94 b 261 -17 456 36 375 -17 b 82 169 153 -17 82 46 l 82 568 b 38 667 82 631 81 635 l -7 699 l -7 713 l 344 749 l 356 740 l 356 235 b 435 126 356 151 385 126 b 529 135 479 126 507 131 "},"ử":{"ha":956,"x_min":0,"x_max":0,"o":"m 424 807 b 394 863 411 818 394 832 b 450 940 394 900 425 925 b 494 999 476 957 494 971 b 449 1036 494 1025 472 1036 b 410 993 422 1036 417 1022 b 342 931 399 943 379 931 b 281 982 307 931 281 954 b 454 1075 281 1043 365 1075 b 636 968 581 1075 636 1032 b 543 872 636 919 592 893 b 439 813 490 850 439 835 l 439 807 m 529 568 b 485 667 529 631 526 638 l 440 699 l 440 713 l 792 749 l 803 740 l 803 696 b 886 750 858 701 886 721 b 803 889 886 793 803 817 b 896 982 803 947 842 982 b 1001 857 957 982 1001 943 b 803 656 1001 754 938 669 l 803 161 b 851 63 803 88 806 79 l 885 50 l 885 32 l 546 -17 l 535 -8 l 535 94 l 531 94 b 261 -17 456 36 375 -17 b 82 169 153 -17 82 46 l 82 568 b 38 667 82 631 81 635 l -7 699 l -7 713 l 344 749 l 356 740 l 356 235 b 435 126 356 151 385 126 b 529 135 479 126 507 131 "},"ữ":{"ha":956,"x_min":0,"x_max":0,"o":"m 233 801 b 382 1003 275 928 311 1003 b 597 976 440 1003 536 976 b 681 1038 633 976 654 994 l 700 1026 b 551 825 660 900 629 825 b 336 850 494 825 397 850 b 253 790 299 850 279 833 m 529 568 b 485 667 529 631 526 638 l 440 699 l 440 713 l 792 749 l 803 740 l 803 696 b 886 750 858 701 886 721 b 803 889 886 793 803 817 b 896 982 803 947 842 982 b 1001 857 957 982 1001 943 b 803 656 1001 754 938 669 l 803 161 b 851 63 803 88 806 79 l 885 50 l 885 32 l 546 -17 l 535 -8 l 535 94 l 531 94 b 261 -17 456 36 375 -17 b 82 169 153 -17 82 46 l 82 568 b 38 667 82 631 81 635 l -7 699 l -7 713 l 344 749 l 356 740 l 356 235 b 435 126 356 151 385 126 b 529 135 479 126 507 131 "},"ự":{"ha":956,"x_min":0,"x_max":0,"o":"m 529 568 b 485 667 529 631 526 638 l 440 699 l 440 713 l 792 749 l 803 740 l 803 696 b 886 750 858 701 886 721 b 803 889 886 793 803 817 b 896 982 803 947 842 982 b 1001 857 957 982 1001 943 b 803 656 1001 754 938 669 l 803 161 b 851 63 803 88 806 79 l 885 50 l 885 32 l 546 -17 l 535 -8 l 535 94 l 531 94 b 261 -17 456 36 375 -17 b 82 169 153 -17 82 46 l 82 568 b 38 667 82 631 81 635 l -7 699 l -7 713 l 344 749 l 356 740 l 356 235 b 435 126 356 151 385 126 b 529 135 479 126 507 131 m 311 -171 b 436 -57 311 -101 367 -57 b 561 -171 508 -57 561 -101 b 436 -285 561 -240 508 -285 b 311 -171 367 -285 311 -240 "},"v":{"ha":781,"x_min":0,"x_max":0,"o":"m 89 581 b 1 700 50 672 38 688 l -19 707 l -19 731 l 464 731 l 464 707 l 432 697 b 378 639 394 686 378 674 b 397 557 378 613 385 589 l 513 250 l 517 250 l 615 539 b 640 643 631 582 640 619 b 586 697 640 671 621 686 l 556 707 l 556 731 l 800 731 l 800 707 l 782 700 b 685 565 742 685 722 663 l 465 0 l 336 0 "},"w":{"ha":1192,"x_min":0,"x_max":0,"o":"m 885 0 l 763 0 l 606 435 l 603 435 l 435 0 l 313 0 l 85 582 b 4 700 46 681 31 692 l -19 707 l -19 731 l 419 731 l 419 707 l 403 703 b 361 658 374 696 361 682 b 385 558 361 636 369 607 l 482 257 l 486 257 l 579 504 l 551 582 b 475 701 517 681 507 692 l 456 707 l 456 731 l 903 731 l 903 707 l 874 699 b 818 639 835 688 818 674 b 835 558 818 619 824 592 l 931 257 l 936 257 l 1035 558 b 1053 644 1046 593 1053 619 b 1006 697 1053 671 1039 689 l 968 707 l 968 731 l 1211 731 l 1211 707 l 1193 700 b 1097 567 1151 685 1135 668 "},"ŵ":{"ha":1192,"x_min":0,"x_max":0,"o":"m 821 807 l 814 794 l 610 872 l 406 794 l 399 807 l 569 1031 l 650 1031 m 885 0 l 763 0 l 606 435 l 603 435 l 435 0 l 313 0 l 85 582 b 4 700 46 681 31 692 l -19 707 l -19 731 l 419 731 l 419 707 l 403 703 b 361 658 374 696 361 682 b 385 558 361 636 369 607 l 482 257 l 486 257 l 579 504 l 551 582 b 475 701 517 681 507 692 l 456 707 l 456 731 l 903 731 l 903 707 l 874 699 b 818 639 835 688 818 674 b 835 558 818 619 824 592 l 931 257 l 936 257 l 1035 558 b 1053 644 1046 593 1053 619 b 1006 697 1053 671 1039 689 l 968 707 l 968 731 l 1211 731 l 1211 707 l 1193 700 b 1097 567 1151 685 1135 668 "},"ẁ":{"ha":1192,"x_min":0,"x_max":0,"o":"m 507 842 b 429 931 451 850 429 890 b 524 1036 429 988 472 1036 b 614 993 563 1036 586 1022 l 779 814 l 774 800 m 885 0 l 763 0 l 606 435 l 603 435 l 435 0 l 313 0 l 85 582 b 4 700 46 681 31 692 l -19 707 l -19 731 l 419 731 l 419 707 l 403 703 b 361 658 374 696 361 682 b 385 558 361 636 369 607 l 482 257 l 486 257 l 579 504 l 551 582 b 475 701 517 681 507 692 l 456 707 l 456 731 l 903 731 l 903 707 l 874 699 b 818 639 835 688 818 674 b 835 558 818 619 824 592 l 931 257 l 936 257 l 1035 558 b 1053 644 1046 593 1053 619 b 1006 697 1053 671 1039 689 l 968 707 l 968 731 l 1211 731 l 1211 707 l 1193 700 b 1097 567 1151 685 1135 668 "},"ẃ":{"ha":1192,"x_min":0,"x_max":0,"o":"m 506 814 l 671 993 b 761 1036 699 1022 722 1036 b 856 931 813 1036 856 988 b 778 842 856 890 833 850 l 511 800 m 885 0 l 763 0 l 606 435 l 603 435 l 435 0 l 313 0 l 85 582 b 4 700 46 681 31 692 l -19 707 l -19 731 l 419 731 l 419 707 l 403 703 b 361 658 374 696 361 682 b 385 558 361 636 369 607 l 482 257 l 486 257 l 579 504 l 551 582 b 475 701 517 681 507 692 l 456 707 l 456 731 l 903 731 l 903 707 l 874 699 b 818 639 835 688 818 674 b 835 558 818 619 824 592 l 931 257 l 936 257 l 1035 558 b 1053 644 1046 593 1053 619 b 1006 697 1053 671 1039 689 l 968 707 l 968 731 l 1211 731 l 1211 707 l 1193 700 b 1097 567 1151 685 1135 668 "},"ẅ":{"ha":1192,"x_min":0,"x_max":0,"o":"m 346 911 b 469 1029 346 986 403 1029 b 594 911 539 1029 594 986 b 469 792 594 835 539 792 b 346 911 403 792 346 835 m 642 911 b 765 1029 642 986 699 1029 b 890 911 835 1029 890 986 b 765 792 890 835 835 792 b 642 911 699 792 642 835 m 885 0 l 763 0 l 606 435 l 603 435 l 435 0 l 313 0 l 85 582 b 4 700 46 681 31 692 l -19 707 l -19 731 l 419 731 l 419 707 l 403 703 b 361 658 374 696 361 682 b 385 558 361 636 369 607 l 482 257 l 486 257 l 579 504 l 551 582 b 475 701 517 681 507 692 l 456 707 l 456 731 l 903 731 l 903 707 l 874 699 b 818 639 835 688 818 674 b 835 558 818 619 824 592 l 931 257 l 936 257 l 1035 558 b 1053 644 1046 593 1053 619 b 1006 697 1053 671 1039 689 l 968 707 l 968 731 l 1211 731 l 1211 707 l 1193 700 b 1097 567 1151 685 1135 668 "},"x":{"ha":811,"x_min":0,"x_max":0,"o":"m 710 126 b 803 29 761 49 765 40 l 821 24 l 821 0 l 340 0 l 340 24 l 369 29 b 413 72 396 35 413 51 b 381 151 413 92 406 111 l 286 300 l 282 300 l 206 172 b 171 76 179 128 171 101 b 219 29 171 50 185 36 l 247 24 l 247 0 l -15 0 l -15 24 l 13 29 b 115 125 44 36 63 47 l 258 340 l 89 604 b 0 701 38 683 26 693 l -18 707 l -18 731 l 463 731 l 463 707 l 436 701 b 383 654 410 696 383 683 b 417 576 383 638 390 617 l 504 439 l 508 439 l 572 564 b 596 644 592 601 596 624 b 539 701 596 669 581 692 l 515 707 l 515 731 l 779 731 l 779 707 l 760 701 b 647 586 721 692 693 661 l 533 397 l 710 126 "},"y":{"ha":771,"x_min":0,"x_max":0,"o":"m 611 547 b 636 640 626 589 636 617 b 588 697 636 668 621 689 l 551 707 l 551 731 l 790 731 l 790 707 l 764 697 b 679 561 735 686 721 661 l 415 -60 b 161 -285 353 -207 296 -285 b 14 -169 83 -285 14 -242 b 122 -74 14 -110 53 -74 b 224 -167 174 -74 215 -96 b 249 -203 226 -194 231 -203 b 369 -49 278 -203 324 -162 l 375 -35 l 88 579 b 1 700 43 676 26 692 l -19 707 l -19 731 l 456 731 l 456 707 l 419 696 b 371 638 394 688 371 674 b 393 557 371 617 381 589 l 504 276 l 510 276 "},"ý":{"ha":771,"x_min":0,"x_max":0,"o":"m 285 814 l 450 993 b 540 1036 478 1022 501 1036 b 635 931 592 1036 635 988 b 557 842 635 890 613 850 l 290 800 m 611 547 b 636 640 626 589 636 617 b 588 697 636 668 621 689 l 551 707 l 551 731 l 790 731 l 790 707 l 764 697 b 679 561 735 686 721 661 l 415 -60 b 161 -285 353 -207 296 -285 b 14 -169 83 -285 14 -242 b 122 -74 14 -110 53 -74 b 224 -167 174 -74 215 -96 b 249 -203 226 -194 231 -203 b 369 -49 278 -203 324 -162 l 375 -35 l 88 579 b 1 700 43 676 26 692 l -19 707 l -19 731 l 456 731 l 456 707 l 419 696 b 371 638 394 688 371 674 b 393 557 371 617 381 589 l 504 276 l 510 276 "},"ÿ":{"ha":771,"x_min":0,"x_max":0,"o":"m 161 911 b 285 1029 161 986 218 1029 b 410 911 354 1029 410 986 b 285 792 410 835 354 792 b 161 911 218 792 161 835 m 457 911 b 581 1029 457 986 514 1029 b 706 911 650 1029 706 986 b 581 792 706 835 650 792 b 457 911 514 792 457 835 m 611 547 b 636 640 626 589 636 617 b 588 697 636 668 621 689 l 551 707 l 551 731 l 790 731 l 790 707 l 764 697 b 679 561 735 686 721 661 l 415 -60 b 161 -285 353 -207 296 -285 b 14 -169 83 -285 14 -242 b 122 -74 14 -110 53 -74 b 224 -167 174 -74 215 -96 b 249 -203 226 -194 231 -203 b 369 -49 278 -203 324 -162 l 375 -35 l 88 579 b 1 700 43 676 26 692 l -19 707 l -19 731 l 456 731 l 456 707 l 419 696 b 371 638 394 688 371 674 b 393 557 371 617 381 589 l 504 276 l 510 276 "},"ŷ":{"ha":771,"x_min":0,"x_max":0,"o":"m 638 807 l 631 794 l 426 872 l 222 794 l 215 807 l 386 1031 l 467 1031 m 611 547 b 636 640 626 589 636 617 b 588 697 636 668 621 689 l 551 707 l 551 731 l 790 731 l 790 707 l 764 697 b 679 561 735 686 721 661 l 415 -60 b 161 -285 353 -207 296 -285 b 14 -169 83 -285 14 -242 b 122 -74 14 -110 53 -74 b 224 -167 174 -74 215 -96 b 249 -203 226 -194 231 -203 b 369 -49 278 -203 324 -162 l 375 -35 l 88 579 b 1 700 43 676 26 692 l -19 707 l -19 731 l 456 731 l 456 707 l 419 696 b 371 638 394 688 371 674 b 393 557 371 617 381 589 l 504 276 l 510 276 "},"ỳ":{"ha":771,"x_min":0,"x_max":0,"o":"m 304 842 b 226 931 249 850 226 890 b 321 1036 226 988 269 1036 b 411 993 360 1036 383 1022 l 576 814 l 571 800 m 611 547 b 636 640 626 589 636 617 b 588 697 636 668 621 689 l 551 707 l 551 731 l 790 731 l 790 707 l 764 697 b 679 561 735 686 721 661 l 415 -60 b 161 -285 353 -207 296 -285 b 14 -169 83 -285 14 -242 b 122 -74 14 -110 53 -74 b 224 -167 174 -74 215 -96 b 249 -203 226 -194 231 -203 b 369 -49 278 -203 324 -162 l 375 -35 l 88 579 b 1 700 43 676 26 692 l -19 707 l -19 731 l 456 731 l 456 707 l 419 696 b 371 638 394 688 371 674 b 393 557 371 617 381 589 l 504 276 l 510 276 "},"ỵ":{"ha":771,"x_min":0,"x_max":0,"o":"m 611 547 b 636 640 626 589 636 617 b 588 697 636 668 621 689 l 551 707 l 551 731 l 790 731 l 790 707 l 764 697 b 679 561 735 686 721 661 l 415 -60 b 161 -285 353 -207 296 -285 b 14 -169 83 -285 14 -242 b 122 -74 14 -110 53 -74 b 224 -167 174 -74 215 -96 b 249 -203 226 -194 231 -203 b 369 -49 278 -203 324 -162 l 375 -35 l 88 579 b 1 700 43 676 26 692 l -19 707 l -19 731 l 456 731 l 456 707 l 419 696 b 371 638 394 688 371 674 b 393 557 371 617 381 589 l 504 276 l 510 276 m 422 -171 b 547 -57 422 -101 478 -57 b 672 -171 619 -57 672 -101 b 547 -285 672 -240 619 -285 b 422 -171 478 -285 422 -240 "},"ỷ":{"ha":771,"x_min":0,"x_max":0,"o":"m 451 807 b 422 863 439 818 422 832 b 478 940 422 900 453 925 b 522 999 504 957 522 971 b 476 1036 522 1025 500 1036 b 438 993 450 1036 444 1022 b 369 931 426 943 407 931 b 308 982 335 931 308 954 b 482 1075 308 1043 393 1075 b 664 968 608 1075 664 1032 b 571 872 664 919 619 893 b 467 813 518 850 467 835 l 467 807 m 611 547 b 636 640 626 589 636 617 b 588 697 636 668 621 689 l 551 707 l 551 731 l 790 731 l 790 707 l 764 697 b 679 561 735 686 721 661 l 415 -60 b 161 -285 353 -207 296 -285 b 14 -169 83 -285 14 -242 b 122 -74 14 -110 53 -74 b 224 -167 174 -74 215 -96 b 249 -203 226 -194 231 -203 b 369 -49 278 -203 324 -162 l 375 -35 l 88 579 b 1 700 43 676 26 692 l -19 707 l -19 731 l 456 731 l 456 707 l 419 696 b 371 638 394 688 371 674 b 393 557 371 617 381 589 l 504 276 l 510 276 "},"ỹ":{"ha":771,"x_min":0,"x_max":0,"o":"m 231 801 b 379 1003 272 928 308 1003 b 594 976 438 1003 533 976 b 678 1038 631 976 651 994 l 697 1026 b 549 825 657 900 626 825 b 333 850 492 825 394 850 b 250 790 296 850 276 833 m 611 547 b 636 640 626 589 636 617 b 588 697 636 668 621 689 l 551 707 l 551 731 l 790 731 l 790 707 l 764 697 b 679 561 735 686 721 661 l 415 -60 b 161 -285 353 -207 296 -285 b 14 -169 83 -285 14 -242 b 122 -74 14 -110 53 -74 b 224 -167 174 -74 215 -96 b 249 -203 226 -194 231 -203 b 369 -49 278 -203 324 -162 l 375 -35 l 88 579 b 1 700 43 676 26 692 l -19 707 l -19 731 l 456 731 l 456 707 l 419 696 b 371 638 394 688 371 674 b 393 557 371 617 381 589 l 504 276 l 510 276 "},"z":{"ha":714,"x_min":0,"x_max":0,"o":"m 17 57 l 393 676 l 393 682 l 349 682 b 190 636 254 682 233 679 b 75 460 157 603 122 540 l 53 460 l 71 731 l 693 731 l 693 676 l 318 54 l 318 49 l 376 49 b 557 99 496 49 521 63 b 674 276 592 133 631 197 l 697 276 l 669 0 l 17 0 "},"ź":{"ha":714,"x_min":0,"x_max":0,"o":"m 236 814 l 401 993 b 492 1036 429 1022 453 1036 b 586 931 543 1036 586 988 b 508 842 586 890 564 850 l 242 800 m 17 57 l 393 676 l 393 682 l 349 682 b 190 636 254 682 233 679 b 75 460 157 603 122 540 l 53 460 l 71 731 l 693 731 l 693 676 l 318 54 l 318 49 l 376 49 b 557 99 496 49 521 63 b 674 276 592 133 631 197 l 697 276 l 669 0 l 17 0 "},"ż":{"ha":714,"x_min":0,"x_max":0,"o":"m 247 908 b 382 1032 247 983 307 1032 b 517 908 458 1032 517 983 b 382 785 517 832 458 785 b 247 908 307 785 247 832 m 17 57 l 393 676 l 393 682 l 349 682 b 190 636 254 682 233 679 b 75 460 157 603 122 540 l 53 460 l 71 731 l 693 731 l 693 676 l 318 54 l 318 49 l 376 49 b 557 99 496 49 521 63 b 674 276 592 133 631 197 l 697 276 l 669 0 l 17 0 "},"ž":{"ha":714,"x_min":0,"x_max":0,"o":"m 347 806 l 176 1029 l 183 1042 l 388 964 l 592 1042 l 599 1029 l 428 806 m 17 57 l 393 676 l 393 682 l 349 682 b 190 636 254 682 233 679 b 75 460 157 603 122 540 l 53 460 l 71 731 l 693 731 l 693 676 l 318 54 l 318 49 l 376 49 b 557 99 496 49 521 63 b 674 276 592 133 631 197 l 697 276 l 669 0 l 17 0 "},"ß":{"ha":949,"x_min":0,"x_max":0,"o":"m 640 -14 b 417 113 486 -14 417 39 b 515 199 417 171 453 199 b 614 82 579 199 600 174 b 656 26 621 38 624 26 b 738 97 707 26 738 58 b 592 269 738 165 693 200 b 450 467 472 350 450 396 b 599 863 450 607 599 715 b 494 1017 599 958 586 1017 b 356 821 414 1017 356 978 l 356 101 b 394 29 356 42 361 38 l 417 24 l 417 0 l -1 0 l -1 24 l 24 31 b 82 114 79 46 82 50 l 82 656 l -8 656 l -8 672 l 82 731 l 82 735 b 513 1060 82 940 263 1060 b 822 872 706 1060 822 981 b 563 610 822 724 563 653 b 719 504 563 583 590 574 b 935 247 856 431 935 357 b 640 -14 935 103 824 -14 "},"æ":{"ha":1132,"x_min":0,"x_max":0,"o":"m 475 100 b 214 -17 410 21 333 -17 b 13 161 90 -17 13 50 b 240 368 13 297 122 336 l 399 411 l 399 535 b 328 707 399 663 385 707 b 272 650 293 707 275 700 b 153 500 265 531 236 500 b 40 590 78 500 40 532 b 351 749 40 685 142 749 b 568 665 451 749 526 724 b 781 749 626 721 703 749 b 1119 410 985 749 1113 651 l 668 410 b 901 115 672 168 753 115 b 1090 164 976 115 1036 136 l 1090 138 b 775 -17 1043 71 933 -17 b 479 100 640 -17 542 24 l 475 100 m 769 710 b 668 447 713 710 671 660 l 854 461 b 769 710 854 658 836 710 m 360 88 b 458 129 400 88 429 100 b 399 354 419 188 400 263 l 374 353 b 279 217 306 349 279 315 b 360 88 279 118 311 88 "},"ǽ":{"ha":1132,"x_min":0,"x_max":0,"o":"m 442 814 l 607 993 b 697 1036 635 1022 658 1036 b 792 931 749 1036 792 988 b 714 842 792 890 769 850 l 447 800 m 475 100 b 214 -17 410 21 333 -17 b 13 161 90 -17 13 50 b 240 368 13 297 122 336 l 399 411 l 399 535 b 328 707 399 663 385 707 b 272 650 293 707 275 700 b 153 500 265 531 236 500 b 40 590 78 500 40 532 b 351 749 40 685 142 749 b 568 665 451 749 526 724 b 781 749 626 721 703 749 b 1119 410 985 749 1113 651 l 668 410 b 901 115 672 168 753 115 b 1090 164 976 115 1036 136 l 1090 138 b 775 -17 1043 71 933 -17 b 479 100 640 -17 542 24 l 475 100 m 769 710 b 668 447 713 710 671 660 l 854 461 b 769 710 854 658 836 710 m 360 88 b 458 129 400 88 429 100 b 399 354 419 188 400 263 l 374 353 b 279 217 306 349 279 315 b 360 88 279 118 311 88 "},"ð":{"ha":829,"x_min":0,"x_max":0,"o":"m 413 -17 b 18 367 207 -17 18 101 b 399 749 18 649 238 749 b 479 733 439 749 460 743 b 372 901 457 792 424 849 l 194 817 l 175 853 l 340 932 b 171 1042 296 971 240 1008 l 181 1065 b 436 976 274 1043 360 1014 l 593 1051 l 613 1015 l 481 953 b 810 426 685 840 810 665 b 413 -17 810 82 610 -17 m 414 24 b 526 354 486 24 526 51 b 414 708 526 661 482 708 b 301 371 335 708 301 640 b 414 24 301 56 342 24 "},"ø":{"ha":828,"x_min":0,"x_max":0,"o":"m 156 63 b 18 363 74 125 18 224 b 414 749 18 644 219 749 b 618 703 486 749 557 733 l 681 789 l 733 789 l 656 681 b 810 368 747 619 810 517 b 414 -17 810 88 613 -17 b 192 39 335 -17 257 1 l 122 -57 l 69 -57 m 293 382 b 296 256 293 333 294 292 l 522 569 b 410 708 503 692 463 708 b 293 382 344 708 293 661 m 417 24 b 535 357 489 24 535 56 b 529 507 535 417 533 465 l 300 190 b 417 24 315 46 353 24 "},"ǿ":{"ha":828,"x_min":0,"x_max":0,"o":"m 246 814 l 411 993 b 501 1036 439 1022 463 1036 b 596 931 553 1036 596 988 b 518 842 596 890 574 850 l 251 800 m 156 63 b 18 363 74 125 18 224 b 414 749 18 644 219 749 b 618 703 486 749 557 733 l 681 789 l 733 789 l 656 681 b 810 368 747 619 810 517 b 414 -17 810 88 613 -17 b 192 39 335 -17 257 1 l 122 -57 l 69 -57 m 293 382 b 296 256 293 333 294 292 l 522 569 b 410 708 503 692 463 708 b 293 382 344 708 293 661 m 417 24 b 535 357 489 24 535 56 b 529 507 535 417 533 465 l 300 190 b 417 24 315 46 353 24 "},"þ":{"ha":864,"x_min":0,"x_max":0,"o":"m 335 643 l 339 643 b 568 749 397 699 464 749 b 838 407 711 749 838 653 b 429 -17 838 101 657 -17 b 335 -6 396 -17 363 -12 l 335 -162 b 389 -244 335 -228 338 -232 l 424 -253 l 424 -276 l -22 -276 l -22 -253 l 3 -246 b 61 -162 58 -231 61 -226 l 61 874 b 17 981 61 949 60 961 l -29 1001 l -29 1019 l 328 1051 l 340 1043 b 335 875 340 1043 335 968 m 428 24 b 558 346 511 24 558 74 b 418 615 558 563 506 615 b 335 603 376 615 353 608 l 335 75 b 428 24 353 47 390 24 "},"đ":{"ha":886,"x_min":0,"x_max":0,"o":"m 803 161 b 850 63 803 88 804 79 l 883 50 l 883 32 l 549 -17 l 531 -4 l 531 83 l 526 83 b 307 -17 471 31 403 -17 b 26 325 147 -17 26 93 b 438 749 26 631 215 749 b 528 735 479 749 501 743 l 528 825 l 315 825 l 315 881 l 528 881 b 482 969 526 942 521 947 l 426 1000 l 426 1019 l 797 1051 l 808 1043 b 799 881 808 1043 799 969 l 882 881 l 882 825 l 799 825 m 449 107 b 528 124 476 107 511 117 l 528 649 b 439 708 508 685 486 708 b 306 394 361 708 306 638 b 449 107 306 178 347 107 "},"ħ":{"ha":888,"x_min":0,"x_max":0,"o":"m -11 878 l 82 878 b 38 981 82 949 79 958 l -8 1001 l -8 1019 l 350 1051 l 363 1043 b 357 878 363 1043 357 968 l 556 878 l 556 828 l 357 828 l 357 646 l 361 646 b 625 749 432 699 515 749 b 804 563 731 749 804 686 l 804 114 b 864 31 804 49 808 46 l 889 24 l 889 0 l 460 0 l 460 24 l 481 29 b 531 114 529 42 531 44 l 531 510 b 449 610 531 586 500 610 b 357 601 410 610 381 607 l 357 114 b 407 29 357 43 360 42 l 428 24 l 428 0 l -1 0 l -1 24 l 24 31 b 82 114 79 46 82 50 l 82 828 l -11 828 "},"ı":{"ha":439,"x_min":0,"x_max":0,"o":"m -1 24 l 24 31 b 82 114 79 46 82 50 l 82 571 b 35 668 82 632 78 638 l -10 700 l -10 713 l 350 749 l 361 740 b 356 563 357 672 356 624 l 356 114 b 414 31 356 50 358 46 l 439 24 l 439 0 l -1 0 "},"ĳ":{"ha":857,"x_min":0,"x_max":0,"o":"m 78 924 b 213 1047 78 999 138 1047 b 347 924 289 1047 347 999 b 213 800 347 847 289 800 b 78 924 138 800 78 847 m 517 924 b 651 1047 517 999 576 1047 b 786 924 728 1047 786 999 b 651 800 786 847 728 800 b 517 924 576 800 517 847 m -1 24 l 24 31 b 82 114 79 46 82 50 l 82 571 b 35 668 82 632 78 638 l -10 700 l -10 713 l 350 749 l 361 740 b 356 563 357 672 356 624 l 356 114 b 414 31 356 50 358 46 l 439 24 l 439 0 l -1 0 m 794 32 b 464 -283 794 -154 653 -283 b 232 -132 315 -283 232 -224 b 344 -31 232 -67 274 -31 b 464 -201 419 -31 454 -61 b 483 -240 467 -235 469 -240 b 521 -146 507 -240 521 -222 l 521 571 b 474 668 521 632 517 638 l 429 700 l 429 713 l 789 749 l 800 740 b 794 563 796 672 794 624 "},"ŀ":{"ha":668,"x_min":0,"x_max":0,"o":"m 360 114 b 424 31 360 49 368 46 l 449 24 l 449 0 l -1 0 l -1 24 l 24 31 b 86 114 83 47 86 50 l 86 874 b 38 981 86 949 82 957 l -8 1001 l -8 1019 l 353 1051 l 365 1043 b 360 875 365 1043 360 968 m 401 507 b 535 639 401 585 461 639 b 668 507 604 639 668 585 b 535 375 668 433 604 375 b 401 507 461 375 401 433 "},"ł":{"ha":447,"x_min":0,"x_max":0,"o":"m 0 499 l 86 543 l 86 874 b 38 981 86 949 82 957 l -8 1001 l -8 1019 l 354 1051 l 367 1043 b 361 875 367 1043 361 968 l 361 688 l 447 732 l 447 678 l 361 633 l 361 114 b 425 31 361 49 369 46 l 450 24 l 450 0 l -1 0 l -1 24 l 24 31 b 86 114 83 47 86 50 l 86 489 l 0 444 "},"ŉ":{"ha":969,"x_min":0,"x_max":0,"o":"m -157 628 b -6 807 -31 671 -1 738 b -62 776 -18 788 -37 776 b -153 872 -112 776 -153 810 b -35 979 -153 940 -99 979 b 100 835 33 979 100 931 b -153 610 100 714 17 638 m 82 24 l 107 31 b 165 114 163 46 165 50 l 165 569 b 121 667 165 631 164 636 l 76 699 l 76 713 l 422 749 l 433 740 l 433 635 l 438 635 b 707 749 513 693 597 749 b 886 563 813 749 886 686 l 886 114 b 946 31 886 49 890 46 l 971 24 l 971 0 l 542 0 l 542 24 l 563 29 b 613 114 611 42 613 44 l 613 510 b 531 606 613 585 582 606 b 439 597 492 606 463 603 l 439 114 b 489 29 439 43 442 42 l 510 24 l 510 0 l 82 0 "},"ŋ":{"ha":860,"x_min":0,"x_max":0,"o":"m 529 510 b 447 606 529 585 499 606 b 356 597 408 606 379 603 l 356 114 b 406 29 356 43 358 42 l 426 24 l 426 0 l -1 0 l -1 24 l 24 31 b 82 114 79 46 82 50 l 82 569 b 38 667 82 631 81 636 l -7 699 l -7 713 l 339 749 l 350 740 l 350 635 l 354 635 b 624 749 429 693 514 749 b 803 563 729 749 803 686 l 803 46 b 472 -283 803 -149 657 -283 b 256 -149 331 -283 256 -231 b 354 -60 256 -90 292 -60 b 461 -212 418 -60 453 -90 b 478 -244 464 -240 467 -244 b 529 -146 499 -244 529 -222 l 529 510 "},"œ":{"ha":1263,"x_min":0,"x_max":0,"o":"m 414 -17 b 18 363 208 -17 18 104 b 414 749 18 644 219 749 b 672 644 514 749 607 715 b 908 749 738 713 822 749 b 1247 410 1113 749 1240 651 l 796 410 b 1029 115 800 168 881 115 b 1218 164 1104 115 1164 136 l 1218 138 b 903 -17 1171 71 1061 -17 b 653 75 792 -17 708 15 b 414 -17 586 13 497 -17 m 897 710 b 796 447 840 710 799 660 l 982 461 b 897 710 982 658 964 710 m 417 24 b 526 357 489 24 526 56 b 410 708 526 674 479 708 b 301 382 344 708 301 661 b 417 24 301 63 336 24 "},"ŧ":{"ha":524,"x_min":0,"x_max":0,"o":"m 288 -17 b 68 204 132 -17 68 49 l 68 454 l -8 454 l -8 504 l 68 504 l 68 656 l -8 656 l -8 672 b 272 925 113 717 226 822 l 342 925 l 342 731 l 511 731 l 500 656 l 342 656 l 342 504 l 508 504 l 508 454 l 342 454 l 342 203 b 432 100 342 121 357 100 b 522 111 464 100 501 106 l 522 88 b 288 -17 485 43 418 -17 "},"ȷ":{"ha":418,"x_min":0,"x_max":0,"o":"m 356 32 b 25 -283 356 -154 214 -283 b -207 -132 -124 -283 -207 -224 b -94 -31 -207 -67 -165 -31 b 25 -201 -19 -31 15 -61 b 44 -240 28 -235 31 -240 b 82 -146 68 -240 82 -222 l 82 571 b 35 668 82 632 78 638 l -10 700 l -10 713 l 350 749 l 361 740 b 356 563 357 672 356 624 "},"ª":{"ha":639,"x_min":0,"x_max":0,"o":"m 175 383 b 19 525 79 383 19 435 b 240 693 19 621 93 657 l 328 715 l 328 810 b 265 932 328 917 311 932 b 233 890 242 932 236 921 b 125 768 222 796 193 768 b 42 844 72 768 42 803 b 310 972 42 913 111 972 b 549 821 454 972 549 940 l 549 528 b 574 456 549 482 553 465 b 625 444 588 449 614 444 l 625 426 b 471 383 601 411 553 383 b 336 449 403 383 351 403 l 332 449 b 175 383 301 414 257 383 m 290 468 b 328 485 306 468 319 474 l 328 671 l 297 669 b 236 564 271 668 236 650 b 290 468 236 485 257 468 "},"º":{"ha":676,"x_min":0,"x_max":0,"o":"m 338 386 b 21 679 186 386 21 479 b 338 974 21 894 190 974 b 656 682 489 974 656 882 b 338 386 656 465 488 386 m 339 419 b 422 675 385 419 422 443 b 338 940 422 911 394 940 b 254 699 283 940 254 896 b 339 419 254 457 275 419 "},"̀":{"ha":0,"x_min":0,"x_max":0,"o":"m -450 842 b -528 931 -506 850 -528 890 b -433 1036 -528 988 -485 1036 b -343 993 -394 1036 -371 1022 l -178 814 l -183 800 "},"́":{"ha":0,"x_min":0,"x_max":0,"o":"m -500 814 l -335 993 b -244 1036 -307 1022 -283 1036 b -150 931 -193 1036 -150 988 b -228 842 -150 890 -172 850 l -494 800 "},"̂":{"ha":0,"x_min":0,"x_max":0,"o":"m -128 807 l -135 794 l -339 872 l -543 794 l -550 807 l -379 1031 l -299 1031 "},"̃":{"ha":0,"x_min":0,"x_max":0,"o":"m -572 801 b -424 1003 -531 928 -494 1003 b -208 976 -365 1003 -269 976 b -125 1038 -172 976 -151 994 l -106 1026 b -254 825 -146 900 -176 825 b -469 850 -311 825 -408 850 b -553 790 -507 850 -526 833 "},"̄":{"ha":0,"x_min":0,"x_max":0,"o":"m -539 949 l -139 949 l -139 853 l -539 853 "},"̆":{"ha":0,"x_min":0,"x_max":0,"o":"m -340 797 b -525 1018 -446 797 -503 893 l -510 1024 b -339 943 -476 963 -425 943 b -168 1024 -258 943 -204 963 l -153 1018 b -340 797 -171 893 -232 797 "},"̇":{"ha":0,"x_min":0,"x_max":0,"o":"m -347 908 b -212 1032 -347 983 -287 1032 b -78 908 -136 1032 -78 983 b -212 785 -78 832 -136 785 b -347 908 -287 785 -347 832 "},"̈":{"ha":0,"x_min":0,"x_max":0,"o":"m -611 911 b -487 1029 -611 986 -554 1029 b -362 911 -418 1029 -362 986 b -487 792 -362 835 -418 792 b -611 911 -554 792 -611 835 m -315 911 b -192 1029 -315 986 -258 1029 b -67 911 -122 1029 -67 986 b -192 792 -67 835 -122 792 b -315 911 -258 792 -315 835 "},"̉":{"ha":0,"x_min":0,"x_max":0,"o":"m -378 807 b -407 863 -390 818 -407 832 b -351 940 -407 900 -376 925 b -307 999 -325 957 -307 971 b -353 1036 -307 1025 -329 1036 b -392 993 -379 1036 -385 1022 b -460 931 -403 943 -422 931 b -521 982 -494 931 -521 954 b -347 1075 -521 1043 -436 1075 b -165 968 -221 1075 -165 1032 b -258 872 -165 919 -210 893 b -362 813 -311 850 -362 835 l -362 807 "},"̊":{"ha":0,"x_min":0,"x_max":0,"o":"m -471 917 b -339 1043 -471 990 -408 1043 b -207 917 -269 1043 -207 990 b -339 790 -207 843 -269 790 b -471 917 -408 790 -471 843 m -418 917 b -339 829 -418 867 -389 829 b -260 917 -289 829 -260 867 b -339 1004 -260 967 -289 1004 b -418 917 -389 1004 -418 967 "},"̋":{"ha":0,"x_min":0,"x_max":0,"o":"m -536 797 l -462 981 b -382 1049 -442 1031 -412 1049 b -292 961 -339 1049 -292 1010 b -362 868 -292 928 -311 894 l -522 786 m -296 797 l -222 981 b -142 1049 -201 1031 -172 1049 b -51 961 -99 1049 -51 1010 b -122 868 -51 928 -71 894 l -282 786 "},"̌":{"ha":0,"x_min":0,"x_max":0,"o":"m -379 806 l -550 1029 l -543 1042 l -339 964 l -135 1042 l -128 1029 l -299 806 "},"̣":{"ha":0,"x_min":0,"x_max":0,"o":"m -490 -171 b -365 -57 -490 -101 -435 -57 b -240 -171 -293 -57 -240 -101 b -365 -285 -240 -240 -293 -285 b -490 -171 -435 -285 -490 -240 "},"̧":{"ha":0,"x_min":0,"x_max":0,"o":"m -464 -260 b -349 -179 -389 -243 -349 -211 b -400 -146 -349 -157 -365 -147 l -406 -139 l -337 0 l -287 0 l -329 -56 b -210 -144 -247 -62 -210 -99 b -464 -281 -210 -228 -346 -269 "}}}
